<?xml version="1.0" encoding="UTF-8"?>
<svg id="Layer_1" data-name="Layer 1" xmlns="http://www.w3.org/2000/svg" viewBox="0 0 479.81 706.8">
  <defs>
    <style>
      .cls-1, .cls-2, .cls-3 {
        stroke-width: 0px;
      }

      .cls-2 {
        fill: none;
      }

      .cls-3 {
        fill: #f4f4f4;
      }
    </style>
  </defs>
  <g>
    <path class="cls-1" d="m464.62,497.65c-1.3-3.87-4.56-7.15-4.77-11.35-.07-2.75,1.81-5.73.71-8.32-3.98-5.65-7.45-11.51-9.87-18-1.69-4.19-4.35-11.46-6.62-13.13-1.94-2.51-9.98-2.29-16.55-2.34-6.05,2.08-10.24,8.25-15.31,12.11-3.29,3.9-5.58,8.68-9.18,12.3-5.08,3.62-9.72,7.79-13.62,12.57-2.3.97-5.86,3.01-7.62.23-2.79-3.93-7.88-1.65-11.83-2.06-22.6-.07-45.41-1.43-67.72,3.47-.72.16-1.63.1-1.46-.76,1.3-5.2-2.67-10.4-1.23-15.66,7.36-36.04,15.38-73.12,15.6-109.91,1.55-1.93,2.94-4.55,5.52-5.23,10.37-2.61,8.75-28.3,15.15-37.81,1-1.64.93-3.18.49-5.18-6.08-17.04-28.11-33.03-34.38-48.39-2.75-7.4,2.5-8.61-.06-15.97-1.35-3.46-1.93-7.01-3.08-10.32-4.01-14.91-9.97-13.17,2.77-22.29,2.6-2.08,5.06-4.21,7.51-6.42.91-.9,2.1-1.55,2.25-2.99,3.36-19.12-4.29-22.86-15.95-35.7-7.46-5.45-17.68-6.89-25.34-12.07-10.29-11.77-16.62-26.25-27.18-37.92-1.59-1.96-4.04-2.8-6.5-2.62-6.91-.66-13.36-3.93-20.29-4.96-6.23-1.22-3.85-9.71-4.07-14.24.37-3.55-3.79-.79-6.39-3.2,5.82-9.15.5-19.97,1.04-30,1.05-2.56,1.05-5.3.71-8.02-.01-.62-.42-1.51.21-1.85,1.03-.15,1.94-.17,1.84-1.49-.01-3.27-4.88-11.16-2.52-11.64,1-.23,1.31-1,.86-2.02-1.04-2.61-5.52-6.63-6.9-10.02-2.1-8.62-11.52-12.09-18.32-16.37-.42-.29-.92-.55-1.24-.86-.58-.63,1-1.07,1.2-1.63.21-.4-.21-.65-.55-.71-2.94-.51-6.19.04-8.79-1.96-.32-.27-.33-.55-.16-.86.77-1.11,2.22-1.62,3.27-2.39-3.78-4.13-10.7.84-15.74-.28-1.17-.9-14.2,1.36-9.65,3.93.48.05,1.85.38,1.02.99-.89.45-1.9,1.37-2.76.63-4.39-2.77-10.94,1.42-15.22,3.9-3.77,1.76-5.08,5.26-9.15,5.45-5.4,2.17-9.45,7.96-14.02,10.78-.4-.13-.39-.19-.59-.29-.49-.33-.95-.06-1.34.33-8.87,9.8-14.06,20.59-12.38,33.9-.03,1.01.28,2.36,1.25,2.81,1.13.48,1.64-1.47,2.46-1.85.98.03.94,1.44,1.77,1.91,1.06.81,1.96-1.37,2.89-.65,2.63,3.29,2.91,10.24,1.64,14.05-.88,2.79-4.69,4.58-4.3,7.78,4.31,12.1,12.32,22.6,18.88,33.45,5.91,4.4,18.98-1.85,25.93-4.89.58-.19,1.11-.84,1.55-.15.85,1.46,1.08,3.24.05,4.65-5.02,6.23-9.52,13.22-12.42,20.67,2.5,5.67,11.74,7.27,13.97,13.05.42,7.44-1.38,15.02-1.31,22.52-2.03,17.14,6.78,33.53,5.14,50.57-13.13,28.2-40.02,9.27,9.26,51.73,1.32,1.64,3.26,2.42,2.59,3.85-6.83,8.32-12.63,17.65-18.27,26.71.43,2.09,2.92,3.53,4.36,5.07,4.41,5.51,10.48,8.39,16.8,11.17,1.78,1.23-2.84,3.08-3.12,4.23-2.89,7.69-7.84,15.06-8.34,23.68.06,1.87,1.42,3.59,3.27,3.98,6.52,1.35,12.64,3.85,18.81,6.19,2.57.88,4.27,1.65,2.8,4.56-3.91,10.2-8.3,20.19-12.69,30.19-9.01,22.5-21.48,43.96-29.66,66.63-4.23,23.35-1.64,47.54-5.81,70.93-3.84,14.89-8.65,29.6-11.9,44.63.42,3.58,8.31,1.81,9.6,4.95.14.44.14.63-.54.61-6.18-.98-9.69-1.86-11.84-2.13-1.26-.16-2.05-.1-2.65.28l-.09.06c-1.61,1.14-1.75,4.85-6.22,13.47-3.08,5.4,5.03,16.77.45,20.35-.8.79-2.59-.1-3.46.58-1.81,1.07-2.46,3.61-4.04,4.85-2.75,1.38-5.06,3.44-7.71,4.94-3.82,1.67-8.19.43-12.39.69-20.28,4.13-40.37-2.69-60.46-5.16-10.74-1.6-15.93,11.21-22.13,17.97-.55.44-.66,1.55-.42,1.95,2.76,2.78,14.6-14.28,19.12-16.2,5.5-1.22,18.96,3.66,25.14,3.99,4.88,1.52,6.76,7.11,10.82,9.81,9.27,3.6,19.49,5.03,29.33,6.88,14.51,4.11,29.89-9.3,39.04-6.03,18.49,13.85,22.36,1.64,16.71,29.18-1.01,4.67,1.13,10.18-.66,14.54-8.12,2.78-17.36-2.34-25.23.82-2.46.45-4.82-1.1-7.2-1.26-1.13.26-.84,1.66.19,1.95,11.06,2.45,22.18,4.82,33.24,7.25.94.1,2.33.72,2.73-.51.41-1.47.73-2.97,1.18-4.47,1.59-18.29,4.27-39.06,2.53-56.61-2.24-2.8.46-6.4.25-9.45.05-.69-.01-1.85.92-1.86,6.57.61,13.04,2.05,19.64,1.23.66-.1,1.04-.58,1.36-1.12,3.82-6.33,12-9.53,13.96-17.15,1.8-4.48-.64-8.83-.85-13.33,1.68-16.16,4.95-32.48,10.04-47.9,1.6-3.71,3.08-7.57,3.38-11.64.86-9.66,4.07-18.94,4.54-28.71.77-5.6.82-11.72,3.37-16.81,8.73-10.92,17.17-22.17,25.75-33.31,13.44-17.46,27.21-34.64,42.91-49.81.33-.31.51-.44.16.14-11.2,18.65-27.24,33.03-40.84,49.9-.65.89-.99,1.76-.92,2.8h0c.01.17.03.34.06.51,5.47,25.71,10.42,51.72,17.61,77,.21.37.62.53,1.08.72,1.27.46,1.59,1.77,2.18,2.83,5.02,9.6,11.09,18.56,17.82,27,.31.35.69.43,1.13.36,14.3-2.45,29.04-8.37,42.08-15.22,5.99-1.97,12.71-2.4,18.96-3.43,4.28-.57,10.64-2.5,14.46-2.25,1.52.1,2.23.48,2.53,1.59,2.29,6.75,21.03,4.22,26.87,3.75,1.45-.01,1.65-1.48,1.52-2.6-.63-7.85,1.05-15.61.86-23.43-.06-.61.19-.99.96-1.54,4.79-3.21,16.39-6.49,19.64-8.39.74-.36,2-1.08,2.79-.59,1.15.92,2.06,3.12,3.95,2.41,3.46-.73,6.54.97,9.91,1.4,2.98.7,4.35,3.53,6.38,5.6,8.1,7.2,15.49,15.17,20.88,24.64,4.97,6.73,7.94,17.33,15.83,21.46-.32.6,19.92,1.78,19.92-.69,0-.3-.3-.66-.99-1.08-5.84-.81-14.54,3.16-19.33-1.12-4.38-5.71-7.58-12.32-11.47-18.39-1.99-3.8,1.07-8.28-.28-12.27-5.08-13.21-12.97-27.32-25.66-34.56-3.14-1.71-7.92-1.93-10.26-4.74-1.64-6.11-2-12.66-4.65-18.62-1.57-3.58,2.4-6.15,4.32-8.55,4.3-3.98,7.71-9.06,11.97-12.96,7.9.61,16.23,15.29,21.29,21.39.67,1.02,1.58,2.12,2.72,1.47.86-.73.21-2.25-.48-3.06-4.66-7.32-8.68-14.75-11.89-22.86,3.1.01,7.13-1.57,8.52,1.81,3.86,7.34,7.91,14.58,11.52,22.04,3.01,3.92,1.95,9.62,1.7,14.3.01,1.47-.82,5.43.94,4.92,4.17-1.23,10.12,28.86,11.79,32.86,2.14,2.54,6.26,34.56,11.81,37.05,0,0,0,0,.02,0l.03-.08c.62-22.48-7.28-44.54-15.16-65.25Zm-335.09,190.15c2.76-.03,9.89-2.3,9.71,1.43-2.03,1.74-6.89-1.07-9.71-1.43Zm-8.83-80.91h.13c4.28,2.05,8.92,3.83,13.08,6.03,2.03,2.45,5.13,3.06,7.91,4.01.64.28,1.77.39,1.52,1.34-.33,1.4-.89,2.79-1.33,4.17-.36,1.13-.66,2.29-.73,3.48-.05.34.05,1.57-.41,1.86-.52.2-1.25-.32-1.76-.49-7.01-2.95-14.39-5.07-21.51-7.69-.58-.23-1.47-.45-1.84-.93-.32-.71.2-1.33.54-2.12,1.9-2.84,1.56-7.76,4.4-9.66Zm-2.98-2.15q-2.58-.24-3.1,1.78c-1.28-.18-1.06-1.35-1.22-2.09-.42-2.78,3.12-1.56,4.32.31Zm-7.58,15.65c2.39-1.45.58,4.39-.53,4.54-2.64-.38-.48-3.34.53-4.54Zm-26.79,14.57c-2.54-.86-5.13-.8-7.67-2.25,4.76-1.85,6.66-1.31,7.67,2.25Zm-18.95,3.61c-4.37.39-7.41-3.36-10.09-6.26-.18-.23-.59-.48-.44-.68.61-.69,1.83-.38,3.15-.04,1.31.41,2.66.56,3.94.19.39-.03.7.15.88.48.51,2.22,2.05,4.05,2.61,6.24l-.05.07Zm12.68,1.73c-2-.24-3.52-.75-5.43-.84-2.87.05-4.03.37-4.76-1.67-.15-.41-.3-1.05-.4-1.55-.16-1.23-1.19-2.26-1.46-3.45-.3-1.43,3.22-.78,4.22-.97,4.15-.08,5.56,3.76,7.98,6.56.53.63,1.62.57,1.94-.18.3-.53-.25-1.23-.42-1.76-.08-.31-.06-.77.46-.75,1.19.25,2.51.29,3.77.46,1.29.17,2.47.6,3.62,1.55.36.26,1.1.41,1.42.25,1.1-.89-1.92-4.16-2.6-5.3-.33-.46-.64-.77.04-.95,7.13-1.63,7.45,2.93,11.7,7.16.79.77,2.21,2.14,3.14.89.51-1.1-.58-2.36-1.87-3.66-1.05-1.05-2.27-2.07-3.13-3.24-.24-.36-.57-.74-.44-1.06.46-.61,1.35-.7,2.04-.84.38-.05.76-.1,1.13-.17.41-.04.92-.34,1.11-.22.12.4.15,1.08.17,1.33.57,3.38,3.67-2.57,4.39-3.31l.09-.02c.98.65,2.17,1.58,3.26,2.01,3.9,1.51,4.64,1.79,2.64,5.74-.13.29-.36.59-.4.97-.04.59.26,1.03.52,1.03.63.07,1.61-1.36,2.48-2.97.63-1.34,1.49-2.72,1.71-4.05-.06-.08-.2-.12-.4-.15-2.9-.18-4.82-1.55-6.66-2.56-1.72-1.01-3.69-1.4-5.6-.63-1.01.46-1.81.75-1.04-.66,1.22-1.56,2.42-2.72,4.67-2.12,3.13.65,7.28,3.32,9.72,4.2.34.12.53.38.66.74,5.23,16-28.88,11.49-38.27,10.19Zm35.95-16.04c.02.87-.01,1.41-.63,1.64-.85-.36-.13-1.3.63-1.64Zm30.56,19.19c.06.43.02.8-.33,1.03-1.46.61-4.25-.79-6.04-1.56-4.66-2.21-9.11-4.84-11-6.03-1.4-1.01-2.66-2.36-4.24-3.16-.69-.44-1.73-.41-2.26-1.09-.34-.46-.39-1.06-.37-1.69.14-2.93-4.25-2.73-5.32-4.57-.81-1.22.87-2.67-.28-3.67-.77-.75-1.47.63-2.11.53l-.06-.06c.15-.89.42-2.52,1.51-2.21,1.26.45,2.5.85,3.72,1.36.79.33,1.51.8.68,1.57-.67.59-2.4,1.65-1.1,2.5,1.85.58,2.55-2.82,4.48-2.39,3.02.93-1.46,5.95-.3,7.75.07-.01.2-.03.27-.05.73-.45.52-1.43.84-2.09.6-1.69.48-5.66,2.99-4.03,3.14,1.7,6.78,2,9.78,3.96.8.4.53,1,.09,1.58-.41.4-.86,1.72-1.66,1.65-.18.03-1.16-.2-1.47-.41-.42-.25-.46-.56-.55-.97-.59-3.23-2.53,2.44-3.15,3.57-.21.47-.2.6.21.54,1.58-.65,2.53-.25,2.92,1.28.13.28.09.55.4.47,1.5-1.63,2.8-4.13,4.18-5.57,1.11-1.04,2.37-1.09,5.34.06,1.13.51,2.35.75,3.15,1.69,1.85,2.3-.8,7.04-.32,10.01Zm.15-57.54c5.12.22,10.24,2.01,15.03,3.85v.05c-3.5,1.7-6.62-1.33-10.24-1.61-1.71-.39-3.68-.92-4.79-2.29Zm4.72,27.04c.18-.25.41-.41.75-.37,3.77,1.51,7.57,3.17,11.43,4.49l.03.04c-1.71.99-14.75-1.05-12.21-4.16Zm171.3-265.34c-.75-1.2,1.05-1.86,1.92-1.03-.53.73-1.07,1.18-1.92,1.03Zm-20.31-98.4c-1.46,7.67-3.72,15.13-7.75,21.85-.45.78-1.94,2.8-.35,3.05,2.82-.64,4.21-4.48,5.71-6.89.58-.94,1.22-1.92,1.96-2.5.17-.06.15-.16.51-.01l.4.4c2.2,2.38-2.21,3.83-2.13,6.12.09.26.45.09.64.03,1.28-.33,2.71-4.11,3.9-2.61,8.44,10.51,15,22.62,25.68,31.1.36.28.61.59.75,1.01.72,2.62,4.01,6.32,3.7,8.63-.18,1.27-1.42.5-2.16-.08-2.5-1.96-5.85-6.84-7.95-5.93-1.56,2.04,4.8,5.29,5.84,6.65,1.19,1.2,2.97,2.04,2.61,3.91-.26,1.14-.83,2.44-1.35,3.53-1.76,3.74-2.14,7.51-3.18,11.55-.14.44-.45.46-.86.26-15.59-7.59-31.53-13.88-47.3-21.03-12.64-3.17-25.94-4.22-38.83-6.16-.49-.06-.67-.25-.27-.69,7.68-8.62,18.21-16.22,26.85-24.5.77-.74,1.94-1.6,2.12-2.69.22-.95-.64-1.81-1.32-2.42-5.88-5.62-12-10.91-17.61-16.75v-.11c13.46-11.59,27.2-22.68,40.92-34.24.43-.39.7-.28.85.25,2.8,9.59,8.96,18.4,8.62,28.27Zm-46.25,58.26c-1.6,3.81-.89,8.29-2.8,12.03h-.04c-.93-4.07-1.88-8.19-2.28-12.36,0-.31-.19-.75.12-.9,1.34-.52,2.7.17,4.05.25.64.08,1.28.23.95.98Zm-32.46-.3c-2.91,1.12-5.63,6.93-9.07,4.12-5.63-4.7-10.95-9.48-15.85-14.97-2.11-2.82-.43-6.38-.1-9.84.09-.86.1-1.75-.05-2.59-.22-1.33.51-2.41,1.59-3.13,2.49-1.63,6.3-2.04,8.09-4.44,1.98-2.31,4.86-3.77,6.01-6.75.36-.68,1.23-.71,1.89-.83,1.13-.14,2.01-.19,3.17-.28,5.65-.69,11.43.75,15.65-1.01,4.05-1.82,8.73-6.59,12.4-9.49l.11.02c5.13,6.5,12,11.28,17.9,16.94-8.95,8.74-20.1,14.86-29.41,23.22-2.86,4.55-8.16,6.03-12.33,9.03Zm9.75,1.8c-.09,1.37-.52,2.5-1.09,3.87-2.27-1.68-2.15-2.04,1.09-3.87Zm-38.86-25.57c.88-.15,1.46.16,1.55.98.55,3.22-.78,5.81-2.97,7.98-.53.41-1.06.5-1.77.37-2.22-.28-4.01-.4-6.17-.54-5.44-.33-4.02.14-5.93-2.54-1.01-1.43-2.45-2.95-3.73-4.21-.79-1.08-3.62-2.26-2.07-3.83,4.98-7.76-.67-12.31,10.69-17,1.01-.44,2.1-1.1,3.03-1.54,2.7-.32,11.25,10.5,13.86,15.1l-.06.06c-3.7,1.49-8.21,2.18-10.88,4.76-.54,2.47,2.79.58,4.45.41ZM102.65,62.22c-1.74-2.37-1.74-2.47-.1-4.37,1.44,1.46.63,2.86.1,4.37Zm-.35-8.19c-2.09,1.47-2.16,4.55-3.91,6.18-1.32-6.21,3.04-11.2,5.78-16.24-2.66.52-4.3,4.17-5.89,6.07l-.03-.02c1.43-6.56,4.51-12.81,9.21-17.67.6.29.37,1.44.84,1.92.28.38.73.15.84-.22.17-1.89,1.15-3.41,2.53-4.66,3.4-3.1,6.83-6.5,10.66-9.11.42-.35,1.19-.79,1.16.1-.07.62-.5,1.12-.45,1.78.08,1.17,1.28.99,1.6.05,3.07-5.61,11.83-11.58,18.78-11.85.61.29.11,1.12,0,1.62-.27.58.34,1.35.94,1.2,3.71-2.64,7.7-5.57,12.35-6.28.99-.23,2.32.17,3.09-.74.38-.79-2.63-1.44-3.44-1.71-.49-.18-1.6-.46-.93-.7,2.54-.76,4.98-1.07,7.29.53.29.16.57.19.87.11,2.09-.57,4.24-2.68,6.54-1.99.34.16.17.56.01,1.02-.54,1.44-1.72,3.61-.93,4.07.48.19.73.07,1.4-.1.88-.26,1.81-.06,2.75.3.86.44,2.14.69,2.91,1.19-.4,1.22-1.78,2.02-2.7,2.93-.98.88-1.99,1.79-2.5,3-.05.17-.01.33.11.42.2.16.56.08.77-.08,1.4-1.02,2.92-2.09,4.34-3.07,3.88-2.11,13.77,2.32,16.41,7.24.1.26.25.52.1.75-.09.11-.28.31-.37.41-.7.58-.28,1.25.41,1.6,4.41,2.14,5.82,7.03,9.1,10.49.1.13.11.24.03.3-.62.27-1.41-.28-2.02-.54-.75-.41-1.82-.45-2.53.03-1.05.94.55,2.25,1.51,2.51,1.73.7,2.61,2.15,3.16,3.86.67,2.09,2.77,3.67,2.65,6.01-.04.26-.23.46-.49.6-1.9.72-1.49,1.04-.66,2.08.95,1.08,1.7,3.04,1.6,4.69.12,3.78-2.79-2.06-3.82-2.7-.43-.32-1.45-1.27-1.78-.45-.18,1.21.59,2.06,1.29,2.92,3.07,3.76,3.55,8.29,3.69,12.86-.56,6.17,2.9,12.26,1.67,18.43-.08.44-.19.82-.62.76-.94-.5-.78-1.94-.87-2.91.06-.85-.76-1.67-1.36-.77-.39.9-.23,1.92-.04,2.8.13.55.95,3.76-.42,2.95-4.21-2.93-1.81-8.76-2.8-13.42-1.72,1.44-.66,8.05-.94,11.02-.03.15-.13.27-.28.33-1.38.33-2.03-1.26-2.95-2.01-.62-.48-1.65-.78-2.1-1.51-1.02-1.4-.67-3.75-2.06-4.93-.11-.05-.19.01-.23.17-.35.89.18,7.47-1.06,6.79-6.33-2.53,2.39-10.2.39-14.96-1.8-4.71-5.83-9.45-11.45-8.53-2.43,1.32-4.31,3.93-6.74,5.43-.91.51-2.03.64-2.98,1.09-.83.33-1.24,1.1-1.56,1.89-1.85,2.15-6.46,5.26-8.25,4.71-2.75-.39-4.19-4.27-7.68-9.26-.45-.61-.09-.52.36-.63,1.07.05,1.84.08,2.87.01,6.37-.42-3.53-4.79-5-9.7-1.42-3.96-1.72,1.17-1.06,2.4.37,1.11,1.15,2.14,2.11,3.05.12.13.16.23.1.28-3.87.38-8.82-2.74-11.28-5.96-1.32-1.56.91-.71,1.6-.25,1.95,1.16,3.63,3.38,4.87,2.88,1.51-.82-.08-2.01-.65-2.89-3.09-4.34-3.84-10.83-6.91-14.58-.2-.21-.32-.14-.48.01-1.56,2.35,2.84,8.73,3.82,11.89.11.38-.16.34-.48.23-4.31-1.61-7.31-4.33-11.89-4.64-1.27-.2-2.08-.99-2.43-2.19-.17-.67-.83-1.3-1.3-.63-.9,1.99,1.09,5.1,1.49,7.85,0,.37-.25.2-.46.13-4.68-2.68-8.6-5.65-12.62-9.16-1.45-1.07-.31,7.41-.11,8.22-.02.48.8,3.4-.22,2.58-1.01-.69-1.67-1.79-2.41-2.67-.55-.76-1.45-1.12-2.16-1.76-1.13-.9-1.57-2.74-2.77-3.75-1.11,3.82-1.69,7.84-4.92,10.5Zm27.76,62.85c-6.42,1.5-7.88.63-10.33-4.72-.29-.72-1.19-1.97-1.01-2.82.52-1.93,6.25-2.06,4.36-4.82-2.67-3.23-4,2.08-6.42.36-1.54-1.21-2.3-2.84-3.25-4.63-1.48-2.77-2.71-4.82-4.1-7.19-.57-.94-1.04-1.76-1.65-2.74-4.02-6.6-3.16-4.78-.73-8.75.99-1.81,2.39-4.25,2.58-6.39-.21-6.06-.68-11.8-4.38-16.84-2.45-3.5,2.38-6.54,2.96-9.93.08-.12.19-.09.34.06,1.92,2.29,7.05,4.9,5.24,7.42-.27.41-.77.73-1.04,1.15-.21.31-.22.73.01.95.31.3.79.08,1.17-.05,3.74-1.48,7.46,1.95,11.01.57,1.21-.42,1.6-1.65.99-2.75-1.38-3.31-4.94-2.17-7.89-2.18-.28-.09-.37-.39-.45-.65-.43-1.94-.56-4.04-.65-5.97.01-.29.14-.41.41-.35,2.85.68,9.26,6.95,12.47,6.93,1.48-.01.67-1.98.41-2.89-1.44-3.77-.06-3.54,3-2.58,1.1.52,2.47.7,3.22,1.7,2.79,4.41,6.18,9.55,11.46,11.14,1.67.8,2.27,2.62,3.24,4.16,2.4,4.1,4,7.62,6.78,8.56,1.59.55,3.59.23,6.33-1.31,1.13-.58,2-1.34,3.16-1.78.82-.36,1.89.52,2.6-.08.38-.32.46-.91.49-1.4.15-4.16,5.35-5.12,8.25-7.44,4.64-3.72,7.75,2.38,9.85,5.97,1.21,2.92-1.49,5.63-1.85,8.68-.08.5-.23.99-.51,1.4-.98,1.46-3.21,2.32-4.3,3.71-1.06,1.52-3.46,2.1-5.05,2.19-1.21.1-1.41,1.48-.22,1.89,2.06.62,4.76.02,6.56-.99,1.48-.74,1.7-3.03,3.31-3.47h.14c1.68,1.58,3,3.64,5.16,4.68.41.21.75.43,1.12.22.64-.52.74-3.22,1.84-2.68,3.98,1.94,9.06,10.38,2.53,11.1-8.18,1.43-15.72,5.48-22.59,10.03-4.4,2.63-9.25,4.73-12.95,8.36-2.45,2.18-5.3,3.68-7.61,6.1-3.05,3.02-3.17-2.66-2.81-4.52.11-.76-.18-1.56.14-2.24.21-.79,4.43-1.98,2.34-2.85-8.16,1.48-15.62,5.72-23.68,7.68Zm11.96,24.12c-2.85-1.96-3.05-3.15-.5-6.48,3.32-4.2,10.56-9.59,15.32-13.2,15.18-12.23,30.75-25.59,51.2-25.2l.09.09c.55,4.42-.73,8.48-.23,12.75.02.61-.54,1.02-1.05,1.25-14.75,6.44-29.43,14.49-41.3,25.78-2.34,1.72-5.51,3.75-7.28,5.75-2.82,2.41-4.08,7.01-7.96,5.16-2.88-1.42-5.73-3.88-8.29-5.9Zm10.65,16.29c.04-4.2-.35-8.28,3.52-10.95,15.78-15.59,35.41-29.12,56.45-35.35,23.57,6.2,27.17,6.61,40.83,26.99,1.73,2.59,4.16,5.54,3.46,8.68-.22.86-.62,1.9-1.65,1.66-2.63-.36-6.84-3.37-9.94-4.09-10.15-4.59-17.91-13.44-24.87-21.9-.99-1.17-3.51-3.85-4.95-2.25-.21.53.25.94.53,1.39,2.67,3.58,4.66,7.58,6.55,11.61,11.05,13.52,28.72,18.69,43.46,26.8,14.4,6.58,26.87,6.08,36.98,20.36,3.66,5.22,3.12,9.37,3.63,18.34.13,1.52-.12,2.83-1.27,3.92-9.23,8.5-18.85,16.47-28.32,24.69-10.07,8.74-20.06,17.51-30.21,26.11-5.81,1.96-9.52,7.57-14.31,11.15-3.55,2.09-7.92.41-12.08.68-1.5.02-2.92.59-4.31,1.06-3.3.65-6.82-.78-10.17-.37-3.33.58.53,2.53,1.83,2.96.31.11.49.26.44.48-.27.77-1.44,1.45-2.06,1.85-.8.25-1.27-.9-1.94-1.23-.43-.29-.83-.51-1.19-.16-.71,1.06-1.82,2.23-2.42,3.19-.78,1.18.09,1.73,1.16,1.92.43.05.58.28.52.33-.01.24-.36.65-.58,1.01-.35.4-.62,1.34-1.22,1.04-1.64-1.31-1.88-3.48-3.3-4.9-1.17-1.55,1.17-2,2.12-2.69,1.44-.95,3.08-3.9,2.22-4.82-.65-.69-2.14,0-2.7.68-3.63,3.21-2.54,6.41-5.36,3.11-1.4-1.56-2.76-3.09-4.23-4.65-.32-.34-.71-.73-.71-.91.11-.06.32-.17.43-.23,1.22-.13,2.66-.73,3.39-1.6,1.34-1.42,1.24-4.05-1.03-3.18-.9.38-1.91,1.42-2.55,2.24-.18.18-.38.61-.66.61-.17-1.9,2.17-3.75,3-5.53.31-.69.89-1.18,1.68-.86,3.2.88,1.22-7.86,1.25-9.08-1.01-4.05,9.56-9.08,12.63-11.19,4.94-2.39,6.54-7.89,7.84-12.91.51-2.51,2.39-4.19,4.44-5.8,1.6-1.13,3.09-2.59,4.56-3.8.53-.25.55.48.61.82.05.46.46.46,1.08.15,1.3-.62,5.56-4.13,3.33-4.46-.73-.07-1.38.96-1.97.85-.45-.12-.69-.71-1-1.03-.64-.68-1.43.08-2.19-.16-.31-.11-.9-.49-.93-.88l.05-.08c10.8-1.52,21.39-.59,32.21-1.13.88.07,1.63-.6,1.44-1.43-1.68-3.29-15.73-1.36-20.28-3.06-.46-.17-.25-.42.08-.68,5.08-4,12.99-5.19,19.17-6.72,1.67-.38,5.74-.36,5.14-2.94-.34-.7-1.25-.7-1.95-.63-12.15,1.24-23.98,6.17-35.1,11.09-4.56,2.68-8.62,4.51-13.89,2.48-16.92-3.29-19.6-12.46-32.22-22.16-.37-.27-.69-.46-.7.05.57,6,6.46,9.98,9.05,15.28.26.55.03,1.03-.39,1.44-7.66,7.27-15.14,14.73-23.13,21.62-.43.38-.67.29-.83-.26-2.43-8.23-4.58-16.45-6.16-24.74-2.38-12.39-3.43-24.95-2.31-37.83Zm58.58,60.49c-4.52-4.92-9.06-10.11-14.09-14.57l.02-.05c3.58-.05,5.95,3.33,9.32,3.95.9.21,1.98.02,2.91-.06,2.48.04,5.6,1.29,7.3,3.03,2.54,2.75-.57,3.96-2.32,5.76-.85.7-1.79,1.77-2.85,2.09-.07-.04-.21-.12-.29-.15Zm-68.27,32.78c-.75-.71-1.22-1.14-1.88-1.79-.6-.61-1.23-1.18-1.44-1.91,0-1.03,1.16-1.73,1.88-2.53,14.21-14.08,28.88-27.67,44.21-40.52.4-.32.34-.32.92-.73.85-.58,1.32-1.12,2.2-.45,6.92,6.81,15.08,13.3,21.48,20.41l.05.15c.36,10.71-14.98,10.47-18.72,18.06-.46,2.64-.51,5.62-2.21,7.89-3.18,3.35-4.76,7.17-5.5,11.55-2.77,3.85-10.13,4.11-12.38,8.87-.35.68-.51,1.75-.6,2.43-2.31,3.07-22.77-16.74-28.01-21.43Zm15.2,57.4c-1.57-1.15-2.6-2.24-2.62-3.15-.03-.44.31-.85.65-1.13,2.21-1.48,12.25-18.91,14.91-16.34,2.15,2.98,5.43,7.62,9.2,7.37,2.4.2,5.72.37,7.83,2.04,2.22,3.75,5.59,6.25,8.17,9.6l-.02.09c-7.74,2.02-13.51,9.4-21.68,10-1.55-.46-3.47-1.61-5.3-2.38-3.46-1.64-8.08-3.88-11.14-6.1Zm4.29,43.46s-.09-.09-.13-.12c-.16-2.14.77-3.54.84-5.28.04-1.13.32-2.48,1.47-2.96h.13c.54.2.12,1.1.57,1.34.6.1.96-1.03,1.54-.97.1.04.3.11.41.15,5.21,2.34-2.67,5.44-4.83,7.84Zm19.45,7.19c2.39-4.02,3.36-8.57,6.7-11.89h.03c-1.47,2.4-2.44,14.58-5.98,13.66-.8-.39-1.17-.98-.75-1.77Zm12.84,126.82c-4.01-.41-11.65-1.19-14.25-3.66-.43-.98,3.8-.93,13.36,2.36.59.19.74.66.93,1.26l-.04.04Zm2.48-1.79c-4.76-1.11-8.38-4.8-12.54-7.14-.28-.17-.55-.43-.68-.66-.49-.82.12-1.67,1.05-1.45.32.05.73.36,1,.57,3.69,2.69,8.3,4.94,11.2,8.64l-.03.04Zm-25.33-140.14l-.05-.04c.35-4.14,3.87-8.08,2.05-12.54-2.56-3.84-4.65,4.37-5.13,6.26-.15.62-.18,1.21-.33.45-1.33-7.53,8.73-12.97,12.61-19.08.46.63-.01,2.19-.41,3.89-1.28,5.01-4.8,12.9-2.17,12.93.88-.63.97-1.88,1.39-3.22.46-1.58.58-3.1,1.49-4.36.68-.32,1.59-.04,2.21.26.79.44.17,1.96.65,2.45,3.34,2.67,4.72-4.57,5.42-6.6.18-.4.34-1.12.62-.69.45.9-.34,4.88,1.34,4.39,1.68-1.57.64-4.78.2-6.91-.35-1.31-.14-2.83-1.29-3.51-.99-.5-1.68,1.92-2.3,3.56-.22.51-.4,1.13-.67.92-.37-.35-.69-1.05-1.09-1.44-.41-.53-1.32-.71-1.8-1.07-.5-.45-.66-1.44-1.02-2.09-.17-.31-.34-.58-.27-.82,1.92-2.61,6.09-3.92,8.86-5.62,6.76-4.14,7.02-2.61,12.01,1.9.62.74.04,1.74-.57,3-.48.96-.96,2.12-.96,3.27.02.4,0,1.56.52,1.09,1.19-1.59,2.65-2.75,4.54-2.64,1.59.1,3.16,1.11,4.52,2.83.28.35.26.58-.2.63-16.24,1.44-26.62,15.54-40.17,22.8Zm60.2-8.14c-5.79.43-11.66-1.97-17.31-2.9-4.29-.29-8.29,2.51-12.55,1.59v-.04c3.45-1.06,6.26-4.12,9.69-4.58,6.62,1.26,13.21,3.2,19.78,4.77.53.08,1.3,1.06.39,1.16Zm19.63-9.62c-10.56-2.07-21.23-3.84-31.5-6.95-.08-.08-.06-.18.05-.3,1.92-1.64,3.16-3.91,5.27-5.3,2.12-1.6,1.58,2.36,2.17,3.44.82,2.1,2.55.39,2.85-1.2,1.63-5.58.75-1.34,2.63.39.57.4,1.18.67,1.15,1.44.01.54.06,1.16.38,1.62.51.76,1.68.67,2.01-.16.09-.24.1-.52.07-.79-.4-2.16.29-4.72-.46-6.87-.23-.71-.77-1.3-1.32-1.83-2.73-4.21-.4-5.67,4.82-4.73,1.43.22,2.69.49,4,.73.88.15,1.26.05,1.49.55,1.05,2.07-2.07,10.85-2.06,13.57,0,.57-.12,1.53.66,1.66.52.08.95-.26,1.11-.65.42-.87.15-2.37.5-3.4.1-.36.27-.59.45-.47,1.56,2.16.15,6,3.19,7.21,1.04.17,2.13-1.18,2.63-2.35.5-.97.24-2.87,1.36-3.33,1.17.55,1.36,7.01,2.45,7.19,3.14-.78-3.06-16.61-.48-17.95,21.64,1.18,40.95,14.21,59.88,23.76l.1.04c3.14,1.1,6.31,2.33,9.69,2.74.31.05.31.24.29.47-.65,2.54-.46,8.99-2.65,9.06-6.77-.52-13.34-2.42-19.82-4.41-16.78-5.26-33.56-10.07-50.91-13.18Zm19.64,217.72c-.93,1.75-4.69,6.56-6.85,4.34-.49-2.2,2.67-3.44,4.01-4.82.39-.39.75-.93,1.37-.96.79-.13,1.54.56,1.49,1.34l-.02.1Zm1.87,12.82c-.6.79-1.68.22-1.73-.66-.42-3.52.96-6.48,2.88-9.24,1.9-2.7,4.27-5.25,6.12-7.97.14-.12.38,0,.45.16v.12c-3.39,5.52-4.6,11.95-7.72,17.59Zm8.72-213.53c8.91,1.44,17.04,4.05,25.22,7.17.69.24-.43.03-.77.01-5.14-.8-22.27-2.61-24.51-7.16l.06-.02Zm.31,145.17c2.15-.8,4.3-1.09,6.62-1.55-1.47,2.52-4.42,3.16-6.62,1.55Zm10.37-1.36c-2.22,3.3-3.15,7.49-5.89,10.4-.17.16-.36.4-.49.28-2.03-2.5,3.92-9.11,6.38-10.71v.03Zm57.36-3.22c-.09-.38.14-.71.55-.66,2.8,2.43,1.48,8.59.65,12.05h-.03c-1.03-3.71.2-7.74-1.17-11.39Zm.73,57.86c1.05-5.4,1.62-11.04,3.14-16.35l.05-.04c2.62,1.6-.8,21.36-3.19,16.39Zm48.39-33.24c-.91.08-1.93.36-2.86.59-5.68,1.46-11.14,3.78-17.07,4.03h-.12c-2.55-.78-2.37-11.38-2.77-14.56-.19-2.5-.24-4.56-.73-6.81-.08-.48-.22-1.52.19-1.89.52-.39.95-.4,1.7-.47,3.49.26,12.27-2.5,14.99-.85.36.23.57.52.64.91.83,3.63,9.68,18.66,6.03,19.05Zm-1.63-16.8c.95-1.13,2.22-.78,3.42-.61-.83.71-2.92,1.7-3.42.61Zm5.77,1.99c-1.73.77-3.78,2.86-4.77.77-.71-1.36,3.71-1.14,4.77-.77Zm-.41,9.77c-1.29.37-1.57-.29-1.67-1.3,1.25-.14,3.07-1.77,4.13-.86.54,1.19-1.67,1.56-2.46,2.16Zm-.42-2.77c-.46.53-.85.99-1.25,1.46-.07-.8-.53-1.88,1.25-1.46Zm25.6,17.68c1.08,1.77,2.27,3.38,2.85,5.49-3.3-1.14-4.28-3.04-2.85-5.49Zm12.66,9.55c2.9,2.65,1.91,6.86,1.74,10.27-1.24.16-1.48-1.28-1.94-2.13-3.9-3.37-.95-4.79.12-8.12l.08-.02Zm-32.19-29.11c.99-.37,1.84-1.24,2.93-1.27,1.57.05,3.07,1.6,4.69,1.65l.15.04c10.75,5.57,15.7,16.89,22.95,25.83.29.34.4.73.11,1.1-.67.72-1.12,1.55-1.43,2.48-.33.75-.62,2.1-1.29,2.5-.06-.02-.2-.05-.27-.07-3.21-2.65-4.67-4.7-3.07-8.71.28-.93.62-1.99.13-2.85-.18-.31-.58-.55-.91-.46-.62.14-.68,1.23-1.27,1.31-.15.01-.3-.07-.42-.2-1.07-1.61-2.65-3.06-2.78-5.29-.03-.41-.31-1-.65-1.14-1.33-.25-1.41,4.21-2.13,4.83-.25.16-.73-.36-1.16-.68-1.2-.96-2.56-2.29-2.15-3.95.05-2.41,1.64-5.98.76-7.96-1.35-2.33-2.33.87-2.23,2.56-.13,2.85.25,5.98-3.14,2.76-.25-.18-.59-.3-.62-.46.23-.48.91-1.11.9-1.59,0-.35-.35-.52-.87-.57-.83-.09-2.09.09-3,.21-.29.05-.54.07-.71-.1-.33-.36-.41-1.25-.58-1.77-.31-1.29-.61-2.44-.84-3.66-.18-1.01-.09-1.3.23-1.42.31-.11.86-.05,1.6-.34.94-.36,2.06-1.36,2.61-2.3-2.16.46-7.71.19-6.72,2.92,1,1.97,1.29,4.45,2.15,6.35.4.82,1.04,1.55,1.85,2.05.33.31,1.78.61.79.96-5.32,1.59-5.29-6.56-6.97-10.28-.44-1.17.27-2,1.36-2.48Zm-1.06,8.48c1.07,1.67-1.3,1.95-2.17,2.16-1.85.4-2.52-1.69-1.06-2.19,1.02-.21,2.87-1.58,3.23.03Zm-6.65-9.26c-1.27.33-1.76-.98-.65-1.35,1.78-.26,4.22-2.43,5.74-1.46.14,1.78-3.78,2.51-5.09,2.81Zm5-6.12c-.04.82-.71.66-1.15.74-2.25-.05.81-3.03,1.15-.74Zm-.47-2.04c-.06.1-.21.12-.43.07-1.52-.47-2.83-.48-3.84-.25-1.09.22-1.92.64-2.62.79-2.24.48-2.75-3.19-3.29-4.79-.08-.47-.62-1.88-.25-2.15.57-.34,3.19-1.53,3.49-.6-.1.85-1.75.97-1.83,1.76.78.23,1.72.28,2.56.39.45.04.97-.14,1.36-.07.44.03.54.63.77.73l.09-.02c.85-.32,1.01-1.05.95-1.85-.02-.3.09-.67.06-.85-.16-.44-1.33.25-1.68.06.06-.31.99-.96,1.29-1.3.24-.24.66-.53.6-.74-1.33-.84-3.18.19-4.64.76-1.5.64-3.23,1.24-4.07-.2-.42-1.51,1.6-2.17,2.67-2.69.13-.02.37-.06.49-.08.46.04.32.78.6.86.41.05.46-.02.72-.07,1.52-.35,1.31-2.37,1.92-3.35.31-.49.84-.57,1.19-.11,2.45,3.14,2.95,7.87,3.63,11.82.05.57.34,1.38.26,1.88Zm27.24-32.65c-2.55-1.98-5.22-4.16-7.38-6.49,1.47-2.14,2.98-3.38,4.37.32,1.06,1.93,2.76,3.83,3.05,6.14l-.04.03Z"/>
    <path class="cls-3" d="m102.65,62.22c-1.74-2.37-1.74-2.47-.1-4.37,1.44,1.46.63,2.86.1,4.37Z"/>
    <path class="cls-3" d="m402.44,500.15c-.46.53-.85.99-1.25,1.46-.07-.8-.53-1.88,1.25-1.46Z"/>
    <path class="cls-3" d="m113.03,624.26c.02.87-.01,1.41-.63,1.64-.85-.36-.13-1.3.63-1.64Z"/>
    <path class="cls-3" d="m139.24,689.23c-2.03,1.74-6.89-1.07-9.71-1.43,2.76-.03,9.89-2.3,9.71,1.43Z"/>
    <path class="cls-3" d="m214.39,215.84c-.85.7-1.79,1.77-2.85,2.09-.07-.04-.21-.12-.29-.15-4.52-4.92-9.06-10.11-14.09-14.57l.02-.05c3.58-.05,5.95,3.33,9.32,3.95.9.21,1.98.02,2.91-.06,2.48.04,5.6,1.29,7.3,3.03,2.54,2.75-.57,3.96-2.32,5.76Z"/>
    <path class="cls-3" d="m158.77,589.76v.05c-3.5,1.7-6.62-1.33-10.24-1.61-1.71-.39-3.68-.92-4.79-2.29,5.12.22,10.24,2.01,15.03,3.85Z"/>
    <path class="cls-3" d="m117.72,604.74q-2.58-.24-3.1,1.78c-1.28-.18-1.06-1.35-1.22-2.09-.42-2.78,3.12-1.56,4.32.31Z"/>
    <path class="cls-3" d="m143.34,618.27c-.33,1.4-.89,2.79-1.33,4.17-.36,1.13-.66,2.29-.73,3.48-.05.34.05,1.57-.41,1.86-.52.2-1.25-.32-1.76-.49-7.01-2.95-14.39-5.07-21.51-7.69-.58-.23-1.47-.45-1.84-.93-.32-.71.2-1.33.54-2.12,1.9-2.84,1.56-7.76,4.4-9.66h.13c4.28,2.05,8.92,3.83,13.08,6.03,2.03,2.45,5.13,3.06,7.91,4.01.64.28,1.77.39,1.52,1.34Z"/>
    <path class="cls-3" d="m109.61,624.93c-2.64-.38-.48-3.34.53-4.54,2.39-1.45.58,4.39-.53,4.54Z"/>
    <path class="cls-3" d="m143.91,633.44c-.8-.94-2.02-1.18-3.15-1.69-2.97-1.15-4.23-1.1-5.34-.06-1.38,1.44-2.68,3.94-4.18,5.57-.31.08-.27-.19-.4-.47-.39-1.53-1.34-1.93-2.92-1.28-.41.06-.42-.07-.21-.54.62-1.13,2.56-6.8,3.15-3.57.09.41.13.72.55.97.31.21,1.29.44,1.47.41.8.07,1.25-1.25,1.66-1.65.44-.58.71-1.18-.09-1.58-3-1.96-6.64-2.26-9.78-3.96-2.51-1.63-2.39,2.34-2.99,4.03-.32.66-.11,1.64-.84,2.09-.07.02-.2.04-.27.05-1.16-1.8,3.32-6.82.3-7.75-1.93-.43-2.63,2.97-4.48,2.39-1.3-.85.43-1.91,1.1-2.5.83-.77.11-1.24-.68-1.57-1.22-.51-2.46-.91-3.72-1.36-1.09-.31-1.36,1.32-1.51,2.21l.06.06c.64.1,1.34-1.28,2.11-.53,1.15,1-.53,2.45.28,3.67,1.07,1.84,5.46,1.64,5.32,4.57-.02.63.03,1.23.37,1.69.53.68,1.57.65,2.26,1.09,1.58.8,2.84,2.15,4.24,3.16,1.89,1.19,6.34,3.82,11,6.03,1.79.77,4.58,2.17,6.04,1.56.35-.23.39-.6.33-1.03-.48-2.97,2.17-7.71.32-10.01Zm-21.46-1.23c-.2-1.43.59-2.43,1.39-3.43.08,1.37-.58,2.43-1.39,3.43Zm1.97,1.78c0-1.89.42-3.65,1.62-5.19-.19,1.84-.43,3.66-1.62,5.19Zm17.65,3.39c-.69,1.32-2.7,2.05-3.89,2.13-.52.16-1.01.67-1.52.75-2.73,0-.4-6.55,1.59-6.81l.08.06c.41.81-.05,1.65-.09,2.51-.05,1.56,1.96,2.26,2.71.82.68-.98,1.64-.61,1.12.54Z"/>
    <path class="cls-3" d="m64.45,638.5l-.05.07c-4.37.39-7.41-3.36-10.09-6.26-.18-.23-.59-.48-.44-.68.61-.69,1.83-.38,3.15-.04,1.31.41,2.66.56,3.94.19.39-.03.7.15.88.48.51,2.22,2.05,4.05,2.61,6.24Z"/>
    <path class="cls-3" d="m83.35,634.96c-2.54-.86-5.13-.8-7.67-2.25,4.76-1.85,6.66-1.31,7.67,2.25Z"/>
    <path class="cls-3" d="m77.08,640.3c-2-.24-3.52-.75-5.43-.84-2.87.05-4.03.37-4.76-1.67-.15-.41-.3-1.05-.4-1.55-.16-1.23-1.19-2.26-1.46-3.45-.3-1.43,3.22-.78,4.22-.97,4.15-.08,5.56,3.76,7.98,6.56.53.63,1.62.57,1.94-.18.3-.53-.25-1.23-.42-1.76-.08-.31-.06-.77.46-.75,1.19.25,2.51.29,3.77.46,1.29.17,2.47.6,3.62,1.55.36.26,1.1.41,1.42.25,1.1-.89-1.92-4.16-2.6-5.3-.33-.46-.64-.77.04-.95,7.13-1.63,7.45,2.93,11.7,7.16.79.77,2.21,2.14,3.14.89.51-1.1-.58-2.36-1.87-3.66-1.05-1.05-2.27-2.07-3.13-3.24-.24-.36-.57-.74-.44-1.06.46-.61,1.35-.7,2.04-.84.38-.05.76-.1,1.13-.17.41-.04.92-.34,1.11-.22.12.4.15,1.08.17,1.33.57,3.38,3.67-2.57,4.39-3.31l.09-.02c.98.65,2.17,1.58,3.26,2.01,3.9,1.51,4.64,1.79,2.64,5.74-.13.29-.36.59-.4.97-.04.59.26,1.03.52,1.03.63.07,1.61-1.36,2.48-2.97.63-1.34,1.49-2.72,1.71-4.05-.06-.08-.2-.12-.4-.15-2.9-.18-4.82-1.55-6.66-2.56-1.72-1.01-3.69-1.4-5.6-.63-1.01.46-1.81.75-1.04-.66,1.22-1.56,2.42-2.72,4.67-2.12,3.13.65,7.28,3.32,9.72,4.2.34.12.53.38.66.74,5.23,16-28.88,11.49-38.27,10.19Z"/>
    <path class="cls-3" d="m160.67,617.11c-1.71.99-14.75-1.05-12.21-4.16.18-.25.41-.41.75-.37,3.77,1.51,7.57,3.17,11.43,4.49l.03.04Z"/>
    <path class="cls-3" d="m430.89,523.32c-3.3-1.14-4.28-3.04-2.85-5.49,1.08,1.77,2.27,3.38,2.85,5.49Z"/>
    <path class="cls-3" d="m442.44,537.65c-1.24.16-1.48-1.28-1.94-2.13-3.9-3.37-.95-4.79.12-8.12l.08-.02c2.9,2.65,1.91,6.86,1.74,10.27Z"/>
    <path class="cls-3" d="m432.61,456.65l-.04.03c-2.55-1.98-5.22-4.16-7.38-6.49,1.47-2.14,2.98-3.38,4.37.32,1.06,1.93,2.76,3.83,3.05,6.14Z"/>
    <path class="cls-3" d="m405.28,508.91c-1.85.4-2.52-1.69-1.06-2.19,1.02-.21,2.87-1.58,3.23.03,1.07,1.67-1.3,1.95-2.17,2.16Z"/>
    <path class="cls-3" d="m439.34,525.62c-.67.72-1.12,1.55-1.43,2.48-.33.75-.62,2.1-1.29,2.5-.06-.02-.2-.05-.27-.07-3.21-2.65-4.67-4.7-3.07-8.71.28-.93.62-1.99.13-2.85-.18-.31-.58-.55-.91-.46-.62.14-.68,1.23-1.27,1.31-.15.01-.3-.07-.42-.2-1.07-1.61-2.65-3.06-2.78-5.29-.03-.41-.31-1-.65-1.14-1.33-.25-1.41,4.21-2.13,4.83-.25.16-.73-.36-1.16-.68-1.2-.96-2.56-2.29-2.15-3.95.05-2.41,1.64-5.98.76-7.96-1.35-2.33-2.33.87-2.23,2.56-.13,2.85.25,5.98-3.14,2.76-.25-.18-.59-.3-.62-.46.23-.48.91-1.11.9-1.59,0-.35-.35-.52-.87-.57-.83-.09-2.09.09-3,.21-.29.05-.54.07-.71-.1-.33-.36-.41-1.25-.58-1.77-.31-1.29-.61-2.44-.84-3.66-.18-1.01-.09-1.3.23-1.42.31-.11.86-.05,1.6-.34.94-.36,2.06-1.36,2.61-2.3-2.16.46-7.71.19-6.72,2.92,1,1.97,1.29,4.45,2.15,6.35.4.82,1.04,1.55,1.85,2.05.33.31,1.78.61.79.96-5.32,1.59-5.29-6.56-6.97-10.28-.44-1.17.27-2,1.36-2.48.99-.37,1.84-1.24,2.93-1.27,1.57.05,3.07,1.6,4.69,1.65l.15.04c10.75,5.57,15.7,16.89,22.95,25.83.29.34.4.73.11,1.1Z"/>
    <path class="cls-3" d="m402.86,502.92c-1.29.37-1.57-.29-1.67-1.3,1.25-.14,3.07-1.77,4.13-.86.54,1.19-1.67,1.56-2.46,2.16Z"/>
    <path class="cls-3" d="m405.89,494.68c.14,1.78-3.78,2.51-5.09,2.81-1.27.33-1.76-.98-.65-1.35,1.78-.26,4.22-2.43,5.74-1.46Z"/>
    <path class="cls-3" d="m403.27,493.15c-1.73.77-3.78,2.86-4.77.77-.71-1.36,3.71-1.14,4.77-.77Z"/>
    <path class="cls-3" d="m400.92,490.55c-.83.71-2.92,1.7-3.42.61.95-1.13,2.22-.78,3.42-.61Z"/>
    <path class="cls-3" d="m405.8,491.37c-.04.82-.71.66-1.15.74-2.25-.05.81-3.03,1.15-.74Z"/>
    <path class="cls-3" d="m405.07,487.45c-.68-3.95-1.18-8.68-3.63-11.82-.35-.46-.88-.38-1.19.11-.61.98-.4,3-1.92,3.35-.26.05-.31.12-.72.07-.28-.08-.14-.82-.6-.86-.12.02-.36.06-.49.08-1.07.52-3.09,1.18-2.67,2.69.84,1.44,2.57.84,4.07.2,1.46-.57,3.31-1.6,4.64-.76.06.21-.36.5-.6.74-.3.34-1.23.99-1.29,1.3.35.19,1.52-.5,1.68-.06.03.18-.08.55-.06.85.06.8-.1,1.53-.95,1.85l-.09.02c-.23-.1-.33-.7-.77-.73-.39-.07-.91.11-1.36.07-.84-.11-1.78-.16-2.56-.39.08-.79,1.73-.91,1.83-1.76-.3-.93-2.92.26-3.49.6-.37.27.17,1.68.25,2.15.54,1.6,1.05,5.27,3.29,4.79.7-.15,1.53-.57,2.62-.79,1.01-.23,2.32-.22,3.84.25.22.05.37.03.43-.07.08-.5-.21-1.31-.26-1.88Zm-3.97-2.14c-.44.88-1.29.77-2.06.84.55-.68,1.19-1.09,2.06-.84,0-.03.03-.06.04-.09l.08.12s-.08-.03-.12-.03Z"/>
    <path class="cls-3" d="m399.13,507.96c-.91.08-1.93.36-2.86.59-5.68,1.46-11.14,3.78-17.07,4.03h-.12c-2.55-.78-2.37-11.38-2.77-14.56-.19-2.5-.24-4.56-.73-6.81-.08-.48-.22-1.52.19-1.89.52-.39.95-.4,1.7-.47,3.49.26,12.27-2.5,14.99-.85.36.23.57.52.64.91.83,3.63,9.68,18.66,6.03,19.05Z"/>
    <path class="cls-3" d="m351.21,494.73h-.03c-1.03-3.71.2-7.74-1.17-11.39-.09-.38.14-.71.55-.66,2.8,2.43,1.48,8.59.65,12.05Z"/>
    <path class="cls-3" d="m350.74,541.2c1.05-5.4,1.62-11.04,3.14-16.35l.05-.04c2.62,1.6-.8,21.36-3.19,16.39Z"/>
    <path class="cls-3" d="m280.98,538.69c-3.4,5.52-4.61,11.95-7.73,17.59-.6.79-1.68.22-1.73-.66-.42-3.52.96-6.48,2.88-9.24,1.9-2.7,4.27-5.25,6.12-7.97.14-.12.38,0,.45.16v.12Z"/>
    <path class="cls-3" d="m271.4,543.36l-.02.1c-.93,1.75-4.69,6.56-6.85,4.34-.49-2.2,2.67-3.44,4.01-4.82.39-.39.75-.93,1.37-.96.79-.13,1.54.56,1.49,1.34Z"/>
    <path class="cls-3" d="m288.9,486.37c-1.47,2.52-4.42,3.16-6.62,1.55,2.15-.8,4.3-1.09,6.62-1.55Z"/>
    <path class="cls-3" d="m188.65,346.71c-1.47,2.41-2.44,14.59-5.98,13.67-.8-.39-1.17-.98-.75-1.77,2.39-4.02,3.36-8.57,6.7-11.89h.03Z"/>
    <path class="cls-3" d="m232.11,335.36c-5.79.43-11.66-1.97-17.31-2.9-4.29-.29-8.29,2.51-12.55,1.59v-.04c3.45-1.06,6.26-4.12,9.69-4.58,6.62,1.26,13.21,3.2,19.78,4.77.53.08,1.3,1.06.39,1.16Z"/>
    <path class="cls-3" d="m321.68,346.58c-.53.73-1.07,1.18-1.92,1.03-.75-1.2,1.05-1.86,1.92-1.03Z"/>
    <path class="cls-3" d="m306.42,349.93c-5.14-.8-22.27-2.61-24.51-7.16l.06-.02c8.91,1.44,17.04,4.05,25.22,7.17.69.24-.43.03-.77.01Z"/>
    <path class="cls-3" d="m292.65,486.53v.03c-2.22,3.3-3.15,7.49-5.89,10.4-.17.16-.36.4-.49.28-2.03-2.5,3.92-9.11,6.38-10.71Z"/>
    <path class="cls-3" d="m197.27,483.6l-.03.04c-4.76-1.11-8.38-4.8-12.54-7.14-.28-.17-.55-.43-.68-.66-.49-.82.12-1.67,1.05-1.45.32.05.73.36,1,.57,3.69,2.69,8.3,4.94,11.2,8.64Z"/>
    <path class="cls-3" d="m194.8,485.39l-.04.04c-4.01-.41-11.65-1.19-14.25-3.66-.43-.98,3.8-.93,13.36,2.36.59.19.74.66.93,1.26Z"/>
    <path class="cls-3" d="m230.49,308.97c-.09,1.37-.52,2.5-1.09,3.87-2.27-1.68-2.15-2.04,1.09-3.87Z"/>
    <path class="cls-3" d="m253.2,307.47c-1.6,3.81-.89,8.29-2.8,12.03h-.04c-.93-4.07-1.88-8.19-2.28-12.36,0-.31-.19-.75.12-.9,1.34-.52,2.7.17,4.05.25.64.08,1.28.23.95.98Z"/>
    <path class="cls-3" d="m324.83,333.8c-3.38-.41-6.55-1.64-9.69-2.74l-.1-.04c-18.93-9.55-38.24-22.58-59.88-23.76-2.58,1.34,3.62,17.17.48,17.95-1.09-.18-1.28-6.64-2.45-7.19-1.12.46-.86,2.36-1.36,3.33-.5,1.17-1.59,2.52-2.63,2.35-3.04-1.21-1.63-5.05-3.19-7.21-.18-.12-.35.11-.45.47-.35,1.03-.08,2.53-.5,3.4-.16.39-.59.73-1.11.65-.78-.13-.65-1.09-.66-1.66-.01-2.72,3.11-11.5,2.06-13.57-.23-.5-.61-.4-1.49-.55-1.31-.24-2.57-.51-4-.73-5.22-.94-7.55.52-4.82,4.73.55.53,1.09,1.12,1.32,1.83.75,2.15.06,4.71.46,6.87.03.27.02.55-.07.79-.33.83-1.5.92-2.01.16-.32-.46-.37-1.08-.38-1.62.03-.77-.58-1.04-1.15-1.44-1.88-1.73-1-5.97-2.63-.39-.3,1.59-2.03,3.3-2.85,1.2-.59-1.08-.05-5.04-2.17-3.44-2.11,1.39-3.35,3.66-5.27,5.3-.11.12-.13.22-.05.3,10.27,3.11,20.94,4.88,31.5,6.95,17.35,3.11,34.13,7.92,50.91,13.18,6.48,1.99,13.05,3.89,19.82,4.41,2.19-.07,2-6.52,2.65-9.06.02-.23.02-.42-.29-.47Zm-51.7-7.2c-1.35-2.31-.27-5.3-1.61-7.63l-.1-.04c-1.02.5-1.91,1.47-2.53,2.41-1.06,1.07-1.51,6.28-2.99,5.28-1.2-1.38.53-4.25.22-6.26-1.5,1.07-1.61,3.91-3.73,4.36-.53.07-.41-.44-.38-.83.31-3.47,1.06-7,1.9-10.36.11-.37.29-.83.6-1.03,1.3-.76,1.67,1.04,1.63,2.07.07.94.64,1,1.16.29.67-.8,1.28-2.15,2.4-2.34.38.01.08.77,0,1.25-.05,1.19-2.02,6.25.48,3.12.81-1.04,1.36-2.27,2.6-2.43.57-.05,1.1.3,1.21.88.32,3.46-.09,7.11.43,10.54.24,1.15-.54,2.21-1.29.72Zm12.39,3.96c-1.71-.87-.43-3.8-1.24-5.49h-.07c-.86.95-2.95,4.76-4.33,3.63-1.19-1.41.04-8.47,1.51-11.5,2.7-2.4,1.31,3.04,1.36,5.09.05.19.07.38.29.1,1.23-1.83,3.36-4.71,3.57-2.02.02.37.02.83.02,1.19.27.4.52.24.79-.13.2-.3.28-.69.54-.95.52-.43.55-.36,1.02-.54,2.18-.28-.24,4.65-.14,5.46,1.89-.3,3.13-4.31,5.13-2.86.78.69.15,1.66-.54,2.15-2.71,1.82-4.19,6.83-7.91,5.87Zm18.09-3.1c-1.41,2.06-1.62,6.12-3.99,7.13-.26.03-.54-.22-.81-.31-.66-.27-1.42.04-1.97.3-1.05.61-.85-.56-.76-1.25.15-1.05.47-2.3.68-3.39l-.05-.08c-1.24.48-2.1,1.93-3.24,2.63-.19.05-.22.23-.5-.12-.24-.49.15-.87.46-1.17.89-.91,2.79-3.49,4.36-5.12.89-.91,1.65-1.5,2.02-1.27.52.45.12,1.86,0,2.54-.01.14-.03.44-.04.59.47.08,1.15-.69,1.47-1.04.37-.42.97-.99,1.58-.82.62.12,1.02.77.79,1.38Zm5.86,12.07c-.41-.38-.59-1.76-.66-2.47-.07-.3.03-.88-.18-1.01-1.11.07-.85,2.35-2.16,2.26-1.75-.57-.1-7.54.25-9.21.33-.02.66.95.69,1.27.03.3.02.59,0,.9.01.37-.17,1.07.26,1.08.96-.17,1-1.44,1.75-1.98,2.03-1.81,1.36,2.6,1.75,3.55.04.05.12.15.16.19,1.34-.69,1.76-2.97,3.53-3.11l.05.04c.4.54.77,1.53.11,2.1-1.31.75-4.19,7.56-5.56,6.39Zm12.18-.84c-.59.87-1.28,1.78-2.43,1.86-.28.03-.66,0-.97-.05-1.46-.24-2.95.38-4.28-.66-.07-.04-.21-.12-.28-.15-.23.06-.57.2-.88.11l-.05-.05c1.08-.7,3.48-4.99,5.12-5.54.85-.36,1.11.66,1.58,1.06.78.62,2.62,1.07,2.8,2.04.11.5-.37,1.05-.61,1.38Z"/>
    <path class="cls-3" d="m162.47,351.42s-.09-.09-.13-.12c-.16-2.14.77-3.54.84-5.28.04-1.13.32-2.48,1.47-2.96h.13c.54.2.12,1.1.57,1.34.6.1.96-1.03,1.54-.97.1.04.3.11.41.15,5.21,2.34-2.67,5.44-4.83,7.84Z"/>
    <path class="cls-3" d="m212.08,320.7c-16.24,1.44-26.62,15.54-40.17,22.8l-.05-.04c.35-4.14,3.87-8.08,2.05-12.54-2.56-3.84-4.65,4.37-5.13,6.26-.15.62-.18,1.21-.33.45-1.33-7.53,8.73-12.97,12.61-19.08.46.63-.01,2.19-.41,3.89-1.28,5.01-4.8,12.9-2.17,12.93.88-.63.97-1.88,1.39-3.22.46-1.58.58-3.1,1.49-4.36.68-.32,1.59-.04,2.21.26.79.44.17,1.96.65,2.45,3.34,2.67,4.72-4.57,5.42-6.6.18-.4.34-1.12.62-.69.45.9-.34,4.88,1.34,4.39,1.68-1.57.64-4.78.2-6.91-.35-1.31-.14-2.83-1.29-3.51-.99-.5-1.68,1.92-2.3,3.56-.22.51-.4,1.13-.67.92-.37-.35-.69-1.05-1.09-1.44-.41-.53-1.32-.71-1.8-1.07-.5-.45-.66-1.44-1.02-2.09-.17-.31-.34-.58-.27-.82,1.92-2.61,6.09-3.92,8.86-5.62,6.76-4.14,7.02-2.61,12.01,1.9.62.74.04,1.74-.57,3-.48.96-.96,2.12-.96,3.27.02.4,0,1.56.52,1.09,1.19-1.59,2.65-2.75,4.54-2.64,1.59.1,3.16,1.11,4.52,2.83.28.35.26.58-.2.63Z"/>
    <path class="cls-3" d="m196.32,306.35l-.02.09c-7.74,2.02-13.51,9.4-21.68,10-1.55-.46-3.47-1.61-5.3-2.38-3.46-1.64-8.08-3.88-11.14-6.1-1.57-1.15-2.6-2.24-2.62-3.15-.03-.44.31-.85.65-1.13,2.21-1.48,12.25-18.91,14.91-16.34,2.15,2.98,5.43,7.62,9.2,7.37,2.4.2,5.72.37,7.83,2.04,2.22,3.75,5.59,6.25,8.17,9.6Z"/>
    <path class="cls-3" d="m210.4,223.19c.36,10.71-14.98,10.47-18.72,18.06-.46,2.64-.51,5.62-2.21,7.89-3.18,3.35-4.76,7.17-5.5,11.55-2.77,3.85-10.13,4.11-12.38,8.87-.35.68-.51,1.75-.6,2.43-2.31,3.07-22.77-16.74-28.01-21.43-.75-.71-1.22-1.14-1.88-1.79-.6-.61-1.23-1.18-1.44-1.91,0-1.03,1.16-1.73,1.88-2.53,14.21-14.08,28.88-27.67,44.21-40.52.4-.32.34-.32.92-.73.85-.58,1.32-1.12,2.2-.45,6.92,6.81,15.08,13.3,21.48,20.41l.05.15Z"/>
    <path class="cls-3" d="m187.18,282.99c-.54,2.47,2.79.58,4.45.41.88-.15,1.46.16,1.55.98.55,3.22-.78,5.81-2.97,7.98-.53.41-1.06.5-1.77.37-2.22-.28-4.01-.4-6.17-.54-5.44-.33-4.02.14-5.93-2.54-1.01-1.43-2.45-2.95-3.73-4.21-.79-1.08-3.62-2.26-2.07-3.83,4.98-7.76-.67-12.31,10.69-17,1.01-.44,2.1-1.1,3.03-1.54,2.7-.32,11.25,10.5,13.86,15.1l-.06.06c-3.7,1.49-8.21,2.18-10.88,4.76Z"/>
    <path class="cls-3" d="m262.48,274.92c-8.95,8.74-20.1,14.86-29.41,23.22-2.86,4.55-8.16,6.03-12.33,9.03-2.91,1.12-5.63,6.93-9.07,4.12-5.63-4.7-10.95-9.48-15.85-14.97-2.11-2.82-.43-6.38-.1-9.84.09-.86.1-1.75-.05-2.59-.22-1.33.51-2.41,1.59-3.13,2.49-1.63,6.3-2.04,8.09-4.44,1.98-2.31,4.86-3.77,6.01-6.75.36-.68,1.23-.71,1.89-.83,1.13-.14,2.01-.19,3.17-.28,5.65-.69,11.43.75,15.65-1.01,4.05-1.82,8.73-6.59,12.4-9.49l.11.02c5.13,6.5,12,11.28,17.9,16.94Z"/>
    <path class="cls-3" d="m332.47,309.39c-.18,1.27-1.42.5-2.16-.08-2.5-1.96-5.85-6.84-7.95-5.93-1.56,2.04,4.8,5.29,5.84,6.65,1.19,1.2,2.97,2.04,2.61,3.91-.26,1.14-.83,2.44-1.35,3.53-1.76,3.74-2.14,7.51-3.18,11.55-.14.44-.45.46-.86.26-15.59-7.59-31.53-13.88-47.3-21.03-12.64-3.17-25.94-4.22-38.83-6.16-.49-.06-.67-.25-.27-.69,7.68-8.62,18.21-16.22,26.85-24.5.77-.74,1.94-1.6,2.12-2.69.22-.95-.64-1.81-1.32-2.42-5.88-5.62-12-10.91-17.61-16.75v-.11c13.46-11.59,27.2-22.68,40.92-34.24.43-.39.7-.28.85.25,2.8,9.59,8.96,18.4,8.62,28.27-1.46,7.67-3.72,15.13-7.75,21.85-.45.78-1.94,2.8-.35,3.05,2.82-.64,4.21-4.48,5.71-6.89.58-.94,1.22-1.92,1.96-2.5.17-.06.15-.16.51-.01l.4.4c2.2,2.38-2.21,3.83-2.13,6.12.09.26.45.09.64.03,1.28-.33,2.71-4.11,3.9-2.61,8.44,10.51,15,22.62,25.68,31.1.36.28.61.59.75,1.01.72,2.62,4.01,6.32,3.7,8.63Z"/>
    <path class="cls-3" d="m204.56,64.74c-.14-4.57-.62-9.1-3.69-12.86-.7-.86-1.47-1.71-1.29-2.92.33-.82,1.35.13,1.78.45,1.03.64,3.94,6.48,3.82,2.7.1-1.65-.65-3.61-1.6-4.69-.83-1.04-1.24-1.36.66-2.08.26-.14.45-.34.49-.6.12-2.34-1.98-3.92-2.65-6.01-.55-1.71-1.43-3.16-3.16-3.86-.96-.26-2.56-1.57-1.51-2.51.71-.48,1.78-.44,2.53-.03.61.26,1.4.81,2.02.54.08-.06.07-.17-.03-.3-3.28-3.46-4.69-8.35-9.1-10.49-.69-.35-1.11-1.02-.41-1.6.09-.1.28-.3.37-.41.15-.23,0-.49-.1-.75-2.64-4.92-12.53-9.35-16.41-7.24-1.42.98-2.94,2.05-4.34,3.07-.21.16-.57.24-.77.08-.12-.09-.16-.25-.11-.42.51-1.21,1.52-2.12,2.5-3,.92-.91,2.3-1.71,2.7-2.93-.77-.5-2.05-.75-2.91-1.19-.94-.36-1.87-.56-2.75-.3-.67.17-.92.29-1.4.1-.79-.46.39-2.63.93-4.07.16-.46.33-.86-.01-1.02-2.3-.69-4.45,1.42-6.54,1.99-.3.08-.58.05-.87-.11-2.31-1.6-4.75-1.29-7.29-.53-.67.24.44.52.93.7.81.27,3.82.92,3.44,1.71-.77.91-2.1.51-3.09.74-4.65.71-8.64,3.64-12.35,6.28-.6.15-1.21-.62-.94-1.2.12-.5.62-1.33,0-1.62-6.95.27-15.71,6.24-18.78,11.85-.32.94-1.52,1.12-1.6-.05-.05-.66.38-1.16.45-1.78.03-.89-.74-.45-1.16-.1-3.83,2.61-7.26,6.01-10.66,9.11-1.38,1.25-2.36,2.77-2.53,4.66-.11.37-.56.6-.84.22-.47-.48-.24-1.63-.84-1.92-4.7,4.86-7.78,11.11-9.21,17.67l.03.02c1.59-1.9,3.23-5.55,5.89-6.07-2.74,5.04-7.1,10.03-5.78,16.24,1.75-1.63,1.82-4.71,3.91-6.18,3.23-2.66,3.81-6.68,4.92-10.5,1.2,1.01,1.64,2.85,2.77,3.75.71.64,1.61,1,2.16,1.76.74.88,1.4,1.98,2.41,2.67,1.02.82.2-2.1.22-2.58-.2-.81-1.34-9.29.11-8.22,4.02,3.51,7.94,6.48,12.62,9.16.21.07.46.24.46-.13-.4-2.75-2.39-5.86-1.49-7.85.47-.67,1.13-.04,1.3.63.35,1.2,1.16,1.99,2.43,2.19,4.58.31,7.58,3.03,11.89,4.64.32.11.59.15.48-.23-.98-3.16-5.38-9.54-3.82-11.89.16-.15.28-.22.48-.01,3.07,3.75,3.82,10.24,6.91,14.58.57.88,2.16,2.07.65,2.89-1.24.5-2.92-1.72-4.87-2.88-.69-.46-2.92-1.31-1.6.25,2.46,3.22,7.41,6.34,11.28,5.96.06-.05.02-.15-.1-.28-.96-.91-1.74-1.94-2.11-3.05-.66-1.23-.36-6.36,1.06-2.4,1.47,4.91,11.37,9.28,5,9.7-1.03.07-1.8.04-2.87-.01-.45.11-.81.02-.36.63,3.49,4.99,4.93,8.87,7.68,9.26,1.79.55,6.4-2.56,8.25-4.71.32-.79.73-1.56,1.56-1.89.95-.45,2.07-.58,2.98-1.09,2.43-1.5,4.31-4.11,6.74-5.43,5.62-.92,9.65,3.82,11.45,8.53,2,4.76-6.72,12.43-.39,14.96,1.24.68.71-5.9,1.06-6.79.04-.16.12-.22.23-.17,1.39,1.18,1.04,3.53,2.06,4.93.45.73,1.48,1.03,2.1,1.51.92.75,1.57,2.34,2.95,2.01.15-.06.25-.18.28-.33.28-2.97-.78-9.58.94-11.02.99,4.66-1.41,10.49,2.8,13.42,1.37.81.55-2.4.42-2.95-.19-.88-.35-1.9.04-2.8.6-.9,1.42-.08,1.36.77.09.97-.07,2.41.87,2.91.43.06.54-.32.62-.76,1.23-6.17-2.23-12.26-1.67-18.43Zm-56.87-27l.07-.02c3.16.28,5.63,2.78,8.44,3.99.18.07.34.08.45,0,1.02-1.15-1.25-4.06-1.14-5.91.63-2.65,1.69-.47,2.27,1.54.69,2.1,1.28,4.81,2.59,6.38,1.8,4.41-12.2-3.75-12.68-5.98Zm26-4.29h-.06c-3.15-1.14-6.09-3.36-8.04-6,1.93-.51,3.23,1.49,4.65,2.42.51.3.78.46.69-.3.06-1.74-2.22-3.75-1.2-5.36,1.6-.46,4.15,8.98,3.96,9.24Zm6.76,10.59c.2-.81-.9-1.37-.04-2.24,1.13.73,1.47,1.98,1.9,3.07.74,4.45-10.92-4.12-1.86-.83Zm1.84-19.44c1.36-.8,2.29-.57,3.73.41-1.54.12-2.5.3-3.73-.41Zm2.84,5.49c.11-1.28,1.16-1.74,1.61-2.7-.56-.86-1.44.06-1.99-.55,4.03-2.88,4.07,3.02.38,3.25Z"/>
    <path class="cls-3" d="m194.69,83.22c-1.1-.54-1.2,2.16-1.84,2.68-.37.21-.71-.01-1.12-.22-2.16-1.04-3.48-3.1-5.16-4.67h-.14c-1.61.43-1.83,2.72-3.31,3.46-1.8,1.01-4.5,1.61-6.56.99-1.19-.41-.99-1.79.22-1.89,1.59-.09,3.99-.67,5.05-2.19,1.09-1.39,3.32-2.25,4.3-3.71.28-.41.43-.9.51-1.4.36-3.05,3.06-5.76,1.85-8.68-2.1-3.59-5.21-9.69-9.85-5.97-2.9,2.32-8.1,3.28-8.25,7.44-.03.49-.11,1.08-.49,1.4-.71.6-1.78-.28-2.6.08-1.16.44-2.03,1.2-3.16,1.78-2.74,1.54-4.74,1.86-6.33,1.31-2.78-.94-4.38-4.46-6.78-8.56-.97-1.54-1.57-3.36-3.24-4.16-5.28-1.59-8.67-6.73-11.46-11.14-.75-1-2.12-1.18-3.22-1.7-3.06-.96-4.44-1.19-3,2.58.26.91,1.07,2.88-.41,2.89-3.21.02-9.62-6.25-12.47-6.93-.27-.06-.4.06-.41.35.09,1.93.22,4.03.65,5.97.08.26.17.56.45.65,2.95.01,6.51-1.13,7.89,2.18.61,1.1.22,2.33-.99,2.75-3.55,1.38-7.27-2.05-11.01-.57-.38.13-.86.35-1.17.05-.23-.22-.22-.64-.01-.95.27-.42.77-.74,1.04-1.15,1.81-2.52-3.32-5.13-5.24-7.42-.15-.15-.26-.18-.34-.06-.58,3.39-5.41,6.43-2.96,9.93,3.7,5.04,4.17,10.78,4.38,16.84-.19,2.14-1.59,4.58-2.58,6.39-2.43,3.97-3.29,2.15.73,8.75.61.98,1.08,1.8,1.65,2.74,1.39,2.37,2.62,4.42,4.1,7.19.95,1.79,1.71,3.42,3.25,4.63,2.42,1.72,3.75-3.59,6.42-.36,1.89,2.76-3.84,2.89-4.36,4.82-.18.85.72,2.1,1.01,2.82,2.45,5.35,3.91,6.22,10.33,4.72,8.06-1.96,15.52-6.2,23.68-7.68,2.09.87-2.13,2.06-2.34,2.85-.32.68-.03,1.48-.14,2.24-.36,1.86-.24,7.54,2.81,4.52,2.31-2.42,5.16-3.92,7.61-6.1,3.7-3.63,8.55-5.73,12.95-8.36,6.87-4.55,14.41-8.6,22.59-10.03,6.53-.72,1.45-9.16-2.53-11.1Zm-74.83-7.14c-1.8-2.01-2.22-5-2.17-7.47.33-.75,1.49-.82,2.22-.96.74-.01,1.62-.3,2.31-.21,2.04,1.29,2.05,4.84,2.38,7.1l.02.14c.25,3.82-2.08,4.96-4.76,1.4Zm54.57-3.29c-1.17-.92-1.03-2.88-1.14-4.26v-.17c.07-2.02,2.78-2.4,4.28-3.08,3.72-1.2,6.55-.01,7.15,4.36.11,1.42,1.24,3.49.45,4.66-.36.51-1.1,1.02-1.66,1.42-.36.23-.57.38-.74.66-2.51,4.28-5.07,4.47-5.97-.4-.13-.71-.2-1.78-.61-2.34-.49-.72-1.18-.49-1.76-.85Z"/>
    <path class="cls-3" d="m207.9,108.96c.02.61-.54,1.02-1.05,1.25-14.75,6.44-29.43,14.49-41.3,25.78-2.34,1.72-5.51,3.75-7.28,5.75-2.82,2.41-4.08,7.01-7.96,5.16-2.88-1.42-5.73-3.88-8.29-5.9-2.85-1.96-3.05-3.15-.5-6.48,3.32-4.2,10.56-9.59,15.32-13.2,15.18-12.23,30.75-25.59,51.2-25.2l.09.09c.55,4.42-.73,8.48-.23,12.75Z"/>
    <path class="cls-1" d="m143.3,699.54c-1.51,1.69-3.25,3.39-4.25,5.46-1.89,1.88-5.54,2.21-8.01,1.35-12.09-4.26-24.33-8.04-36.44-12.19-1.8-.95-2.75-2.72-4.28-4.08-1.34-1.19-2.98-1.91-4.7-2.35-21.78-5.39-42.42-14.7-61.79-25.87-6.12-3.82-12.83-7.46-18.19-12.27-1.15-1.27-2.71-3.17-2.72-4.14h0c0-.75.9-.96,3.56.05,6.59,2.44,18.18,9.53,24.97,13.04,17.01,8.68,33.59,19.95,52.39,24.12l.05-.05c-4.11-10.44,10.58,5.72,13.3,6.92,10.35,3.5,20.39,8.25,30.51,12.52,4.62,2.8,9.01-1.72,11.6-5.41.29-.65.17-1.53.97-1.82,2.25-.56,3.79-.18,4.28.84.03.08.06.16.09.24.27.88-.13,2.14-1.34,3.64Z"/>
    <path class="cls-1" d="m437.07,480.24c-.65-1.22-1.99-1.63-3.36-2.01-.83-.27-4.98-1.07-3.57-2.37,2.82-3.01,4.57-7.07-.6-7.53-4.78.16-16.1-4.56-16.97,1.66.29,4.01,6.74,1.93,9.83,3.3.32.12.33.32.22.56-1.54,1.91-4.38,2.49-5.52,4.38-.19,3,6.9,2.28,8.61,3.96l.04.09c-1.21,2.9-10.25,5.83-8.88,8.67,1.6,2.44,4.18,2.61,6.28.84,4.02-2.92,7.97-5.86,11.9-8.84.88-.65,2.55-1.35,2.02-2.71Zm-9.85,6.58c-2.91,2.24-8.2,5.51-6.01,2.24,2.67-2.14,5.22-4.57,8.24-6.22.43-.22,1.04-.67.93-1.18l-.08-.14c-2.96-2.14-10.43-1.67-8.11-4.57,1.07-1.37,2.51-2.48,3.86-3.58.38-.24.54-.59.44-.59-2.64-1.57-10.48-1.17-11.05-3.31.37-1.89,4.06.28,5.29.34,2.16.33,4.55.63,6.78.78.56.12,3.58.32,3.16,1.1-1.35,1.75-2.73,3.73-4.4,5.29-.26.24-.6.49-.55.65,1.97.78,4.14,1.03,6.08,1.85.68.33,1.69.47,2.11,1.01-1.1,2.2-4.64,4.67-6.69,6.33Z"/>
    <path class="cls-3" d="m433.91,480.49c-1.1,2.2-4.64,4.67-6.69,6.33-2.91,2.24-8.2,5.51-6.01,2.24,2.67-2.14,5.22-4.57,8.24-6.22.43-.22,1.04-.67.93-1.18l-.08-.14c-2.96-2.14-10.43-1.67-8.11-4.57,1.07-1.37,2.51-2.48,3.86-3.58.38-.24.54-.59.44-.59-2.64-1.57-10.48-1.17-11.05-3.31.37-1.89,4.06.28,5.29.34,2.16.33,4.55.63,6.78.78.56.12,3.58.32,3.16,1.1-1.35,1.75-2.73,3.73-4.4,5.29-.26.24-.6.49-.55.65,1.97.78,4.14,1.03,6.08,1.85.68.33,1.69.47,2.11,1.01Z"/>
    <path class="cls-1" d="m129.25,649.02v-.12c-1.21-1.57-3.37-1.35-4.94-1.93-2.21-1.08-4.16-.56-5.33,1.66-3.29,5.36-6.65,10.59-10.74,15.38-.48.52-1.01,1.4-.68,2.04.1.2.26.37.47.52,4.97,3.01,10.45,4.53,15.9,6.41,2.81.57,3.6-2.66,4.19-5.08.15-.72.48-1.43.24-2.05-.35-.61-1.3-.65-1.99-.86-1.49-.4-3.58-.68-5.01-1.46-1.61-.76-1.38-2.26-.36-3.52,2.53-3.86,4.93-7.66,8.25-10.99Zm-5.83,17.48c.51.19,2.53.39,2.04,1.06-3.2,3.56-9.7-1.43-13.63-1.93l-.03-.08c2.27-5.08,6.2-9.08,9-13.91.54-.9,1.33-1.93,2.44-1.94.52.01,1.06.26,1.25.68.28,3.49-6.64,9.01-8.21,12.55-.87,2.62,5.41,2.98,7.14,3.57Z"/>
    <path class="cls-3" d="m125.46,667.56c-3.2,3.56-9.7-1.43-13.63-1.93l-.03-.08c2.27-5.08,6.2-9.08,9-13.91.54-.9,1.33-1.93,2.44-1.94.52.01,1.06.26,1.25.68.28,3.49-6.64,9.01-8.21,12.55-.87,2.62,5.41,2.98,7.14,3.57.51.19,2.53.39,2.04,1.06Z"/>
    <path class="cls-1" d="m70.34,668.68l-.17-.03c-19.76-5.32-37.64-16.98-55.12-27.42-1.06-.75-2.76-1.36-3.23-2.68-.28-.84.54-1.62,1.38-1.12,11.72,7.33,23.9,14.07,36.26,20.15,6.88,2.61,13.71,5.41,20.87,7.29.68.14,1.69.34,2.1.94,1,1.24-.23,3.16-2.09,2.87Z"/>
    <path class="cls-1" d="m469.95,559.01v.13c.1.78-.78,1.66-1.41.83-.26-.37-.31-.97-.37-1.42-1.29-9.26-4.05-18.21-5.95-27.34-1.99-8.06-5.6-15.65-9.05-23.16-.2-.47-.06-.98.37-1.25,8.08-.91,15.07,44.53,16.41,52.21Z"/>
    <path class="cls-1" d="m401.1,485.31c-.44.88-1.29.77-2.06.84.55-.68,1.19-1.09,2.06-.84Z"/>
    <path class="cls-1" d="m401.22,485.34s-.08-.03-.12-.03c0-.03.03-.06.04-.09l.08.12Z"/>
    <path class="cls-1" d="m265.52,211.1c-2.94,4.8-12.66,20.12-17.46,19.53-.33-.18-.34-.62-.11-.96,2.35-2.42,4.03-5.37,5.68-8.3,2-1.84,7.22-17.95,11.86-10.38l.03.11Z"/>
    <path class="cls-1" d="m244.7,181.81c-6.68,7.67-18.91,12.3-28.54,16.68h-.11c-3.72-1.6,13.97-7.76,15.55-9.78,3.68-1.49,9.81-7.87,13.1-6.9Z"/>
    <path class="cls-1" d="m225.69,248.73c-.71.4-1.76.9-2.58.54-.23-.12-.44-.34-.58-.58-2.79-5.6-5.85-11.17-9.48-16.08v-.07c5.73-1.72,11.53,11.08,12.45,14.53.09.5.56,1.25.19,1.66Z"/>
    <path class="cls-1" d="m193.44,186.48v.12c-1.22,6.04-6.3-13.4-6.41-12.41-.32-.91-.51-1.84.64-1.84.05-.03.82.07.77-.03.63-.36,1.14-1.5,1.62-.36,1,4.78,2.33,9.71,3.38,14.52Z"/>
    <path class="cls-1" d="m194.32,266.54c-1.7-2.82-1.5-3.37,2.01-5.6,1.31,2.4,1.1,3-2.01,5.6Z"/>
    <path class="cls-1" d="m147.69,37.74l.07-.02c3.16.28,5.63,2.78,8.44,3.99.18.07.34.08.45,0,1.02-1.15-1.25-4.06-1.14-5.91.63-2.65,1.69-.47,2.27,1.54.69,2.1,1.28,4.81,2.59,6.38,1.8,4.41-12.2-3.75-12.68-5.98Z"/>
    <path class="cls-1" d="m173.69,33.45h-.06c-3.15-1.14-6.09-3.36-8.04-6,1.93-.51,3.23,1.49,4.65,2.42.51.3.78.46.69-.3.06-1.74-2.22-3.75-1.2-5.36,1.6-.46,4.15,8.98,3.96,9.24Z"/>
    <path class="cls-1" d="m180.45,44.04c.2-.81-.9-1.37-.04-2.24,1.13.73,1.47,1.98,1.9,3.07.74,4.45-10.92-4.12-1.86-.83Z"/>
    <path class="cls-1" d="m185.13,30.09c.11-1.28,1.16-1.74,1.61-2.7-.56-.86-1.44.06-1.99-.55,4.03-2.88,4.07,3.02.38,3.25Z"/>
    <path class="cls-1" d="m186.02,25.01c-1.54.12-2.5.3-3.73-.41,1.36-.8,2.29-.57,3.73.41Z"/>
    <path class="cls-1" d="m184.72,69.64c-.6-4.37-3.43-5.56-7.15-4.36-1.5.68-4.21,1.06-4.28,3.08v.17c.11,1.38-.03,3.34,1.14,4.26.58.36,1.27.13,1.76.85.41.56.48,1.63.61,2.34.9,4.87,3.46,4.68,5.97.4.17-.28.38-.43.74-.66.56-.4,1.3-.91,1.66-1.42.79-1.17-.34-3.24-.45-4.66Zm-9.15.07c-1.93-2.47,5.36-4.71,5.88-2.49-1.32,1.38-4.15,1.07-5.88,2.49Zm3.76,7.29c-.7-.87-.65-1.72-.7-2.5-1.22-3.2.5-3.84,3.27-4.66.51-.22.82.01,1.08.46,1.68,2.85-2.11,4.58-3.65,6.7Z"/>
    <path class="cls-3" d="m181.45,67.22c-1.32,1.38-4.15,1.07-5.88,2.49-1.93-2.47,5.36-4.71,5.88-2.49Z"/>
    <path class="cls-3" d="m306.67,198.58c-.51-8.97.03-13.12-3.63-18.34-10.11-14.28-22.58-13.78-36.98-20.36-14.74-8.11-32.41-13.28-43.46-26.8-1.89-4.03-3.88-8.03-6.55-11.61-.28-.45-.74-.86-.53-1.39,1.44-1.6,3.96,1.08,4.95,2.25,6.96,8.46,14.72,17.31,24.87,21.9,3.1.72,7.31,3.73,9.94,4.09,1.03.24,1.43-.8,1.65-1.66.7-3.14-1.73-6.09-3.46-8.68-13.66-20.38-17.26-20.79-40.83-26.99-21.04,6.23-40.67,19.76-56.45,35.35-3.87,2.67-3.48,6.75-3.52,10.95-1.12,12.88-.07,25.44,2.31,37.83,1.58,8.29,3.73,16.51,6.16,24.74.16.55.4.64.83.26,7.99-6.89,15.47-14.35,23.13-21.62.42-.41.65-.89.39-1.44-2.59-5.3-8.48-9.28-9.05-15.28.01-.51.33-.32.7-.05,12.62,9.7,15.3,18.87,32.22,22.16,5.27,2.03,9.33.2,13.89-2.48,11.12-4.92,22.95-9.85,35.1-11.09.7-.07,1.61-.07,1.95.63.6,2.58-3.47,2.56-5.14,2.94-6.18,1.53-14.09,2.72-19.17,6.72-.33.26-.54.51-.08.68,4.55,1.7,18.6-.23,20.28,3.06.19.83-.56,1.5-1.44,1.43-10.82.54-21.41-.39-32.21,1.13l-.05.08c.03.39.62.77.93.88.76.24,1.55-.52,2.19.16.31.32.55.91,1,1.03.59.11,1.24-.92,1.97-.85,2.23.33-2.03,3.84-3.33,4.46-.62.31-1.03.31-1.08-.15-.06-.34-.08-1.07-.61-.82-1.47,1.21-2.96,2.67-4.56,3.8-2.05,1.61-3.93,3.29-4.44,5.8-1.3,5.02-2.9,10.52-7.84,12.91-3.07,2.11-13.64,7.14-12.63,11.19-.03,1.22,1.95,9.96-1.25,9.08-.79-.32-1.37.17-1.68.86-.83,1.78-3.17,3.63-3,5.53.28,0,.48-.43.66-.61.64-.82,1.65-1.86,2.55-2.24,2.27-.87,2.37,1.76,1.03,3.18-.73.87-2.17,1.47-3.39,1.6-.11.06-.32.17-.43.23,0,.18.39.57.71.91,1.47,1.56,2.83,3.09,4.23,4.65,2.82,3.3,1.73.1,5.36-3.11.56-.68,2.05-1.37,2.7-.68.86.92-.78,3.87-2.22,4.82-.95.69-3.29,1.14-2.12,2.69,1.42,1.42,1.66,3.59,3.3,4.9.6.3.87-.64,1.22-1.04.22-.36.57-.77.58-1.01.06-.05-.09-.28-.52-.33-1.07-.19-1.94-.74-1.16-1.92.6-.96,1.71-2.13,2.42-3.19.36-.35.76-.13,1.19.16.67.33,1.14,1.48,1.94,1.23.62-.4,1.79-1.08,2.06-1.85.05-.22-.13-.37-.44-.48-1.3-.43-5.16-2.38-1.83-2.96,3.35-.41,6.87,1.02,10.17.37,1.39-.47,2.81-1.04,4.31-1.06,4.16-.27,8.53,1.41,12.08-.68,4.79-3.58,8.5-9.19,14.31-11.15,10.15-8.6,20.14-17.37,30.21-26.11,9.47-8.22,19.09-16.19,28.32-24.69,1.15-1.09,1.4-2.4,1.27-3.92Zm-113.24-11.98c-1.21,6.04-6.29-13.4-6.4-12.41-.32-.91-.51-1.84.64-1.84.05-.03.82.07.77-.03.63-.36,1.14-1.5,1.62-.36,1,4.78,2.33,9.71,3.38,14.52v.12Zm22.73,11.89h-.11c-3.72-1.6,13.97-7.76,15.55-9.78,3.68-1.49,9.81-7.87,13.1-6.9-6.68,7.67-18.91,12.3-28.54,16.68Zm-21.84,68.05c-1.7-2.82-1.5-3.37,2.01-5.6,1.31,2.4,1.1,3-2.01,5.6Zm31.37-17.81c-.71.4-1.76.9-2.58.54-.23-.12-.44-.34-.58-.58-2.79-5.6-5.85-11.17-9.48-16.08v-.07c5.73-1.72,11.53,11.08,12.45,14.53.09.5.56,1.25.19,1.66Zm22.37-18.1c-.33-.18-.34-.62-.11-.96,2.35-2.42,4.03-5.37,5.68-8.3,2-1.84,7.22-17.95,11.86-10.38l.03.11c-2.94,4.8-12.66,20.12-17.46,19.53Z"/>
    <path class="cls-3" d="m179.33,77c-.7-.87-.65-1.72-.7-2.5-1.22-3.2.5-3.84,3.27-4.66.51-.22.82.01,1.08.46,1.68,2.85-2.11,4.58-3.65,6.7Z"/>
    <path class="cls-1" d="m119.86,76.08c-1.8-2.01-2.22-5-2.17-7.47.33-.75,1.49-.82,2.22-.96.74-.01,1.62-.3,2.31-.21,2.04,1.29,2.05,4.84,2.38,7.1l.02.14c.25,3.82-2.08,4.96-4.76,1.4Z"/>
    <path class="cls-1" d="m293.43,324.69c-2.71,1.82-4.19,6.83-7.91,5.87-1.71-.87-.43-3.8-1.24-5.49h-.07c-.86.95-2.95,4.76-4.33,3.63-1.19-1.41.04-8.47,1.51-11.5,2.7-2.4,1.31,3.04,1.36,5.09.05.19.07.38.29.1,1.23-1.83,3.36-4.71,3.57-2.02.02.37.02.83.02,1.19.27.4.52.24.79-.13.2-.3.28-.69.54-.95.52-.43.55-.36,1.02-.54,2.18-.28-.24,4.65-.14,5.46,1.89-.3,3.13-4.31,5.13-2.86.78.69.15,1.66-.54,2.15Z"/>
    <path class="cls-1" d="m273.13,326.6c-1.35-2.31-.27-5.3-1.61-7.63l-.1-.04c-1.02.5-1.91,1.47-2.53,2.41-1.06,1.07-1.51,6.28-2.99,5.28-1.2-1.38.53-4.25.22-6.26-1.5,1.07-1.61,3.91-3.73,4.36-.53.07-.41-.44-.38-.83.31-3.47,1.06-7,1.9-10.36.11-.37.29-.83.6-1.03,1.3-.76,1.67,1.04,1.63,2.07.07.94.64,1,1.16.29.67-.8,1.28-2.15,2.4-2.34.38.01.08.77,0,1.25-.05,1.19-2.02,6.25.48,3.12.81-1.04,1.36-2.27,2.6-2.43.57-.05,1.1.3,1.21.88.32,3.46-.09,7.11.43,10.54.24,1.15-.54,2.21-1.29.72Z"/>
    <path class="cls-1" d="m303.61,327.46c-1.41,2.06-1.62,6.12-3.99,7.13-.26.03-.54-.22-.81-.31-.66-.27-1.42.04-1.97.3-1.05.61-.85-.56-.76-1.25.15-1.05.47-2.3.68-3.39l-.05-.08c-1.24.48-2.1,1.93-3.24,2.63-.19.05-.22.23-.5-.12-.24-.49.15-.87.46-1.17.89-.91,2.79-3.49,4.36-5.12.89-.91,1.65-1.5,2.02-1.27.52.45.12,1.86,0,2.54-.01.14-.03.44-.04.59.47.08,1.15-.69,1.47-1.04.37-.42.97-.99,1.58-.82.62.12,1.02.77.79,1.38Z"/>
    <path class="cls-1" d="m315.03,333.14c-1.31.75-4.19,7.56-5.56,6.39-.41-.38-.59-1.76-.66-2.47-.07-.3.03-.88-.18-1.01-1.11.07-.85,2.35-2.16,2.26-1.75-.57-.1-7.54.25-9.21.33-.02.66.95.69,1.27.03.3.02.59,0,.9.01.37-.17,1.07.26,1.08.96-.17,1-1.44,1.75-1.98,2.03-1.81,1.36,2.6,1.75,3.55.04.05.12.15.16.19,1.34-.69,1.76-2.97,3.53-3.11l.05.04c.4.54.77,1.53.11,2.1Z"/>
    <path class="cls-1" d="m322.26,337.31c.11.5-.37,1.05-.61,1.38-.59.87-1.28,1.78-2.43,1.86-.28.03-.66,0-.97-.05-1.46-.24-2.95.38-4.28-.66-.07-.04-.21-.12-.28-.15-.23.06-.57.2-.88.11l-.05-.05c1.08-.7,3.48-4.99,5.12-5.54.85-.36,1.11.66,1.58,1.06.78.62,2.62,1.07,2.8,2.04Z"/>
    <path class="cls-1" d="m142.07,637.38c-.69,1.32-2.7,2.05-3.89,2.13-.52.16-1.01.67-1.52.75-2.73,0-.4-6.55,1.59-6.81l.08.06c.41.81-.05,1.65-.09,2.51-.05,1.56,1.96,2.26,2.71.82.68-.98,1.64-.61,1.12.54Z"/>
    <path class="cls-1" d="m126.04,628.8c-.19,1.84-.43,3.66-1.62,5.19,0-1.89.42-3.65,1.62-5.19Z"/>
    <path class="cls-1" d="m123.84,628.78c.08,1.37-.58,2.43-1.39,3.43-.2-1.43.59-2.43,1.39-3.43Z"/>
  </g>
  <path class="cls-3" d="m467.92,525.92c-1.67-4-7.62-34.09-11.79-32.86-1.76.51-.93-3.45-.94-4.92.25-4.68,1.31-10.38-1.7-14.3-3.61-7.46-7.66-14.7-11.52-22.04-1.39-3.38-5.42-1.8-8.52-1.81,3.21,8.11,7.23,15.54,11.89,22.86.69.81,1.34,2.33.48,3.06-1.14.65-2.05-.45-2.72-1.47-5.06-6.1-13.39-20.78-21.29-21.39-4.26,3.9-7.67,8.98-11.97,12.96-1.92,2.4-5.89,4.97-4.32,8.55,2.65,5.96,3.01,12.51,4.65,18.62,2.34,2.81,7.12,3.03,10.26,4.74,12.69,7.24,20.58,21.35,25.66,34.56,1.35,3.99-1.71,8.47.28,12.27,3.89,6.07,7.09,12.68,11.47,18.39,4.79,4.28,13.49.31,19.33,1.12.69.42.99.78.99,1.08.52-.8,1.05-1.58,1.57-2.37-5.55-2.49-9.67-34.51-11.81-37.05Zm-32.87-42.97c-3.93,2.98-7.88,5.92-11.9,8.84-2.1,1.77-4.68,1.6-6.28-.84-1.37-2.84,7.67-5.77,8.88-8.67l-.04-.09c-1.71-1.68-8.8-.96-8.61-3.96,1.14-1.89,3.98-2.47,5.52-4.38.11-.24.1-.44-.22-.56-3.09-1.37-9.54.71-9.83-3.3.87-6.22,12.19-1.5,16.97-1.66,5.17.46,3.42,4.52.6,7.53-1.41,1.3,2.74,2.1,3.57,2.37,1.37.38,2.71.79,3.36,2.01.53,1.36-1.14,2.06-2.02,2.71Zm34.9,76.19c.1.78-.78,1.66-1.41.83-.26-.37-.31-.97-.37-1.42-1.29-9.26-4.05-18.21-5.95-27.34-1.99-8.06-5.6-15.65-9.05-23.16-.2-.47-.06-.98.37-1.25,8.08-.91,15.07,44.53,16.41,52.21v.13Z"/>
  <path class="cls-2" d="m479.78,562.9s-.03.05-.05.07"/>
  <path class="cls-2" d="m144.55,695.66l.09.24"/>
  <path class="cls-3" d="m143.35,692.31c-.4,1.23-1.79.61-2.73.51-11.06-2.43-22.18-4.8-33.24-7.25-1.03-.29-1.32-1.69-.19-1.95,2.38.16,4.74,1.71,7.2,1.26,7.87-3.16,17.11,1.96,25.23-.82,1.79-4.36-.35-9.87.66-14.54,5.65-27.54,1.78-15.33-16.71-29.18-9.15-3.27-24.53,10.14-39.04,6.03-9.84-1.85-20.06-3.28-29.33-6.88-4.06-2.7-5.94-8.29-10.82-9.81-6.18-.33-19.64-5.21-25.14-3.99-4.52,1.92-16.36,18.98-19.12,16.2.93,1.19,1.86,2.36,2.8,3.55,0-.74.9-.95,3.56.06,6.59,2.44,18.18,9.53,24.97,13.04,17.01,8.68,33.59,19.95,52.39,24.12l.05-.05c-4.11-10.44,10.58,5.72,13.3,6.92,10.35,3.5,20.39,8.25,30.51,12.52,4.62,2.8,9.01-1.72,11.6-5.41.29-.65.17-1.53.97-1.82,2.25-.56,3.79-.18,4.28.84-.4-1.11-.8-2.23-1.2-3.35Zm-35.11-28.3c4.09-4.79,7.45-10.02,10.74-15.38,1.17-2.22,3.12-2.74,5.33-1.66,1.57.58,3.73.36,4.94,1.93v.12c-3.32,3.33-5.72,7.13-8.25,10.99-1.02,1.26-1.25,2.76.36,3.52,1.43.78,3.52,1.06,5.01,1.46.69.21,1.64.25,1.99.86.24.62-.09,1.33-.24,2.05-.59,2.42-1.38,5.65-4.19,5.08-5.45-1.88-10.93-3.4-15.9-6.41-.21-.15-.37-.32-.47-.52-.33-.64.2-1.52.68-2.04Zm-37.9,4.67l-.17-.03c-19.76-5.32-37.64-16.98-55.12-27.42-1.06-.75-2.76-1.36-3.23-2.68-.28-.84.54-1.62,1.38-1.12,11.72,7.33,23.9,14.07,36.26,20.15,6.88,2.61,13.71,5.41,20.87,7.29.68.14,1.69.34,2.1.94,1,1.24-.23,3.16-2.09,2.87Z"/>
  <path class="cls-3" d="m272.49,401.51c-11.2,18.65-27.24,33.03-40.84,49.9-.65.89-.99,1.76-.92,2.8-.43-1.02-.87-2.02-1.31-3.03,13.44-17.46,27.21-34.64,42.91-49.81.33-.31.51-.44.16.14Z"/>
  <line class="cls-2" x1="230.74" y1="454.22" x2="230.73" y2="454.21"/>
  <path class="cls-3" d="m131.08,584.04c-6.18-.98-9.69-1.86-11.84-2.13-1.26-.16-2.05-.1-2.65.28l3.18-2.17c.96-.66,2.24-.69,3.19-.01,2.22,1.56,7.61.88,8.66,3.43.14.44.14.63-.54.61Z"/>
  <path class="cls-3" d="m119.24,581.91c-1.29.49-2.54.36-2.74.34l.09-.06c.6-.38,1.39-.44,2.65-.28Z"/>
</svg>