<?xml version="1.0" encoding="UTF-8"?>
<svg id="Layer_1" data-name="Layer 1" xmlns="http://www.w3.org/2000/svg" viewBox="0 0 213.7 720.8">
  <defs>
    <style>
      .cls-1, .cls-2 {
        stroke-width: 0px;
      }

      .cls-2 {
        fill: #f4f4f4;
      }
    </style>
  </defs>
  <g>
    <path class="cls-1" d="m205.4,352.44c-.26,1.87-.99,3.67-1.57,5.51-.11.34-.44.51-.71.1-.22-.33-.58-.74-.52-1.06.31-1.81.76-3.6,1.69-5.21.14-.23.41-.62.75-.49.47.19.23.71.36,1.15Z"/>
    <path class="cls-1" d="m213.7,701.28c-.06,4.22-.42,8.42-.99,12.59-.4,2.91-1.52,5.6-4.7,6.7-.57.2-1.14.25-1.74.22-8.71-.36-17.42-.73-26.13-1.08-6.8-.26-13.6-.46-20.4-.77-1.77-.08-3.53-.27-5.3-.21-2.31.09-3.87-1.4-5.5-2.63-1.66-1.26-3.7-1.69-5.45-2.75-.53-.31-1.08-.11-1.01.72.03.36.02.72.04,1.09.1,2.19.04,2.26-2.09,2.18-15.63-.58-31.26-1.15-46.88-1.73-1.46-.06-2.85-.18-4.03-1.3-.72-.69-1.88-.59-2.84-.86-.46-.12-.64.27-.79.6-.37.83-1.01.88-1.81.79-1.99-.23-3.75-1.33-5.77-1.43-.29-.01-.58-.41-.83-.67-4.64-4.68-9.27-9.36-13.9-14.04-4.34-4.4-8.67-8.8-13-13.19-1.53-1.56-3-3.17-4.59-4.66-1.57-1.46-1.87-3.39-2.12-5.3-.28-2.18-1.54-3.97-2.12-6.02-.21-.74-.7-.92-1.39-.2-2.18,2.31-2.23,2.3-4.47.04-11.03-11.15-22.04-22.32-33.06-33.48-.35-.35-.75-.69-.84-1.21-.47-2.74-1.51-5.33-1.91-8.09-.2-1.33-.07-2.38,1.14-3.2.63-.42,1.1-1.08,1.66-1.61,1.31-1.24,2.68-2.33,4.4-3.09,2-.88,3.76-2.28,5.65-3.39,3.09-1.83,6.44-3.08,9.8-4.28.97-.35,1.7-.61,2.27-.86l1,2.32c-5.05,2.18-10.04,4.53-14.87,7.18-1.27.69-1.36.78-.36,1.79,3.43,3.5,7.05,6.82,10.54,10.27,3.96,3.93,7.83,7.94,11.67,11.99,2.65,2.79,5.3,5.57,7.99,8.33,3.05,3.14,6.61,5.94,7.57,10.59.51,2.48,1.07,4.94,1.62,7.41.37,1.62.4,3.49,1.52,4.72,3.89,4.28,7.92,8.45,11.98,12.59,3.3,3.35,6.52,6.78,9.76,10.2,2.64,2.79,5.43,5.45,7.95,8.36.22.24.48.47.82.4.33-.07.36-.4.33-.67-.22-2.85,1.32-5.29,1.84-7.97.42-2.21.98-4.42,1.84-6.43.84-1.97,1.53-4.05,2.68-5.9.1-.18.18-.36.26-.56l2.54,1.06c-1.66,4.01-3.18,8.09-4.55,12.22-.46,1.4-.49,1.5.96,1.53,5.04.11,10.08.13,15.12.29,5.48.17,10.97.37,16.45.71,3.8.24,7.59.45,11.4.59,4.37.17,8.87-.18,12.76,2.53,2.07,1.44,4.18,2.83,6.25,4.28,1.33.93,2.63,2.04,4.19,2.4,1.61.36,3.33.24,5.01.29,5.56.18,11.1.74,16.67.87,3.66.08,7.32.37,10.97.58,3.48.2,6.97.34,10.44.65,2.55.23,4.95-.29,7.02-1.63,1.5-.97,2.29-2.77,3.61-4.07,1.69-1.65.65-6.08-1.39-7.23-2.38-1.34-4.97-2.26-7.43-3.43-1.88-.89-3.8-1.71-5.7-2.56l1.76-2.28c.87.37,1.76.7,2.67.99,2.07.64,3.81,2.11,5.91,2.75,2.11.64,4.12,1.55,6.37,1.78,2.58.25,3.56,1.61,3.53,4.18Z"/>
    <path class="cls-1" d="m202.29,349.88c-.5,2.02-1.15,3.98-2.49,5.79-.43-.81-.06-1.34.14-1.85.52-1.29.47-2.75,1.23-3.97.16-.27.32-.58.7-.55.32.03.49.31.42.58Z"/>
    <path class="cls-1" d="m198.49,347.43c0,.23-.03.45-.05.68h.03c-.15,1.57-.63,3.2-.36,4.7.34,1.85-.46,3.44-.56,5.16-.03.58-.12,1.31-.94,1.21-.77-.09-.74-.8-.67-1.39.07-.54.27-1-.49-1.29-.4-.15-.2-.74-.12-1.13.51-2.57,1.04-5.14,1.56-7.71.05-.22.13-.44.26-.62.25-.34.37-.96.95-.79.55.17.39.74.39,1.18Z"/>
    <path class="cls-1" d="m211.29,347.47c.07,1.2-.6,2.21-1.05,3.19-1.75,3.83-3.01,7.87-5.12,11.53-.66,1.14-2.77,2.02-4.04,1.63-.57-.17-.95-.29-1.2-.29l.55-1.67s.04.01.06.02c1.55.52,2.66.22,3.09-1.17,1.34-4.33,2.63-8.67,3.94-13,.22-.74.05-1.2-.72-1.65-1.34-.77-2.74-1.39-4.19-1.87-1.93-.65-3.65-1.76-5.65-2.31l.4-1.51c2.03.54,4.07,1.06,6.14,1.42.79.14,1.05.02,1.11-.77.15-1.9.3-3.78.1-5.71-.16-1.63-.6-3.32.07-4.97.15-.35-.13-.69-.24-1.03-1.81-5.51-4.83-10.48-6.91-15.88-1.45-3.77-3.16-7.44-4.83-11.12-1.1-2.43-1.59-5-1.94-7.61-.04-.3-.2-.67.23-.8.48-.16.49.32.59.56,1.27,2.95,3.13,5.59,4.51,8.48.2.43.37.92,1.01,1.26-.03-.19-.06-.37-.08-.55l2.35-.36c.15,1.75.26,3.51.76,5.15.51,1.65,1.65,3.11,2.52,4.65,2.2,3.9,4.42,7.79,6.61,11.69.53.94.49,2.03.58,3.06.42,4.83.91,9.65,1.17,14.49.09,1.7.08,3.43.18,5.14Z"/>
    <path class="cls-1" d="m193.77,348.06c-.51,3.1-1.01,6.2-2.16,9.15.17-1.25-.11-2.46-.08-3.66.01-.6-.13-1.19-.71-1.33-.76-.17-.81.61-.94,1.07-.18.6-.19,1.25-.29,1.88-.06.35-.12.75-.56.85-.5.11-.53-.35-.73-.63-.45-.62-.55-1.26-.41-2.03.41-2.27.74-4.56,1.35-6.79.09-.34.12-.89.52-.86.57.05.35.64.34,1-.03,1.13-.13,2.26-.15,3.39-.01.39-.33.98.42,1.07.58.07.93-.19,1.14-.74.34-.89.73-1.76,1.11-2.63.14-.32.29-.75.74-.64.43.1.47.55.41.9Z"/>
    <path class="cls-1" d="m185.32,345.17c-.19,2.12-.38,4.24-.58,6.36-.02.23-.05.46-.13.67-.2.52-.48,1.11-1.12.95-.57-.15-.33-.77-.26-1.19.37-2.32.78-4.64,1.17-6.96.06-.36.12-.84.57-.76s.32.57.35.93Z"/>
    <path class="cls-1" d="m172,347.7c-.43.12-.72-.24-.83-.56-.63-1.85-1.22-3.71-1.75-5.37-.03-.49-.02-.8.28-.91.41-.15.58.22.68.49.64,1.85,1.26,3.7,1.86,5.55.1.29.17.69-.24.8Z"/>
    <path class="cls-1" d="m169.9,682.46c-1.28,1.34-2.73,2.44-4.4,3.15-.22-.01-.38-.06-.5-.13-.21-.15-.23-.38,0-.67,1.09-1.41,2.65-2.27,4.13-3.2.21-.13.53-.13.75.11.21.23.21.53.02.74Z"/>
    <path class="cls-1" d="m168.5,347.38c-.06.27.08.71-.33.81-.38.09-.54-.26-.72-.52-1-1.45-2-2.9-2.98-4.37-.16-.23-.48-.56-.14-.83.41-.31.68.08.88.35.83,1.11,1.35,2.44,2.68,3.59-.17-2.41-1.32-4.31-1.22-6.46.73,2.46,2.48,4.66,1.83,7.43Z"/>
    <path class="cls-1" d="m165.24,350.05c-.37.28-.68.02-.98-.19-.14-.11-.31-.23-.38-.38-.93-2.22-1.81-4.45-2.35-6.8-.01-.33-.08-.7.33-.81.3-.08.48.18.61.43,1.19,2.21,1.92,4.6,2.96,6.87.13.3.1.66-.19.88Z"/>
    <path class="cls-1" d="m161.29,350.2c-.44.14-.63-.25-.77-.59-.23-.54-.44-1.09-.69-1.74-.47.28.01,1.02-.61.98-.46-.02-.61-.54-.63-.94-.07-.99-.08-1.99-.09-2.98,0-.27.13-.57.42-.65.36-.11.4.27.55.47,1.04,1.36,1.39,3.04,2.13,4.54.17.35.1.77-.31.91Z"/>
    <path class="cls-1" d="m165.36,678.61c-.8,1.14-1.96,1.88-3.06,2.67-.76.54-1.36,1.37-2.47,1.43-.19,0-.41,0-.6-.1-.11-.06-.21-.15-.27-.31-.17-.42-.06-.82.21-1.15.59-.71,1.3-1.29,2.11-1.7,1.13-.58,2.3-1.07,3.46-1.57.24-.11.54-.34.77-.09.02.02.05.05.07.09.17.26-.06.51-.22.73Z"/>
    <path class="cls-1" d="m158.31,352.16c-.45.1-.52-.43-.62-.76-.62-1.94-1.23-3.9-1.83-5.85-.1-.34-.24-.7.12-1.14.17.14.33.21.35.32.49,2.22,1.6,4.23,2.21,6.41.11.38.34.89-.23,1.02Z"/>
    <path class="cls-1" d="m155.21,666.66h0s-.02-.01-.02-.01c.01,0,.01.01.02.01Z"/>
    <path class="cls-1" d="m155.21,666.65h0s0,0-.02,0h.02Z"/>
    <path class="cls-1" d="m155.19,666.65s-.01,0-.02,0h.02Z"/>
    <path class="cls-1" d="m155.16,666.62s.01,0,.02.02h-.01v-.02Z"/>
    <path class="cls-1" d="m157.39,354.29c-.01.65-.42.73-.92.57-.42-.12-.66-.45-.8-.86-.91-2.75-1.82-5.49-2.73-8.24-.14-.42-.38-.81.31-1.07.77-.29.7.31.85.68,1.12,2.81,1.86,5.77,3.16,8.52.05.12.08.26.13.4Z"/>
    <path class="cls-1" d="m149.98,345.94s-.01-.01-.02-.01h0v-.03l.03.04Z"/>
    <path class="cls-1" d="m150.44,352.06c-.66.15-1.18-.33-1.12-.87.2-1.57-.38-3.04-.39-4.57-.01-.71.07-1.4,1.02-.7.24,1.69.46,3.39.74,5.08.06.42.48.9-.25,1.06Z"/>
    <path class="cls-1" d="m179.65,322.67c-.74.59-1.53,1.12-2.42,1.76,1.24.16,1.75,1.05,1.85,1.95.11,1.01-.89,1.35-1.68,1.72-.61.29-1.21.61-1.83.91-.3.15-.59.3-.47.7.42,1.49-.29,2.75-.84,4.03-.05.12-.15.22-.2.33h-.8c0-.08,0-.17,0-.26-.13-1.17.38-2.22.64-3.32.07-.31.43-.68-.06-.95-1.28-.71-.42-1.28.12-1.86.35-.38.94-.51,1.19-1.01-.28-.38-.7-.47-.95-.83-1-1.42-.94-1.79.59-2.57.48-.25,1.02-.4,1.47-.69.32-.21.86-.78.66-.89-.76-.42-.65-1.81-1.3-1.72-1.3.18-1.4-.69-1.97-1.45.74-.03,1.4-.86,1.82.26.11-.68,1.22-.61,1.11-1.39-.08-.59-.4-1.15-1.12-1.16-.64-.01-1.27.07-1.91.1-1.18.05-2.35.14-3.53.12-.59-.01-1.21-.21-1.27-.96-.06-.74.54-.89,1.08-.97.54-.07,1.09-.07,1.63-.05.81.03,1.12-.29,1.09-1.14-.07-1.77-.07-3.54-.36-5.29-.12-.74.05-1.4.13-2.11.18-1.46.82-2.93.4-4.4-.32-1.1-.23-2.13-.04-3.22.36-2.01.68-4.02.99-6.04.17-1.05-.12-2.26-.7-3.21-.1-.16-.17-.32-.26-.48-1.8-3.23-3.32-6.62-5.18-9.8-1.81-3.08-3.36-6.29-5.12-9.39-1.58-2.79-2.81-5.77-4.82-8.31-3.01-3.8-6.38-7.31-9.06-11.37-1.45-2.2-2.95-4.37-4.42-6.55-.2-.3-.48-.72-.13-.98.42-.32.58.23.77.47,4.22,5.34,9.02,10.16,13.84,14.95.38.38.79.76,1.43.6.7-.18.69-.81.79-1.3.9-4.3,1.8-8.59,2.66-12.89.47-2.33-.11-4.3-1.12-6.1-2.14-3.77-4.62-7.36-7.22-10.84-.62-.83-1.04-1.68-1.28-2.62-.5-1.95-1.24-3.79-2.07-5.61-.63-1.36-1.45-2.62-2.1-3.96-.18-.36-.4-.81.12-1.07.4-.2.64.18.9.43.42.43.58,1.1,1.27,1.44.39-1.72.06-3.35.18-4.96.24-2.98.55-5.96.8-8.95.43-5.13,1.5-10.13,2.77-15.1.8-3.14,2.29-6.01,3.09-9.14.39-1.53,1.21-2.99-.41-4.32-.41-.34-.2-.87.13-1.23.36-.41.75-.14,1.1.06,1.23.7,1.9,1.81,2.02,3.18.22,2.43-.56,4.76-1,7.1-1.14,6.16-2.07,12.36-3.36,18.5-.83,3.98-1.47,8.02-2.03,12.05-.36,2.62-.18,5.34.7,7.79.87,2.4,2.23,4.67,3.75,6.77,2.95,4.08,5.04,8.57,6.73,13.28.12.36.15.7.11,1.07-.42,4.29-.84,8.59-1.86,12.77-1.02,4.18-.66,8.24.56,12.22.54,1.76,1.05,3.56,1.83,5.3,1.33,2.96,2.78,5.88,4.34,8.69,1.89,3.4,3.6,6.89,5.57,10.25.12.21.56.63-.02.69-.77.09-.5.59-.58.98-.46,2.36-.04,4.81-.8,7.15-1.37,4.26-1.67,8.6-.77,13.02.23,1.15.66,1.53,1.83,1.6,2.68.17,3.34,1.3,2.34,3.72-.44,1.06-.52,1.97.64,2.65.95.56.77,1.25.02,1.85Z"/>
    <path class="cls-1" d="m148.84,353.98c-.09.31-.37.36-.66.35-.47-.01-.91-.04-1.14-.56-.45-.99-.79-2.03-1.19-3.03-.54-1.33-.78-2.78-1.12-4.05.04-.5-.02-.99.4-1.07.53-.09.61.45.72.82.43,1.48.77,2.99,1.34,4.43.3.76.52,1.52,1.26,2.02.33.22.53.65.39,1.09Z"/>
    <path class="cls-1" d="m144.24,354.09c-.66.16-1.21-.35-1.34-1.05-.2-1.07-.37-2.15-.48-3.23-.21-1.85-.36-3.7-.54-5.59.11-.42-.11-1.13.51-1.23.68-.12.69.61.76,1.06.29,2.09.59,4.19.74,6.3.07.84.44,1.56.6,2.35.1.51.5,1.2-.25,1.39Z"/>
    <path class="cls-1" d="m157.69,671.78c-.71.74-1.41.07-2.03-.35-1.15-.79-1.93-1.92-2.64-3.08-.49-.78-1.06-1.11-2.01-.99-3.1.42-6.21.27-9.32.18-.56-.02-.73.04-.6.65.16.7.28,1.4.56,2.08.25.6.32,1.35-.52,1.56-.7.18-.91-.44-1.03-.99-.28-1.24-.57-2.48-.79-3.72-.13-.74.08-1.28.97-1.48,3.05-.69,6.15-1.11,9.26-1.36,1.61-.13,3.26-.11,4.27,1.64.21.38.88.49,1.36.72.31,1.33,1.46,2.11,2.14,3.21.38.61,1.02,1.26.38,1.93Z"/>
    <path class="cls-1" d="m149.65,338.19l-1.48.79c-.27,0-.68.1-1.28.33-1.65.64-4.02.7-5.87.17-2.29-.67-4.47-.32-6.7-.31-.59,0-1.18.06-1.77.05-5.5-.07-10.98.3-16.46.49-.79.03-1.57.09-2.34.19l-.26-2.14c4.54-.57,9.08-1.03,13.63-1.54,3.66-.41,7.45.44,10.98-1.17.15-.07.36.01.54-.02,1.93-.26,3.84.25,5.98.33-2.52-1.65-5.04-3.08-3.75-6.6.18-.49-.29-.58-.62-.71-2.26-.94-2.9-2.43-1.95-4.74.28-.69.19-1.19-.11-1.89-.21-.48-.45-.94-.72-1.38l1.37-.8c.32.54.64,1.09.96,1.63.34.57.57.89,1.2.39.25-.2.61-.26.87.03.26.3.13.64-.1.86-.75.72-.71,1.73-1.02,2.61-.31.86.15,1.03.78,1.19.74.19,1.44-.18,2.17-.09.44.05.96.22.4.72-.93.82-.77,1.8-.51,2.75.18.66.24,1.13-.45,1.45-.28.14-.67.25-.57.65.1.41.52.51.87.53.9.04,1.81.03,2.71.03,1.25,0,1.42.25.94,1.4-.33.8-.27,1.46.49,2.03.88.66,1.58,1.49,1.98,2.55.03.07.06.15.09.22Z"/>
    <path class="cls-1" d="m138.05,349.75s-.01.49-.42.57c-.49.09-.49-.46-.59-.76-.74-2.36-.83-4.81-.9-7.27-.01-.35.12-.66.51-.66.45,0,.6.38.64.75.25,2.34.49,4.69.76,7.37Z"/>
    <path class="cls-1" d="m136.32,37.07c.04,1.6-1.35,2.27-2.95,1.33-1.27-.74-2.21-1.86-3.04-3.07-.17-.26-.31-.55-.49-.82-1.43-2.16-1.36-2.36.77-3.85.87-.6,1.74-.57,2.38.04,1.8,1.72,3.65,3.48,3.33,6.37Z"/>
    <path class="cls-1" d="m136.8,351.6c-.08.3-.12.65-.47.76-.33.1-.49-.17-.62-.41-.58-1.11-1.18-2.23-1.51-3.46-.1-.36-.27-.81.32-.93.08.02.13.03.17.04.2.09,2.16,3.78,2.11,4Z"/>
    <path class="cls-1" d="m133.37,345.67c-.51,1.96-1.2,3.84-2.56,5.43.13-2.07,1.01-3.88,1.82-5.72.08-.19.28-.37.55-.27.27.11.25.34.19.56Z"/>
    <path class="cls-1" d="m151.71,168.4c-.27.28-.57.47-.97.35-.66-.19-1.27-.49-1.79-.94-4.6-3.99-10.01-6.85-14.79-10.57-1.11-.87-2.25-1.68-3.39-2.5-.35-.25-.54-.51-.23-.89.29-.36.39-.97,1.11-.91.95.5,2.01.93,2.94,1.57,3.24,2.23,6.47,4.47,9.66,6.78,2.31,1.67,4.61,3.33,6.66,5.31.26.25.48.54.7.84.21.29.44.6.1.96Z"/>
    <path class="cls-1" d="m129.2,354.16c-.64.05-.67-.62-.77-1.09-.62-2.74-.97-5.51-1.18-8.31-.05-.65.05-1.22.83-1.28.86-.08.91.55.93,1.17.09,2.76.21,5.51.8,8.02-.02.73.16,1.43-.61,1.49Z"/>
    <path class="cls-1" d="m129.3,152.12c.02.4-.07.78-.49.87-.62.14-.82-.39-.87-.81-.3-2.23-1.32-4.24-1.87-6.39-1.16-4.54-2.29-9.08-2.25-13.81,0-.36-.01-.73.07-1.08.1-.4.31-.81.75-.9.54-.1.64.41.8.76,1.17,2.56,1.34,5.35,1.79,8.07.7,4.29,1.32,8.6,1.98,12.89.02.14.06.27.09.4Z"/>
    <path class="cls-1" d="m125.05,667.65c-.33-1.3-.1-2.58.13-3.87.22,1.3.24,2.59-.13,3.87Z"/>
    <path class="cls-1" d="m127.89,20.63c-2.66,1.48-4.22,3.72-5.05,6.61-.3,1.01-1,1.92-1.58,2.83-.45.7-1,.81-1.69.19s-1.38-1.2-1.27-2.23c-.05-1.33.83-2.22,1.58-3.09,1.71-1.99,3.51-3.92,5.64-5.49.45-.33.92-.61,1.45-.73.48-.1,1.08-.27,1.31.33.22.56.19,1.26-.39,1.58Z"/>
    <path class="cls-1" d="m123.78,350.95c-.53.21-.86-.3-1.04-.68-.52-1.05-.68-2.24-1.47-3.53-.09,1.97.33,3.56.52,5.18.04.28.22.71-.26.77-.31.04-.4-.31-.46-.58-.59-2.47-1.03-4.97-1.08-7.53-.02-.54.28-.81.74-1.01.47-.22.75.02,1.06.32.39.38.78.71.93,1.3.39,1.54.88,3.05,1.31,4.58.12.43.3.97-.25,1.18Z"/>
    <path class="cls-1" d="m121.75,663.13c0,1.31-.01,2.62,0,3.92,0,.98-.66,1.21-1.43,1.27-.91.07-.85-.66-.88-1.22-.14-3.03-.11-6.06.8-9,.08-.27.02-.72.45-.72.36,0,.44.4.58.68.8,1.62.3,3.38.48,5.07Z"/>
    <path class="cls-1" d="m116.69,663.45c0,.58,0,1.71-.01,2.84,0,.31,0,.69-.39.78-.45.11-.62-.27-.78-.59-.08-.16-.16-.35-.14-.52.24-2.43.11-4.87.07-7.31,0-.29.06-.58.39-.6.43-.03.49.35.52.66.11,1.39.2,2.79.34,4.74Z"/>
    <path class="cls-1" d="m119.41,355.04c-.38.22-.7,0-.99-.23-.14-.11-.27-.24-.37-.39-1.65-2.29-3.04-4.72-3.79-7.47-.2-.71-.16-1.34.56-1.62.5.07.68.33.8.63.79,2,1.93,3.79,3.04,5.61.46.73.54,1.7.95,2.5.15.32.2.74-.2.97Z"/>
    <path class="cls-1" d="m114.78,354.93c-.09.67.13,1.42-.66,1.43-.6.01-1.15-.44-1.21-1.1-.3-3.3-1.06-6.55-1.14-9.87,0-.59.03-1.29.81-1.37.83-.08.94.71.97,1.23.17,3.31.74,6.57,1.23,9.68Z"/>
    <path class="cls-1" d="m112.78,663.98c0,.41.17,1.07-.5,1.04-.62-.03-.42-.69-.45-1.11-.09-1.08-.17-2.16.01-3.07,0-1.45-.01-2.71,0-3.98.01-.26.04-.61.37-.63.32-.02.45.31.49.56.08.4.11.81.11,1.22,0,1.99,0,3.98-.03,5.97Z"/>
    <path class="cls-1" d="m138.84,319.24l-1.37.8c-1.15-1.91-2.71-3.54-3.82-5.48-1.75-3.1-3.72-6.06-6.2-8.69-1.86-1.97-3.38-4.27-5.02-6.45-.65-.87-1.32-1.76-1.77-2.73-.92-1.97-1.57-3.93-3.59-5.34-2.45-1.71-4.12-4.26-5.23-7.14-.91-2.36-1.92-4.73-3.22-6.89-2.17-3.59-2.82-7.34-2.35-11.46.22-1.89.3-3.81.26-5.72l2.9-.04c.03,1.22.13,2.43.3,3.65.13.89.56,1.72.31,2.65-.56,2.1-.89,3.95.45,6.16,1.13,1.87,2.04,4.01,3.09,6,1.25,2.35,2.85,4.51,4.28,6.77,2.49,3.88,4.87,7.84,7.48,11.64,1.73,2.54,3.13,5.3,5.03,7.73,1.58,2.01,2.36,4.45,3.69,6.6,1.63,2.63,3.22,5.28,4.78,7.94Z"/>
    <path class="cls-1" d="m107.99,353.36s-.11.4-.13.62c-.04.37.13.95-.47.89-.5-.05-.4-.63-.4-1.02-.02-1.53-.01-3.07-.01-4.61h-.1c0-1.53,0-3.07.01-4.61,0-.36-.02-.78.44-.87.57-.11.67.39.73.77.1.63.23,1.28.15,1.89-.24,1.88.16,3.68.41,5.52.06.46.78,1.47-.63,1.42Z"/>
    <path class="cls-1" d="m125.23,152.96c-.94.63-1.35,1.57-1.91,2.49-.63,1.03-1.87,1.65-2.77,2.54-4.21,4.13-9.44,6.87-14.07,10.43-1.2.92-2.6,1.44-3.88,2.21-.15.1-.33.15-.44.2-.3.03-.52-.02-.63-.26-.1-.22-.03-.44.11-.64.41-.56.97-.95,1.56-1.29,1.58-.92,3.14-2.05,4.14-3.47,1.74-2.47,4.08-4.2,6.3-6.1,3.1-2.66,6.49-4.93,10.08-6.9.41-.23.81-.4,1.28-.19.51.23.81.58.23.98Z"/>
    <path class="cls-1" d="m105.19,54.15c-.57,3.27-1.79,6.26-3.9,8.87-.3.37-.53.55-.75.55-.27,0-.5-.26-.81-.76-.72-1.21-.1-2.41-.08-3.59.03-2.1-.22-4.15-.59-6.2-.05-.26-.1-.53-.11-.8-.02-.41-.1-.89.43-1.01.42-.09.59.31.82.6,1.14,1.48,1.6,3.2,1.8,5.02.04.3-.02.64.32.97,1.55-1.81,1.64-4.1,2.3-6.31.83.88.72,1.8.57,2.66Z"/>
    <path class="cls-1" d="m106.08,343.91c-.45,3.88-.36,7.79-.6,11.68-.04.7-.05,1.43-.81,1.71-.68.26-.98-.45-1.45-.76-1.69-1.08-1.51-3.05-2.33-4.78-.51,1.01-.33,2.09-1.12,3.14.06-3.21.19-6.11,1.18-8.9.14-.4.18-1,.82-.89.59.1.56.68.61,1.1.23,2.02.42,4.05.63,6.08.05.52.03,1.07.61,1.67.07-1.37.11-2.56.2-3.74.17-2.22.2-4.45.78-6.61.15-.53.27-1.21.94-1.12.84.12.6.84.54,1.42Z"/>
    <path class="cls-1" d="m168.16,68.26c.03.76-.51,1.93-1.84,2.02-.6.05-1.24.33-1.78.64-3.79,2.16-7.94,3.3-12.12,4.39-1.02.26-1.43.62-1.77,1.85-1.53,5.52-1.05,11.19-1.74,16.76-.09.72-.16,1.3-.18,1.76l-1.41-.03c0-.64-.06-1.31-.03-1.93.01-.18-.02-.36-.02-.54-.02-4.49-.13-8.97.24-13.45.25-3.1.69-3.03-2.76-2.39-.18.03-.35.09-.53.1-.48.03-1.1.27-1.16-.51-.04-.59.25-1.01.94-1.11.62-.1,1.23-.31,1.84-.48,3.36-.9,6.31-2.76,9.46-4.15,2.95-1.3,5.85-2.71,8.79-4.02.89-.4,1.13-.88.78-1.8-.41-1.06-.68-2.16-1.01-3.24-.85-2.78-1.6-5.59-2.73-8.28-.18-.42-.37-1.11-1.04-.58-1.47,1.17-3.19,1.92-4.68,3.02-.63.46-1.2.68-1.77-.03-.85-1.06-.86-1.94-.1-2.58,1.29-1.1,3.07-1.34,4.33-2.5.53-.5,1.62-.25,1.86-.94.24-.67-.53-1.28-.83-1.92-1.15-2.46-1.95-5.06-2.98-7.57-.65-1.58-1.53-3.07-2.05-4.68-.73-2.26-1.82-4.34-2.76-6.5-.22-.49-.48-.65-1.03-.65-3.82.02-7.47-.48-10.47-3.24-1.5-1.38-3.35-2.44-4.52-4.1-1.51-2.15-2.79-4.47-3.77-6.92-.2-.48-.44-.72-.92-.86-2.02-.61-4.2-.38-6.22-1.47.07,1.27.34,2.31.12,3.34-.22,1.04-.16,2.08-.26,3.12-.22,2.28-2.2,3.26-4.16,2.1-.83-.49-1.58-1.06-2.27-1.73-.3-.3-.5-.76-1.16-.76-.05,2.82-.68,5.51-.94,8.25-.13,1.41-.49,2.77-.88,4.12-.12.43-.3.79-.83.68-.45-.1-.76-.39-.7-.86.15-1.36-.78-2.28-1.35-3.33-.39-.72-.75-.49-1.03.12-.43.95-.89,1.89-1.27,2.86-.6,1.51-1.61,3.06.06,4.56.12.1.11.34.18.51.54,1.5.71,3.03.68,4.58l-1.38-.05c0-1.6-.33-3.08-.99-4.28-.27.25-.16.59-.2.89-.21,1.85-.4,3.7-1,5.47-.21.6-.53,1.31-1.25,1.25-.61-.05-.63-.8-.79-1.31-.06-.17-.06-.36-.09-.53-.43-2.29-1.02-4.5-2.22-6.54-1.1-1.88-1.94-3.9-3.22-5.68-.23-.3-.4-.88.04-.85.69.04,1.73-.17,2.04.65.65,1.71,1.86,3.11,2.48,4.83.29.82.53,1.69,1.07,2.4.35-.21.31-.47.31-.67-.03-2.1.87-3.98,1.54-5.87.53-1.49,1.11-3.07,2.23-4.31.52-.58,1.01-1.1.46-2.01-.2-.34-.28-1.19.38-1.4.56-.18.86.4,1.12.82.38.62.71,1.27,1.11,1.87.55.85,1.14,1.67,1.72,2.49.29-1.42.3-2.72.29-4.03-.02-3.31-.04-6.63-.05-9.94,0-.39-.08-.94.41-1.04.56-.11.53.5.7.84.12.24.19.53.37.71,1.72,1.68,3.33,3.48,5.2,5,.25.2.52.48.84.34.31-.13.35-.52.36-.84,0-.31-.05-.63-.11-.94-.3-1.61-.45-3.21.37-4.75.23-.44.24-.99-.17-1.4-.32-.32-.66-.62-1.01-.91-.27-.23-.45-.51-.27-.82.17-.28.48-.17.75-.1.84.21,1.65.42,2.41.89,1.04.64,2.16,1.52,3.35,1.37,2.67-.33,5.24.35,7.85.4.34,0,.78.24.94-.26.07-.21.02-.36-.09-.48l.92-1.2c.79.61,1.59,1.21,2.4,1.79,1.25.89,1.5,2.84.77,3.9-.47.68-.95.38-1.53.35-.66-.04-1.61-.91-1.94.64-.14.7-1.03.11-1.7.17.44,1.55.72,2.98,2.27,4.04,2.2,1.5,4.5,2.85,6.58,4.56.78.64,2.14.64,3.25.82.98.17,1.98.26,2.97.24.95,0,1.56.6,2.11,1.12,1.11,1.04,2.48,1.92,2.42,3.83-.02.71.7,1.44,1.06,2.17,2.67,5.47,5.13,11.01,7.05,16.8,1.44,4.34,3.2,8.58,4.99,12.79.71,1.7.58,3.44.67,5.14Z"/>
    <path class="cls-1" d="m98.19,358.32c.04.16-.17.33-.37.31-.51-.07-.44-.51-.49-.85-.5-2.86-.82-5.74-.67-8.66.06-1.26.13-2.53.17-3.79.01-.42.13-.74.54-.83.47-.12.37.39.56.58.55.56.52,1.18.43,1.87-.39,2.76-.19,5.51.28,8.24.2,1.14-.69,2.03-.45,3.13Z"/>
    <path class="cls-1" d="m109.83,252.39c-.3,2.57-.48,5.14-.4,7.71l-2.9.04c-.01-.72-.04-1.43-.09-2.14-.29-4.69-.65-9.4-1.3-14.05-.61-4.33-.54-8.75-1.71-13-1.14-4.09-1.86-8.27-2.84-12.39-.73-3.04-1.19-6.19-2.28-9.09-1.95-5.15-3.68-10.44-6.94-15-.4-.57-.57-1.31-.64-2.06-.19-2.21.25-4.4.08-6.6-.12-1.54.62-2.81,1.27-4.1.22-.44.59-.69,1.12-.52.55.17.62.56.58,1.07-.16,2.07.37,4.05.76,6.05.41,2.12,1.73,3.94,2.26,5.96,1.76,6.77,4.5,13.24,6.08,20.07.36,1.55.23,3.18.86,4.67,1.52,3.62,2.07,7.59,3.92,11.11,1.26,2.39.83,5.13,1.33,7.69.63,3.23.67,6.54.61,9.83-.03,1.59.42,3.14.23,4.75Z"/>
    <path class="cls-1" d="m127.58,125.32c-.89.51-1.55,1.19-2.26,1.25-1.82.13-3.57.63-5.38.81-5.83.59-11.64,1.3-17.47,1.9-1.49.15-2.37.93-3,2.21-.63,1.28-1.2,2.58-1.97,3.82-1.64,2.65-3.09,5.42-4.3,8.31-.22.54-.37,1.08-.17,1.58.77,1.9.47,3.97,1.04,5.88.52,1.73.34,3.51.53,5.26.15,1.37-.73,2.59-1.13,3.88-1.84,5.86-4.51,11.35-7.32,16.79-2.64,5.12-5.5,10.13-7.66,15.48-.16.4-.38.79-.48,1.2l-2.83-.49c2.01-6.71,4.84-13.11,7.9-19.43,1.13-2.34,1.64-4.98,2.53-7.44,1.2-3.37,2.3-6.77,3.89-9.99,1.32-2.67.94-5.58,1.19-8.41.27-3.06.34-6.2,1.89-8.98,1.3-2.33,2.63-4.65,4.08-6.89,1.01-1.55,1.14-2.54.13-4.04-1.11-1.66-1.42-3.63-1.98-5.48-.88-2.92-2.04-5.71-3.47-8.37-.09-.17-.17-.34-.25-.51l1.5-.42c.04.09.08.19.13.29.5,1.1,1.53,1.73,2.01,2.87,1.36,3.22,2.59,6.48,3.81,9.75.35.92.82,1.37,1.82,1.04.3-.09.63-.1.95-.13,6.81-.7,13.69-.74,20.43-2.13,1.83-.38,3.75-.24,5.84.39Z"/>
    <path class="cls-1" d="m187.53,687.89c-2.73-1.21-5.03-3.19-7.9-4.18-1.21-.41-2.62-1.11-3.26-2.11-.93-1.45-2.19-2.43-3.48-3.34-3.18-2.24-6.54-4.21-9.73-6.45-1.02-.72-2.11-1.68-2.37-3.03-.21-1.07-.64-1.98-1.26-2.82-1.02-1.39-2.01-2.8-3.09-4.14-.81-1.01-1.96-1.65-3.23-1.82-2.01-.27-4.04-.52-6.06.04-.86.23-1.01-.28-1.01-.98,0-.15-.02-.31-.02-.45l-1.96.08c-.04.34-.08.69-.13,1.05-.05.4-.33.5-.68.49-.33,0-.47-.22-.48-.52-.06-.95-.11-1.88-.38-2.81,0-.04-.02-.09-.03-.12h-1.59c0,.14-.08.33-.15.46-.35.64-.32,1.32-.19,1.99.24,1.31-.13,1.79-1.6,1.78,0,0-.19,0-.33-.09-.18-.11-.35-1.65-.34-2.64l-1.21-.04c-.03.36-.03.72-.06,1.08-.19,2.27-.55,2.69-2.74,3.14-.73.15-1.13-.12-1.11-.9.01-.59,0-1.17,0-1.76h-.06c0-.49.03-.99,0-1.48-.02-.25-.03-.47-.03-.65l-1.5-.06c0,.14,0,.3-.04.48-.39,2.79-.24,5.62-.32,8.43-.01.29-.09.63.19.88.53-.03.19-.96.85-.81.27.06.34.36.28.55-.2.63.56,1.5-.2,1.87-1.24.6-2.41,1.47-4,1.16-.87-.16-1.16-.4-1.11-1.26.12-2.22.12-4.45.31-6.66.09-1.18-.18-2.23-.51-3.31-.08-.26-.11-.6-.48-.51-.34.08-.32.43-.28.68.53,3.23-.36,6.41-.35,9.62,0,.87-.3,1.17-1.24,1.29-1.48.19-2.96.2-4.43.12-2.19-.1-4.36-.4-6.54-.61-3.04-.29-3.02-.37-3.86-3.41-.39-1.4-.82-2.79-1.22-4.18-.14-.49-.3-1.05-.8-1.2-1.2-.36-1.32-1.21-1.21-2.24.04-.4-.02-.82-.02-1.22s0-.73.01-1.03l-1.06-.02c0,.27-.01.6-.03,1-.18,3.38.28,2.66-2.8,2.87-1.44.1-2.9-.04-4.35-.08-.86-.02-1.73-.14-2.49.43-.28.2-.65.27-.9.05-.9-.8-1.68-.2-2.5.15-.89.38-1.62.8-1.25,2.02.21.72-.46,1.24-.7,1.86-.23.59-.47,1.17-.72,1.75l1.87.8c.22-.58.47-1.14.79-1.67.25-.4.59-.54,1.04-.49,1.7.23,3.42.2,5.14.42,2,.26,4.06.16,6.09.06.87-.04,1.19.24,1.45.98.78,2.19,1.52,4.37,1.83,6.68.23,1.67,1.73,2.97,3.39,2.95.89-.01.89-.69.75-1.28-.31-1.28.34-1.6,1.44-1.59,1.27.01,2.54,0,3.81,0,5.8-.17,11.46,1.1,17.19,1.68,1.31.13,2.44.79,3.46,1.5,3.91,2.72,8.31,4.6,12.25,7.29.76.52,1.73.76,2.64,1.01,3.44.95,6.15,3.26,9.24,4.86,2.92,1.53,5.85,3.05,8.72,4.7,1.82,1.04,3.42.05,4.99-.44,1.79-.56,3.38-1.76,5.15-2.43,2.21-.85,4.34-1.61,6.84-.19,1.81,1.02,3.69,1.9,5.59,2.74l1.76-2.28c-2.62-1.12-5.08-2.54-7.68-3.69Zm-12.43,1.39c-.67.24-1.42.34-1.8,1.09-.32.63-.68.1-1.01-.02-1.77-.62-3.25-1.76-4.86-2.65-.94-.52-1.87-1.04-2.81-1.55-1.88-1.04-3.75-2.08-5.63-3.12-3.01-1.67-6.02-3.33-9.03-4.99-3.29-1.81-6.57-3.63-9.9-5.36-.75-.39-1.03-.95-1.24-1.65-.5-1.65-.92-3.31-1.96-4.74-.46-.63-.25-1.1.57-1.24,1.53-.27,2.93-.9,4.37-1.45,1.9-.73,3.97-.35,5.93-.22,1.54.1,3.09.02,4.62.3,1.47.28,2.64,1.47,2.85,2.97h0c1.95,1.2,3.26,3.04,4.64,4.78,1.45,1.83,1.37,1.84-.59,3.06-1.61,1-3.46,1.64-4.72,3.17-.27.32-.67.62-.38,1.04.23.34.65.11,1.01.04,2.29-.43,3.92-1.99,5.73-3.26.14-.1.32-.27.33-.41.16-2.02,1.03-.83,1.7-.38,1.12.74,2.06,1.69,3.03,2.61.87.83,1.76,1.64,2.81,2.27.67.41.83,1.45,1.46,2.09.14.14.31.27.52.36,1.87.84,3.45,2.17,5.23,3.13,1.15.62,1.75,1.92,3.18,2.16-1.34.85-2.65,1.49-4.05,1.97Z"/>
    <path class="cls-2" d="m175.98,685.15c-1.78-.96-3.36-2.29-5.23-3.13-.21-.09-.38-.22-.52-.36-.63-.64-.79-1.68-1.46-2.09-1.05-.63-1.94-1.44-2.81-2.27-.97-.92-1.91-1.87-3.03-2.61-.67-.45-1.54-1.64-1.7.38-.01.14-.19.31-.33.41-1.81,1.27-3.44,2.83-5.73,3.26-.36.07-.78.3-1.01-.04-.29-.42.11-.72.38-1.04,1.26-1.53,3.11-2.17,4.72-3.17,1.96-1.22,2.04-1.23.59-3.06-1.38-1.74-2.69-3.58-4.64-4.77h0s-.02-.01-.02-.01h.02c-.21-1.5-1.38-2.69-2.85-2.97-1.53-.28-3.08-.2-4.62-.3-1.96-.13-4.03-.51-5.93.22-1.44.55-2.84,1.18-4.37,1.45-.82.14-1.03.61-.57,1.24,1.04,1.43,1.46,3.09,1.96,4.74.21.7.49,1.26,1.24,1.65,3.33,1.73,6.61,3.55,9.9,5.36,3.01,1.66,6.02,3.32,9.03,4.99,1.88,1.04,3.75,2.08,5.63,3.12.94.51,1.87,1.03,2.81,1.55,1.61.89,3.09,2.03,4.86,2.65.33.12.69.65,1.01.02.38-.75,1.13-.85,1.8-1.09,1.4-.48,2.71-1.12,4.05-1.97-1.43-.24-2.03-1.54-3.18-2.16Zm-24.97-17.79c-3.1.42-6.21.27-9.32.18-.56-.02-.73.04-.6.65.16.7.28,1.4.56,2.08.25.6.32,1.35-.52,1.56-.7.18-.91-.44-1.03-.99-.28-1.24-.57-2.48-.79-3.72-.13-.74.08-1.28.97-1.48,3.05-.69,6.15-1.11,9.26-1.36,1.61-.13,3.26-.11,4.27,1.64.21.38.88.49,1.36.72.31,1.33,1.46,2.11,2.14,3.21.38.61,1.02,1.26.38,1.93-.71.74-1.41.07-2.03-.35-1.15-.79-1.93-1.92-2.64-3.08-.49-.78-1.06-1.11-2.01-.99Zm11.29,13.92c-.76.54-1.36,1.37-2.47,1.43-.19,0-.41,0-.6-.1-.11-.06-.21-.15-.27-.31-.17-.42-.06-.82.21-1.15.59-.71,1.3-1.29,2.11-1.7,1.13-.58,2.3-1.07,3.46-1.57.24-.11.54-.34.77-.09.02.02.05.05.07.09.17.26-.06.51-.22.73-.8,1.14-1.96,1.88-3.06,2.67Zm7.6,1.18c-1.28,1.34-2.73,2.44-4.4,3.15-.22-.01-.38-.06-.5-.13-.21-.15-.23-.38,0-.67,1.09-1.41,2.65-2.27,4.13-3.2.21-.13.53-.13.75.11.21.23.21.53.02.74Z"/>
    <path class="cls-1" d="m92.95,45.94c-.15.38-.28.78-.63,1.02-.6.41-1.11.9-1.37-.4-.51-2.59-1.52-5.03-2.76-7.37-.19-.36-.66-.81-.05-1.15.46-.25.88.06,1.14.48.83,1.3,1.63,2.6,2.61,4.18v-7.67c0-.36-.05-.73-.03-1.09.02-.37-.19-.92.41-.99.6-.08.88.36.97.91.19,1.12.4,2.24.55,3.36.4,2.97.3,5.89-.84,8.72Z"/>
    <path class="cls-1" d="m101.93,314.41c-.46.14-.79-.07-1.05-.29-1.96-1.65-4.47-2.62-6.1-4.71-.16-.2-.42-.45-.63-.45-.29,0-.33.38-.37.65-.44,2.72-.79,5.47-1.35,8.17-.34,1.64-.37,3.37-.93,4.93-1.38,3.92-2,7.97-2.48,12.05l-1.44-.17c.18-1.56.35-3.13.52-4.69.29-2.65.41-5.32.62-7.98.42-5.12-.11-10.24.26-15.35.08-1.15-.59-2.08-1.03-3.01-.75-1.61-1.36-3.27-1.97-4.92-.81-2.2-1.58-4.41-2.28-6.65-.28-.87-.54-1.75-.8-2.63l2.04-.5c.37,1.32.9,2.59,1.68,3.81,1.02,1.6,1.73,3.39,2.67,5.05,1.76,3.11,3.49,6.35,6.19,8.71,2.65,2.31,4.21,5.37,6.45,7.98Z"/>
    <path class="cls-1" d="m89.78,63.49c-.31,1.1-.73,1.11-1.48.49-2.93-2.4-4.86-5.45-5.91-9.08-.07-.22-.09-.44-.13-.67-.07-.43-.06-.89.41-1.03.55-.17.74.27.96.71,1.24,2.36,2.52,4.71,3.8,7.06.15.27.29.57.79.64-.19-3.03-.39-5.96-.54-8.9-.04-.77.04-1.54.12-2.3.04-.4.14-.92.63-.93.51-.01.57.51.62.91.25,1.8.59,3.59.71,5.39.17,2.56.74,5.12.02,7.71Z"/>
    <path class="cls-1" d="m201.17,267.66c-.04-2.55.08-5.12-.26-7.7-.61-4.61-.82-9.3-1.93-13.83-.92-3.74-1.25-7.57-2.15-11.31-.65-2.74-.81-5.61-1.4-8.4-.7-3.32-.91-6.74-1.65-10.04-1.02-4.55-1.56-9.17-2.54-13.72-1.22-5.66-.95-11.45-1.17-17.2-.16-4.16-.46-8.32-.43-12.47.04-4.17-.65-8.05-2.8-11.7-1.23-2.1-2.18-4.39-3.04-6.68-1.36-3.65-2.44-7.4-3.82-11.05-1.86-4.89-3.18-9.94-4.61-14.95-.65-2.29-1.65-4.46-2.14-6.79-.1-.47-.51-.69-.92-.94-1.69-1.06-3.29-2.26-5.04-3.22-2.57-1.41-2.99-3.22-2.18-6.04,1.17-4.05,2.27-8.13,3.48-12.18.24-.8.26-1.25-.81-1-.61.14-1.26.09-1.88-.16-1.15-.45-2.36-.61-3.6-.61-3.35,0-6.71-.01-10.07-.03-2.95-.01-3.59-.02-3.49-1.96l-1.41-.03c0,.62-.06,1.21-.33,1.68-.62,1.07-2.11.12-3.23.26-4.62.56-9.29.75-13.87,1.7-9.15,1.91-18.2,4.2-27.27,6.42-1.41.34-2.86.58-4.19,1.18-.9.4-1.14.06-1.09-.78.01-.18,0-.36.01-.55.05-1.78.07-1.79,1.55-.9.97.58,1.94-.01,2.2-1.38.1-.48.05-1,.11-1.49.1-.75.06-1.46,1.33-1.15,1.06.25,1.37-.81,1.21-1.65-.86-4.67-.33-9.31.13-13.96.08-.82.25-1.05,1.11-.97,1.39.12,2.8.23,4.2-.09,1.07-.25,2.96-1.76,3.17-2.81.14-.73-.31-1.49-.69-1.88-.46-.49-.99.33-1.17.74-.91,2.13-2.75,1.9-4.47,1.78-1.42-.1-2.79-.17-4.16.29-1.87.63-3.08-.97-4.62-1.46-.98-.31-1.82-1.02-2.87-1.21-.35-.07-.52-.23-.64-.58-.42-1.25-.86-2.49-1.33-3.71-.38-1.01-.3-1.96.18-2.89.15-.28.29-.57.4-.86,1.15-2.95,2.97-4.09,6.48-3.97-.33.64-.87.66-1.31.82-2.07.73-3.58,2.96-3.2,5.07.26,1.44,1.33,2.56,2.05,3.81.7,1.22,1.59,1.78,3.12,1.9,2.25.18,4.41-.29,6.61-.41.34-.02.61-.14.74-.49.16-.42-.03-.67-.36-.91-.32-.25-.6-.56-.9-.83-1.19-1.1-1.94-2.28-1.4-4.05.39-1.3.01-2.48-1.27-3.28-.92-.57-1.76-1.28-2.63-1.93q1.66-.65,3,.16c1.01.61,2.01,1.25,2.69,2.25,1.1,1.64,2.51,2.94,4.19,3.98.84.53,1.53.53,2.31-.19,1.38-1.25,2.26-2.61,1.84-4.6-.27-1.28-.35-2.61-.46-3.92-.06-.71.1-1.38.38-2.09.74-1.9,1.29-3.87,1.93-5.8.16-.5.12-1.06.7-1.41.49-.28.12-.65-.16-.86-3.54-2.68-4.77-6.88-6.94-10.46-.41-.67-.21-1.41-.15-2.13.07-.72.12-1.44.12-2.15l-1.38-.05c0,2.05-.55,4.3-1.61,6.36-.29-.34-.52-.73-.85-.98-.32-.25-.76-.32-1.15-.06-.35.22-.5.61-.36.95.58,1.5.22,3.23,1.04,4.69.06.1.12.2.18.29,1.14-.53,1.34-1.7,1.78-2.71.2-.45.34-1.11.84-1.16.61-.07.63.66.85,1.07,1.37,2.56,2.57,5.24,5.19,6.84.36.22.38.38.19.75-2.47,4.71-2.9,9.74-2.28,14.92.05.44.04.84-.38,1.07-.49.28-.61-.21-.82-.46-2.18-2.42-4.45-4.76-6.34-7.41-.39-.55-.92-.59-1.23-.09-.43.73-.84.76-1.49.34-.33-.22-.7.04-1.03.18-.22.09-.44.16-.66.23-.56.19-1.13.31-1.72.34-1.13.05-2.17.12-3.1,1.03-.64.64-1.63.95-2.48,1.35-.51.24-1.03.53-1.23,1.03-.81,2.01-2.09,3.83-2.28,6.08-.03.35.05.59.17.88.56,1.39,1.09,2.79,1.63,4.19.08.21.07.53.22.63,1.78,1.28.72,2.85.48,4.33-.17,1.1-.4,2.19-.66,3.63-.81-1.19-1.41-2.08-2.02-2.97-.31-.45-.66-1.05-1.27-.75-.71.36-.32,1.02-.09,1.55.86,2,1.75,3.99,2.62,5.98.19.44.45.79.84,1.05.93.61,1.63.31,1.65-.8.06-3.32.49-6.6.83-10.02,1.75.54,3.33,1.57,5.14,1.94.62.13,1.23.36,1.86.13.99-.35,1.11.1.9.91-.92,3.65-.79,7.37-.75,11.2-1.57-.54-1.43-.5-1.73,1.15-.26,1.51-.6,3-.71,4.54-.05.72-.42.63-.91.28-.86-.64-1.32-1.29-.64-2.38.37-.61.54-1.34.75-2.04.09-.29.15-.66-.23-.83-.35-.16-.65.08-.8.34-.57.98-1.14,1.96-1.63,2.97-.46.94-.8,1.92-1.2,2.89-.54-.24-.55-.75-.66-1.15-.55-1.99-1.22-3.9-3.02-5.15-.14-.09-.21-.29-.28-.46-.22-.52-.34-1.35-1.06-1.16-.59.16-.32.95-.35,1.46-.03.85,0,1.69,0,2.91-2.23-2.33-4.11-4.41-5.79-6.71-1.33-1.8-2.55-3.73-4.23-5.25l-1.24.7c.88.75,1.39,1.52,1.87,2.33,1.1,1.88,2.21,3.75,3.31,5.62,1.5,2.56,3.88,4.42,5.45,6.91.22.36.52.68,1,.55.53-.13.63-.58.68-1.05.07-.64-.16-1.34.29-1.98.72.55.93,1.31,1.31,1.97.65,1.09.59,2.46,1.46,3.48.52.6.9.54,1.31,0,.44-.56.83-1.16,1.37-1.94-.08.87-.22,1.5-.17,2.12.08,1.06-.4,1.5-1.37,1.82-1.17.39-2.38.55-3.56.86-.38.09-1.09.13-.84.79.46,1.21.61,2.48,1.12,3.7l1.5-.42c-.34-.84-.28-1.32.88-1.6,4.54-1.09,9.02-2.41,13.62-3.28,3.78-.71,7.54-1.58,11.35-2.13,1.23-.17,2.32-.74,3.49-1.07,1.8-.51,3.68-.58,5.44-1.08,3.9-1.11,7.92-1.39,11.89-1.98,3.26-.48,6.6-.39,9.91-.22,3.29.16,6.58.19,9.87.36,1.34.07,2.7.2,3.99.63-.99,3.61-1.73,7.19-1.4,10.91.06.6-.38.63-.78.72-4.85,1.18-9.55,2.9-14.33,4.31-2.08.62-5.19,2.78-6.1,4.14,1.47.08,2.72-.49,4.01-.81,4.53-1.12,9.04-2.32,13.57-3.42,1.33-.32,2.64-.18,3.88.63,2.51,1.64,5.08,3.17,7.87,4.31,1.69.69,1.68,2.36,2.12,3.73,1.2,3.71,2.32,7.44,3.43,11.18,1.58,5.29,3.11,10.61,4.69,15.9,1.05,3.53,2.49,6.91,4.25,10.13.52.95.37,1.94.61,2.9.72,2.97.63,6.02.62,9.06,0,.86-.01,1.72.15,2.58.61,3.45.28,6.97.64,10.43.56,5.52-.18,11.08.6,16.57.7,4.89,1.28,9.8,2.5,14.59,1.35,5.31,2.84,10.6,4.04,15.94.81,3.58,1.22,7.25,1.8,10.87.15.94.29,1.89.42,2.83.8,5.86,1.07,11.69.22,17.6-.7,4.86-1.26,9.73-.9,14.72.41,5.78.97,11.54,1.63,17.29.14,1.2.35,2.39.55,3.67l2.35-.36c-.02-.24-.04-.49-.06-.74-.28-2.98-.38-5.98-.71-8.96-.53-4.74-.13-9.4.95-14.02.91-3.92,1.6-7.91,1.53-11.91ZM103.7,70.91c.23.29.06.49-.06.72-.83,1.63-.98,3.18.4,4.62.56.58.18.84-.39,1.01-.75.22-1.51.29-2.29.26-.63-.06-1.26-.13-1.89-.17-1.1-.07-1.76-1.24-1.12-2.15.85-1.21,1.34-2.57,1.94-3.89.78-1.71,2.26-1.87,3.41-.4Zm-3.08-2.31c.08.06.22.1.29.2.13.18.01.34-.13.46-1.35,1.11-1.84,2.74-2.55,4.23-.21.45-.33,1.32-.93,1-.59-.31-1.36-1.13-.86-1.9,1.01-1.54,2.21-2.97,3.89-3.87.08-.04.17-.07.29-.12Z"/>
    <path class="cls-2" d="m100.78,69.26c-1.35,1.11-1.84,2.74-2.55,4.23-.21.45-.33,1.32-.93,1-.59-.31-1.36-1.13-.86-1.9,1.01-1.54,2.21-2.97,3.89-3.87.08-.04.17-.07.29-.12.08.06.22.1.29.2.13.18.01.34-.13.46Z"/>
    <path class="cls-2" d="m103.65,77.26c-.75.22-1.51.29-2.29.26-.63-.06-1.26-.13-1.89-.17-1.1-.07-1.76-1.24-1.12-2.15.85-1.21,1.34-2.57,1.94-3.89.78-1.71,2.26-1.87,3.41-.4.23.29.06.49-.06.72-.83,1.63-.98,3.18.4,4.62.56.58.18.84-.39,1.01Z"/>
    <path class="cls-2" d="m164.87,65.37c-.41-1.06-.68-2.16-1.01-3.24-.85-2.78-1.6-5.59-2.73-8.28-.18-.42-.37-1.11-1.04-.58-1.47,1.17-3.19,1.92-4.68,3.02-.63.46-1.2.68-1.77-.03-.85-1.06-.86-1.94-.1-2.58,1.29-1.1,3.07-1.34,4.33-2.5.53-.5,1.62-.25,1.86-.94.24-.67-.53-1.28-.83-1.92-1.15-2.46-1.95-5.06-2.98-7.57-.65-1.58-1.53-3.07-2.05-4.68-.73-2.26-1.82-4.34-2.76-6.5-.22-.49-.48-.65-1.03-.65-3.82.02-7.47-.48-10.47-3.24-1.5-1.38-3.35-2.44-4.52-4.1-1.51-2.15-2.79-4.47-3.77-6.92-.2-.48-.44-.72-.92-.86-2.02-.61-4.2-.38-6.22-1.47.07,1.27.34,2.31.12,3.34-.22,1.04-.16,2.08-.26,3.12-.22,2.28-2.2,3.26-4.16,2.1-.83-.49-1.58-1.06-2.27-1.73-.3-.3-.5-.76-1.16-.76-.05,2.82-.68,5.51-.94,8.25-.13,1.41-.49,2.77-.88,4.12-.12.43-.3.79-.83.68-.45-.1-.76-.39-.7-.86.15-1.36-.78-2.28-1.35-3.33-.39-.72-.75-.49-1.03.12-.43.95-.89,1.89-1.27,2.86-.6,1.51-1.61,3.06.06,4.56.12.1.11.34.18.51.54,1.5.71,3.03.68,4.58,0,.71-.05,1.43-.12,2.15-.06.72-.26,1.46.15,2.13,2.17,3.58,3.4,7.78,6.94,10.46.28.21.65.58.16.86-.58.35-.54.91-.7,1.41-.64,1.93-1.19,3.9-1.93,5.8-.28.71-.44,1.38-.38,2.09.11,1.31.19,2.64.46,3.92.42,1.99-.46,3.35-1.84,4.6-.78.72-1.47.72-2.31.19-1.68-1.04-3.09-2.34-4.19-3.98-.68-1-1.68-1.64-2.69-2.25q-1.34-.81-3-.16c.87.65,1.71,1.36,2.63,1.93,1.28.8,1.66,1.98,1.27,3.28-.54,1.77.21,2.95,1.4,4.05.3.27.58.58.9.83.33.24.52.49.36.91-.13.35-.4.47-.74.49-2.2.12-4.36.59-6.61.41-1.53-.12-2.42-.68-3.12-1.9-.72-1.25-1.79-2.37-2.05-3.81-.38-2.11,1.13-4.34,3.2-5.07.44-.16.98-.18,1.31-.82-3.51-.12-5.33,1.02-6.48,3.97-.11.29-.25.58-.4.86-.48.93-.56,1.88-.18,2.89.47,1.22.91,2.46,1.33,3.71.12.35.29.51.64.58,1.05.19,1.89.9,2.87,1.21,1.54.49,2.75,2.09,4.62,1.46,1.37-.46,2.74-.39,4.16-.29,1.72.12,3.56.35,4.47-1.78.18-.41.71-1.23,1.17-.74.38.39.83,1.15.69,1.88-.21,1.05-2.1,2.56-3.17,2.81-1.4.32-2.81.21-4.2.09-.86-.08-1.03.15-1.11.97-.46,4.65-.99,9.29-.13,13.96.16.84-.15,1.9-1.21,1.65-1.27-.31-1.23.4-1.33,1.15-.06.49,0,1.01-.11,1.49-.26,1.37-1.23,1.96-2.2,1.38-1.48-.89-1.5-.88-1.55.9-.01.19,0,.37-.01.55-.05.84.19,1.18,1.09.78,1.33-.6,2.78-.84,4.19-1.18,9.07-2.22,18.12-4.51,27.27-6.42,4.58-.95,9.25-1.14,13.87-1.7,1.12-.14,2.61.81,3.23-.26.27-.47.33-1.06.33-1.68s-.06-1.31-.03-1.93c.01-.18-.02-.36-.02-.54-.02-4.49-.13-8.97.24-13.45.25-3.1.69-3.03-2.76-2.39-.18.03-.35.09-.53.1-.48.03-1.1.27-1.16-.51-.04-.59.25-1.01.94-1.11.62-.1,1.23-.31,1.84-.48,3.36-.9,6.31-2.76,9.46-4.15,2.95-1.3,5.85-2.71,8.79-4.02.89-.4,1.13-.88.78-1.8Zm-36.98-44.74c-2.66,1.48-4.22,3.72-5.05,6.61-.3,1.01-1,1.92-1.58,2.83-.45.7-1,.81-1.69.19s-1.38-1.2-1.27-2.23c-.05-1.33.83-2.22,1.58-3.09,1.71-1.99,3.51-3.92,5.64-5.49.45-.33.92-.61,1.45-.73.48-.1,1.08-.27,1.31.33.22.56.19,1.26-.39,1.58Zm8.43,16.44c.04,1.6-1.35,2.27-2.95,1.33-1.27-.74-2.21-1.86-3.04-3.07-.17-.26-.31-.55-.49-.82-1.43-2.16-1.36-2.36.77-3.85.87-.6,1.74-.57,2.38.04,1.8,1.72,3.65,3.48,3.33,6.37Z"/>
    <path class="cls-1" d="m85.03,78.57c-.04.49.03,1.13-.56,1.25-.63.13-1.01-.41-1.15-.95-.92-3.69-2.94-6.92-4.37-10.39-.15-.36-.71-.88-.13-1.16.45-.22.75.4.96.79,1.11,2.07,2.2,4.17,3.3,6.25.24.46.36,1.01,1.09,1.47.04-3.68-1.18-6.96-1.66-10.72,1.07,1.21,1.18,2.42,1.49,3.49.94,3.25,1.26,6.59,1.03,9.97Z"/>
    <path class="cls-1" d="m84.94,288.86l-2.04.5c-1.91-6.66-3.05-13.43-2.85-20.46.15-5.19.09-10.4-.08-15.6-.09-2.93.08-5.89-.16-8.81-.5-5.96-.65-11.95-1.41-17.89-.77-6.09-1.65-12.16-2.68-18.2-.45-2.68-.84-5.38-1.79-7.95-.3-.82-.21-1.68-.01-2.55.37-1.58.79-3.15,1.26-4.7l2.83.49c-.08.32-.08.65.07,1,.45,1.03.48,2.12.61,3.2.1.9.2,1.85.74,2.58.52.69.8,1.42.87,2.24.19,2.4.57,4.75,1.28,7.06.13.42.15.88.22,1.32.41,2.65.27,5.36.65,7.99.54,3.82.53,7.66,1.01,11.47.54,4.33-.45,8.67-.1,13.03.2,2.56-.16,5.15.11,7.72.21,2.03.3,4.06.18,6.09-.32,5.57-.34,11.13-.11,16.7.12,3.17.47,6.33.63,9.51.1,1.81.3,3.57.77,5.26Z"/>
    <path class="cls-1" d="m82.05,658.68c-.04.27-.3.33-.51.37-.48.09-.97.14-1.33.19-1.62-.17-3.1-.3-4.57-.5-.58-.08-1.22-.29-1.37-.84-.03-.11-.04-.22-.03-.35.06-.88.9-.85,1.58-.88,2.11-.09,3.92.94,5.84,1.54.22.07.43.19.39.47Z"/>
    <path class="cls-1" d="m136.79,9.9l-.92,1.2c-.11-.14-.3-.24-.45-.35-2.02-1.41-4.33-2.22-6.57-3.17-1.53-.64-3.2-.43-4.65-1.96-1.14-1.2-3.23-2.12-5.25-2.19-1.02-.04-1.97-.29-2.92-.62-.74-.27-1.5-.42-2.34-.42.65,1.44.38,2.09-.75,1.79-1.56-.41-3-.06-4.52.16-2.87.41-5.76.75-8.59,1.41-1.36.31-2.73.64-4.29,1.43.61.02.88.04,1.15.05.59.01,1.47-.37,1.54.56.05.78-.84.84-1.45.91-3.01.37-6.02.71-9.02,1.14-3.96.56-7.77,1.5-11.33,3.39-.82.44-1.05,1.3-1.68,1.88-.36.34.07.63.5.62.82-.01,1.64-.06,2.45-.06.4,0,1.01,0,.86.56-.23.86-.14,1.95-1.3,2.35-.77.26-1.49.67-2.24.98-.76.32-1.46.7-2.12,1.13l-.54-1.26c.77-.33,1.53-.69,2.24-1.22-.78-.26-1.4.02-2.02.04-1.5.04-2.1-.7-1.47-2.02.57-1.18,1.24-2.34,2.37-3.1,1.39-.95,2.81-1.85,4.2-2.79,2.18-1.49,4.77-1.36,7.2-1.77,2.04-.35,4.03-.99,6.11-1.17.77-.07,1.21-.75,1.87-1.07,3.87-1.87,7.92-3.07,12.22-3.39.71-.05,1.35-.01.88-1.15-.33-.77.46-1.24,1.14-1.38,1.28-.27,2.55-.54,3.9-.35,3.01.41,6.08.36,9.02,1.23,3.44,1.01,6.71,2.4,9.92,3.99,2.5,1.25,4.67,2.95,6.85,4.62Z"/>
    <path class="cls-1" d="m81.97,643.52c.03,1.35-.31,2.7-.47,4.05-.08.62-.27,1.21-.97,1.29-.77.1-.99-.58-1.14-1.13-.18-.65-.22-1.34-.29-1.87.12-.96.14-1.79.35-2.58.3-1.11-.12-1.77-1-2.39-2.41-1.7-4.42-3.87-6.53-5.92-.53-.51-.73-.6-1.17.07-.41.62-.65,1.3-.98,1.93-.27.52-.71.93-1.32.57-.57-.32-.41-.87-.15-1.32.68-1.17,1.37-2.35,2.12-3.48.36-.55.91-.69,1.55-.31,2.99,1.81,5.9,3.73,8.52,6.05,1.51,1.33,1.44,3.26,1.48,5.04Z"/>
    <path class="cls-1" d="m80.38,45.53c-.4.6-.84,1.18-1.25,1.78-1.23,1.84-1.33,3.91-1.26,6.02.03.93.32,2.21-.6,2.61-1.03.45-1.9-.61-2.68-1.26-1.63-1.34-2.73-3.03-3.02-5.16-.11-.82-.39-1.04-1.08-.4-.83.78-1.76,1.45-2.58,2.23-.48.46-1,.56-1.61.52-.75-.05-.98-.41-.67-1.08,2.11-4.53,4.19-9.07,7.4-12.97.4-.48.88-1.4,1.56-.92.51.37-.14,1.15-.44,1.68-1.55,2.77-3.14,5.53-4.71,8.29-.26.46-.63.89-.67,1.63,2.58-1.59,4.19-4.42,7.48-5.31-.47,1.35-1.41,1.87-2.14,2.56-1.62,1.53-1.71,1.54-.81,3.54.65,1.45,1.21,3.01,2.79,4.33,0-.7.02-1.06,0-1.42-.18-3.1,1.85-5.08,3.64-7.18.19-.21.47-.55.8-.22.23.24,0,.52-.15.73Z"/>
    <path class="cls-1" d="m62.26,620.81c-.67,1.09-1.63,1.89-2.66,2.63.67-1.09,1.65-1.87,2.66-2.63Z"/>
    <path class="cls-1" d="m63.33,614.04c-.24.99-1,1.6-1.63,2.31-1.25,1.38-2.49,2.76-3.76,4.12-.34.35-.72.69-1.19.8-.41-.13-.78-.27-1.06-.5-.09-.08-.18-.17-.25-.28-.24-.36-.02-.7.22-.99,1.98-2.39,4.12-4.6,6.82-6.18.18-.11.38-.29.59-.29.09,0,.18.03.27.11.27.26.06.6-.01.9Z"/>
    <path class="cls-2" d="m135.87,11.1c-.11-.14-.3-.24-.45-.35-2.02-1.41-4.33-2.22-6.57-3.17-1.53-.64-3.2-.43-4.65-1.96-1.14-1.2-3.23-2.12-5.25-2.19-1.02-.04-1.97-.29-2.92-.62-.74-.27-1.5-.42-2.34-.42.65,1.44.38,2.09-.75,1.79-1.56-.41-3-.06-4.52.16-2.87.41-5.76.75-8.59,1.41-1.36.31-2.73.64-4.29,1.43.61.02.88.04,1.15.05.59.01,1.47-.37,1.54.56.05.78-.84.84-1.45.91-3.01.37-6.02.71-9.02,1.14-3.96.56-7.77,1.5-11.33,3.39-.82.44-1.05,1.3-1.68,1.88-.36.34.07.63.5.62.82-.01,1.64-.06,2.45-.06.4,0,1.01,0,.86.56-.23.86-.14,1.95-1.3,2.35-.77.26-1.49.67-2.24.98-.76.32-1.46.7-2.12,1.13-1.98,1.3-3.57,3.05-5.11,4.87-.29.34-.43.97-.96.75-.45-.18-.61-.76-.53-1.28.13-.88.2-1.78.57-2.63-1.05.72-1.84,1.58-2.3,2.77-.63,1.64-1.37,3.14-3.1,4.08-1.75.95-3.17,2.43-4.29,4.13.54-.1.99-.29,1.44-.48,1.56-.68,3.21-.97,4.89-1.11.42-.04.99-.11,1.1.51.1.53-.32.83-.74,1.01-.37.16-.79.3-1.18.3-2.2.02-3.53,1.11-4.09,3.2-.39,1.41-1.67,2.32-2.28,3.92,3.54-.85,6.86-1.65,10.18-2.45.04.12.07.25.11.37-1.08.75-1.9,1.89-3.36,2.1-.33.05-.71.29-.91.55-.95,1.27-1.96,2.51-2.75,3.89-1.89,3.31-2.24,7.06-2.69,10.75-.47,3.8.39,7.43,1.51,11.13.53-.5.54-1.07.73-1.57.24-.63.45-1.29.88-1.83.23-.28.53-.58.93-.38.41.2.31.59.19.95-.05.17-.13.34-.18.51-.89,3.32-.92,3.35,1.11,5.98.97,1.26,1.79,2.67,3.33,3.9-.38-1.32-.67-2.31-.95-3.3-.13-.45-.59-1.03.05-1.32.73-.32,1.05.34,1.28.89,1.36,3.23,3.57,5.97,5.38,8.92,1.55,2.52,3.18,4.97,4.34,7.7.08.19.12.44.56.5-.01-2.14-.19-4.23-.79-6.26-.56-1.87-1.08-3.74-1.37-5.67-.05-.32-.12-.68.23-.85.42-.21.69.12.9.4.15.22.21.5.29.76.92,3.13,2.12,6.18,2.34,9.48.03.54.28.97.69,1.28.26.2.51.41.75.62,1.68,1.52,2.9,3.45,4.23,5.25,1.68,2.3,3.56,4.38,5.79,6.71,0-1.22-.02-2.06.01-2.91.03-.51-.24-1.3.35-1.46.72-.19.84.64,1.06,1.16.07.17.14.37.28.46,1.8,1.25,2.47,3.16,3.02,5.15.11.4.12.91.66,1.15.4-.97.74-1.95,1.2-2.89.49-1.01,1.06-1.99,1.63-2.97.15-.26.45-.5.8-.34.38.17.32.54.23.83-.21.7-.38,1.43-.75,2.04-.68,1.09-.22,1.74.64,2.38.49.35.86.44.91-.28.11-1.54.45-3.03.71-4.54.3-1.65.16-1.69,1.73-1.15-.04-3.83-.17-7.55.75-11.2.21-.81.09-1.26-.9-.91-.63.23-1.24,0-1.86-.13-1.81-.37-3.39-1.4-5.14-1.94-.34,3.42-.77,6.7-.83,10.02-.02,1.11-.72,1.41-1.65.8-.39-.26-.65-.61-.84-1.05-.87-1.99-1.76-3.98-2.62-5.98-.23-.53-.62-1.19.09-1.55.61-.3.96.3,1.27.75.61.89,1.21,1.78,2.02,2.97.26-1.44.49-2.53.66-3.63.24-1.48,1.3-3.05-.48-4.33-.15-.1-.14-.42-.22-.63-.54-1.4-1.07-2.8-1.63-4.19-.12-.29-.2-.53-.17-.88.19-2.25,1.47-4.07,2.28-6.08.2-.5.72-.79,1.23-1.03.85-.4,1.84-.71,2.48-1.35.93-.91,1.97-.98,3.1-1.03.59-.03,1.16-.15,1.72-.34.22-.07.44-.14.66-.23.33-.14.7-.4,1.03-.18.65.42,1.06.39,1.49-.34.31-.5.84-.46,1.23.09,1.89,2.65,4.16,4.99,6.34,7.41.21.25.33.74.82.46.42-.23.43-.63.38-1.07-.62-5.18-.19-10.21,2.28-14.92.19-.37.17-.53-.19-.75-2.62-1.6-3.82-4.28-5.19-6.84-.22-.41-.24-1.14-.85-1.07-.5.05-.64.71-.84,1.16-.44,1.01-.64,2.18-1.78,2.71-.06-.09-.12-.19-.18-.29-.82-1.46-.46-3.19-1.04-4.69-.14-.34.01-.73.36-.95.39-.26.83-.19,1.15.06.33.25.56.64.85.98,1.06-2.06,1.61-4.31,1.61-6.36,0-1.6-.33-3.08-.99-4.28-.27.25-.16.59-.2.89-.21,1.85-.4,3.7-1,5.47-.21.6-.53,1.31-1.25,1.25-.61-.05-.63-.8-.79-1.31-.06-.17-.06-.36-.09-.53-.43-2.29-1.02-4.5-2.22-6.54-1.1-1.88-1.94-3.9-3.22-5.68-.23-.3-.4-.88.04-.85.69.04,1.73-.17,2.04.65.65,1.71,1.86,3.11,2.48,4.83.29.82.53,1.69,1.07,2.4.35-.21.31-.47.31-.67-.03-2.1.87-3.98,1.54-5.87.53-1.49,1.11-3.07,2.23-4.31.52-.58,1.01-1.1.46-2.01-.2-.34-.28-1.19.38-1.4.56-.18.86.4,1.12.82.38.62.71,1.27,1.11,1.87.55.85,1.14,1.67,1.72,2.49.29-1.42.3-2.72.29-4.03-.02-3.31-.04-6.63-.05-9.94,0-.39-.08-.94.41-1.04.56-.11.53.5.7.84.12.24.19.53.37.71,1.72,1.68,3.33,3.48,5.2,5,.25.2.52.48.84.34.31-.13.35-.52.36-.84,0-.31-.05-.63-.11-.94-.3-1.61-.45-3.21.37-4.75.23-.44.24-.99-.17-1.4-.32-.32-.66-.62-1.01-.91-.27-.23-.45-.51-.27-.82.17-.28.48-.17.75-.1.84.21,1.65.42,2.41.89,1.04.64,2.16,1.52,3.35,1.37,2.67-.33,5.24.35,7.85.4.34,0,.78.24.94-.26.07-.21.02-.36-.09-.48Zm-58,42.23c.03.93.32,2.21-.6,2.61-1.03.45-1.9-.61-2.68-1.26-1.63-1.34-2.73-3.03-3.02-5.16-.11-.82-.39-1.04-1.08-.4-.83.78-1.76,1.45-2.58,2.23-.48.46-1,.56-1.61.52-.75-.05-.98-.41-.67-1.08,2.11-4.53,4.19-9.07,7.4-12.97.4-.48.88-1.4,1.56-.92.51.37-.14,1.15-.44,1.68-1.55,2.77-3.14,5.53-4.71,8.29-.26.46-.63.89-.67,1.63,2.58-1.59,4.19-4.42,7.48-5.31-.47,1.35-1.41,1.87-2.14,2.56-1.62,1.53-1.71,1.54-.81,3.54.65,1.45,1.21,3.01,2.79,4.33,0-.7.02-1.06,0-1.42-.18-3.1,1.85-5.08,3.64-7.18.19-.21.47-.55.8-.22.23.24,0,.52-.15.73-.4.6-.84,1.18-1.25,1.78-1.23,1.84-1.33,3.91-1.26,6.02Zm7.16,25.24c-.04.49.03,1.13-.56,1.25-.63.13-1.01-.41-1.15-.95-.92-3.69-2.94-6.92-4.37-10.39-.15-.36-.71-.88-.13-1.16.45-.22.75.4.96.79,1.11,2.07,2.2,4.17,3.3,6.25.24.46.36,1.01,1.09,1.47.04-3.68-1.18-6.96-1.66-10.72,1.07,1.21,1.18,2.42,1.49,3.49.94,3.25,1.26,6.59,1.03,9.97Zm4.75-15.08c-.31,1.1-.73,1.11-1.48.49-2.93-2.4-4.86-5.45-5.91-9.08-.07-.22-.09-.44-.13-.67-.07-.43-.06-.89.41-1.03.55-.17.74.27.96.71,1.24,2.36,2.52,4.71,3.8,7.06.15.27.29.57.79.64-.19-3.03-.39-5.96-.54-8.9-.04-.77.04-1.54.12-2.3.04-.4.14-.92.63-.93.51-.01.57.51.62.91.25,1.8.59,3.59.71,5.39.17,2.56.74,5.12.02,7.71Zm3.17-17.55c-.15.38-.28.78-.63,1.02-.6.41-1.11.9-1.37-.4-.51-2.59-1.52-5.03-2.76-7.37-.19-.36-.66-.81-.05-1.15.46-.25.88.06,1.14.48.83,1.3,1.63,2.6,2.61,4.18v-7.67c0-.36-.05-.73-.03-1.09.02-.37-.19-.92.41-.99.6-.08.88.36.97.91.19,1.12.4,2.24.55,3.36.4,2.97.3,5.89-.84,8.72Zm6.43,5.27c.42-.09.59.31.82.6,1.14,1.48,1.6,3.2,1.8,5.02.04.3-.02.64.32.97,1.55-1.81,1.64-4.1,2.3-6.31.83.88.72,1.8.57,2.66-.57,3.27-1.79,6.26-3.9,8.87-.3.37-.53.55-.75.55-.27,0-.5-.26-.81-.76-.72-1.21-.1-2.41-.08-3.59.03-2.1-.22-4.15-.59-6.2-.05-.26-.1-.53-.11-.8-.02-.41-.1-.89.43-1.01Z"/>
    <path class="cls-1" d="m79.1,87.78l-1.24.7c-.21.99-.09,1.87-.42,2.66-.26.62-.33,1.38-1.22,1.44-.8.05-1.09-.58-1.38-1.13-1.2-2.29-2.34-4.62-3.57-6.89-1.06-1.94-2.33-3.76-3.26-5.86-.82.64-.57,1.37-.49,2.06.07.69.47,1.62-.45,1.91-1.02.31-1.36-.65-1.66-1.42-1.27-3.24-2.9-6.32-4.46-9.44-.29-.59-.64-1.16-1.27-1.67-.11.33-.19.53-.24.74-.12.5-.02,1.25-.72,1.28-.64.03-.79-.68-.98-1.17-1.88-4.69-2.67-9.57-2.94-14.59-.21-3.86.39-7.5,1.74-11.08.36-.94.91-1.77,1.59-2.75-1.2,0-2.25.03-3.29,0-1.19-.04-1.39-.36-.8-1.38.78-1.37,1.64-2.69,2.43-4.06.24-.41.57-.82.49-1.48-.69.25-1.16.72-1.64,1.17-.39.37-.82.89-1.39.46-.53-.39-.28-.98-.09-1.5,1.37-3.8,3.78-6.79,7.12-9.01.86-.57,1.53-1.25,2.08-2.1,1.04-1.61,2.27-3.06,3.69-4.36.64-.58,1.28-1.11,2.21-1.21.39-.04.77-.38,1.15-.09.53.4-.1.81-.05,1.44.76-.4,1.55-.69,2.32-1.02l.54,1.26c-1.98,1.3-3.57,3.05-5.11,4.87-.29.34-.43.97-.96.75-.45-.18-.61-.76-.53-1.28.13-.88.2-1.78.57-2.63-1.05.72-1.84,1.58-2.3,2.77-.63,1.64-1.37,3.14-3.1,4.08-1.75.95-3.17,2.43-4.29,4.13.54-.1.99-.29,1.44-.48,1.56-.68,3.21-.97,4.89-1.11.42-.04.99-.11,1.1.51.1.53-.32.83-.74,1.01-.37.16-.79.3-1.18.3-2.2.02-3.53,1.11-4.09,3.2-.39,1.41-1.67,2.32-2.28,3.92,3.54-.85,6.86-1.65,10.18-2.45.04.12.07.25.11.37-1.08.75-1.9,1.89-3.36,2.1-.33.05-.71.29-.91.55-.95,1.27-1.96,2.51-2.75,3.89-1.89,3.31-2.24,7.06-2.69,10.75-.47,3.8.39,7.43,1.51,11.13.53-.5.54-1.07.73-1.57.24-.63.45-1.29.88-1.83.23-.28.53-.58.93-.38.41.2.31.59.19.95-.05.17-.13.34-.18.51-.89,3.32-.92,3.35,1.11,5.98.97,1.26,1.79,2.67,3.33,3.9-.38-1.32-.67-2.31-.95-3.3-.13-.45-.59-1.03.05-1.32.73-.32,1.05.34,1.28.89,1.36,3.23,3.57,5.97,5.38,8.92,1.55,2.52,3.18,4.97,4.34,7.7.08.19.12.44.56.5-.01-2.14-.19-4.23-.79-6.26-.56-1.87-1.08-3.74-1.37-5.67-.05-.32-.12-.68.23-.85.42-.21.69.12.9.4.15.22.21.5.29.76.92,3.13,2.12,6.18,2.34,9.48.03.54.28.97.69,1.28.26.2.51.41.75.62Z"/>
    <path class="cls-1" d="m59.35,610.98c-1.52,2.1-3.35,3.93-5.05,5.88-.12.13-.3.19-.4.25-.43.01-.55-.22-.55-.52-.01-.42.1-.84.42-1.11,1.79-1.49,3.21-3.33,4.84-4.97.22-.22.47-.56.8-.35.39.23.12.58-.06.82Z"/>
    <path class="cls-1" d="m202.85,480.6c-.31-4.25-.63-8.51-.48-12.77.06-1.75-.64-3.41-.38-5.12.14-.94.01-1.78-.19-2.67-.53-2.32-1.73-4.38-2.48-6.6-1.31-3.91-2.27-7.96-3.83-11.76-.9-2.22-1.74-4.42-2.33-6.72-.16-.62-.54-1.12-1.15-1.54-.04.09-.08.17-.12.26h0c-1.64,3.72-3.33,7.34-4.32,11.25-.79,3.15-1.25,6.37-2.25,9.47-.2.63-.43,1.13-1.34.86-.98-.29-.44-.84-.33-1.26,1.8-6.63,3.65-13.25,5.43-19.89.22-.82.43-1.62.77-2.37,0-.02.01-.04.03-.07.34-.75.8-1.44,1.49-2.02.26-.22.49-.57.57-.91,1-4.3,3.06-8.22,4.51-12.37,1.54-4.41,2.73-8.93,3.85-13.47.36-1.48,1.09-2.87,1.14-4.43.21-7.05-.84-14.03-1.19-21.05-.21-4.18-.55-8.34-.78-12.51-.05-1.01-.04-1.38.4-1.38l.55-1.67c-6.24-2.11-12.55-3.91-19.1-4.76-.64-.08-1.54.68-1.89-.38-.48-1.45-1.25-2.93-.7-4.48.25-.72,1.23-.92,1.98-.95.49-.02.33.55.28.89-.14.98-.34,1.96-.45,2.95-.04.41-.19,1.04.44,1.12.62.07.68-.56.71-.98.21-3.01.81-6,.57-9.41-.43,1.66-.77,2.99-1.11,4.31-.33-2.07.57-4.32-1.48-6.25-.01,1.08.86,1.72.4,2.68-.61-.66-.89-1.44-1.04-2.24-.17-.98-.33-1.96-.57-2.93-.3-1.2.52-2.09,1.73-1.93,5.3.71,10.61,1.27,15.89,2.18.3.05.59.12.87.2l.4-1.51c-2.48-.65-4.96-1.32-7.5-1.73-3.54-.57-7.07-1.22-10.54-2.13-.52-.14-1.12-.28-1.61-.15-1.81.44-2.65-.75-3.56-1.92-.12-.15-.12-.27-.09-.37h-.8c-.05.27-.25.42-.57.52-1.98.67-3.97,1.23-6.11,1.13-1.07-.05-2.18.1-3.24.32-3.1.68-6.18,1.47-9.27,2.15-1.23.27-2.52-.04-3.75.39-.34.12-.53-.12-.67-.39l-1.48.79c.74,0,.52.73.54,1.71.04,1.82.77,3.51,1.27,5.25t-.02-.01c1.36,3.82,2.72,7.63,4.08,11.44.25.71.66,1.29,1.49,1.75-2.29.21-4.42-.13-6.55-.13-3,0-6.03-.41-8.98-.06-1.77.21-3.53.63-5.33.56-4.63-.18-9.25.13-13.86.46-4.55.32-9.12.69-13.65,1.32-3.18.44-6.4.48-9.61.57-1.8.05-3.6.22-5.39.44-.78.1-1.12-.08-1.12-.87-.02-3.22-.01-6.42.42-9.63.32-2.48.8-4.92,1.18-7.39.13-.86.54-1.22,1.38-1.36,3.22-.54,6.43-1.15,9.69-1.47,3.38-.33,6.67-1.25,10.04-1.66l-.26-2.14c-.69.07-1.38.16-2.07.25-5.54.72-11,1.93-16.57,2.39-.72.06-1.42.2-2.12.45-1.13.41-2.23.46-3.32-.31-.65-.46-.92-.94-.84-1.69.15-1.37.29-2.73.45-4.09l-1.44-.17c-.17,1.45-.34,2.91-.5,4.36-.11.99.29,2.05.99,2.41,1.17.61.93,1.35.75,2.25-.09.44-.14.89-.19,1.34-.68,5.66-.32,11.33-.26,17,.02,1.83,1.19,2.97,3.01,2.92,1.32-.04,2.63-.1,3.94-.22,1.04-.09,1.67.22,1.72,1.35.03.41.1.97.51,1.05,1.05.19,1.01,1.02,1.16,1.74.79,3.73,1.56,7.47,2.37,11.19,1.31,5.98,3.05,11.85,4.81,17.71,1.31,4.38,2.64,8.76,4.23,13.05.25.68.58,1.41.54,2.1-.23,3.55-.28,7.15-.93,10.63-.84,4.54-.96,9.14-1.62,13.68-.5,3.42-.89,6.89-1.11,10.36-.16,2.6-.59,5.18-.83,7.78-.43,4.67-.99,9.33-1.52,13.99-.39,3.5-.67,7.02-1.16,10.51-.62,4.42-.8,8.91-1.44,13.32-.48,3.31-.81,6.63-1.06,9.94-.3,3.96-1.18,7.83-1.29,11.81-.08,2.79-.72,5.56-1.1,8.34-.14,1.04-.37,2.42.53,2.91,1.2.66.8,1.39.68,2.22-.09.63-.2,1.25-.3,1.88-.64,3.89-1.49,7.76-1.83,11.67-.37,4.14-2.07,7.04-5.83,8.93-3.52,1.76-6.96,3.74-10.28,5.85-4.32,2.76-8.82,5.2-13.2,7.85-1.39.84-2.98,1.42-3.43,3.35-.9,3.8-2.19,7.58.33,11.26.43.63.34,1.11-.14,1.72-.87-1.06-1.78-1.86-2.34-3.09-.75-1.66-1.74-3.38-4.38-3.22,1.08.98.65,1.4-.3,1.7-.43.14-.48.63-.64,1-.85,1.82-1.39,3.75-1.94,5.67-1.06,3.7-2.8,7.2-3.18,11.09-.04.41-.24.66-.6.83-.99.49-1,1.15-.4,1.98.21.31.78.64.44,1.03-1.24,1.4-.08,1.7.88,2.18,1.27.62,1.41.71.71,1.5l.82.75c.13-.13.25-.26.37-.4.52-.6.88-.53,1.39.04,2.65,3.04,5.27,6.12,8.05,9.04.3.31.59.63.87.95,2,2.25,3.79,4.68,6.01,6.74,1.14,1.05,1.1,1.3-.09,2.35l1.46.53c.15-.24.31-.44.65-.35.46.11,2.36,2.44,2.33,2.98-.17.48-.53.84-.93,1.18l1.59.2c.21-.17.42-.33.67-.46.63.3,1.28.54,1.84.91.42.27.13.54-.22.66-.92.33-1.45,1.04-1.82,1.9-.19.43-.39.57-.59.57l2.13.95s.05-.08.08-.12c.54-.73,1.14-1.41,1.58-2.2.34-.6.64-.31.86.14.37.77-1.08,3-2,3l2.11,1.09c.2-.4.54-.75.95-.89.58-.2.8.47,1.09.83.19.23.26.57.33.87.36,1.5,1.79,1.79,2.83,2.52.08.06.33-.09.47-.19,1.23-.86,2.49-1.7,3.69-2.6.85-.64,1.06.1,1.27.58.59,1.37,1.05,2.79,1.63,4.17,1.76,4.21,3.58,8.4,5.8,12.41.23.43.5.87.82,1.24.34.37.51.72.3,1.22-.42,1.01.01,1.55,1.03,1.68.69.09,1.15.23,1.18,1.12.03.83.65.76,1.31.57,1.93-.56,2.29-.64,2.29.74l1.06.02c.03-1.99.38-1.92,3.06-1.67,3.73.34,7.46.67,11.19.98,3.08.26,6.16.52,9.24.76,1.07.09,1.5.41,1.48,1.29l1.5.06c0-1.04.33-1.11,1.73-.86.31.05.62.16.92.13,1-.11,1.43.31,1.35,1.3l1.21.04c.01-.4.04-.71.12-.81.52-.71,1.38-.82,2.16-.91.25-.03.33.07.33.22h1.59c-.07-.47.34-.39.69-.28,1.1.37.83,1.36,1.01,2.19l1.96-.08c0-.44.09-.79.83-.69.31.03.67,0,.93.16,1.11.65,2.1.88,3.48.4,1.51-.52,3.23.12,4.85.25,2.15.16,3.7-1.04,4.14-3.18.65-3.16.85-6.37,1.21-9.57.2-1.75.17-3.53.08-5.3-.03-.81-.34-1.54.16-2.36.4-.65-.07-1.04-.78-1.23-1.01-.26-1.98.09-2.97.1-3.59.03-7.17-.14-10.75-.39-1.38-.1-2.8.34-4.51-.6,1.07-.07,1.49-.83,2.23-.72,2.58.36,5.15.2,7.73-.02.47-.04.99.11,1.45.27,2.14.73,2.58.46,2.25-1.81-.93-6.35-.88-12.75-.97-19.13-.04-2.71.34-5.41.59-8.12.44-4.77.77-9.57.95-14.36.24-6.54,2.24-12.84,2.31-19.41.03-2.64.57-5.31,1.16-7.93.19-.86.65-1.92.18-2.65-.72-1.14-.59-2.25-.49-3.42.03-.42.09-.72.1-1.18h0c.01-.16.01-.34,0-.54-.03-.83-.16-1.43-.21-1.66-.45-2.19-.92-5.66-.09-7.99.21-.59.3-1.25.3-1.87.01-7.09.44-14.16,1.4-21.18.31-2.28.82-4.53,1.27-6.79.08-.38.19-1.13.81-.6.37.31.81.81.63,1.53-.89,3.76-.97,7.59-.87,11.43,0,.16-.06.35-.15.48-.76,1.05-.74,2.3-.85,3.5-.16,1.67,0,3.39-.35,5-.35,1.58-.11,3.16-.34,4.75-.45,3.17-.36,6.49.28,9.97.13-.39.19-.54.24-.7.92-3.37,2.43-6.53,3.52-9.85.87-2.65,2.02-5.19,2.94-7.82.98-2.8,1.74-5.74,3.53-8.19,2.32-3.19,4.76-6.31,7-9.56,3.21-4.66,6.38-9.36,9.39-14.16,1.09-1.73,2.63-3.04,3.7-4.71,2.55-3.97,5.23-7.83,8.04-11.63,1.37-1.85,2.57-3.94,2.38-6.53Zm-144.4,108.05c-.13.27-.17.67-.59.65-.37-.03-.44-.42-.63-.66-.23-.29-.35-.64-.27-1.01.44-2.07.66-4.2,1.5-6.17.23-.53.3-1.44,1.16-1.21.74.19.52,1.04.66,1.82-.64,2.07-.81,4.44-1.83,6.58Zm43.08,31.73c.31.48.66.91.07,1.4-.57.47-1.11.18-1.43-.25-2.01-2.71-4.81-4.82-6.18-8.03-.23-.55-.46-1,.34-1.29.16.1.34.15.45.27,2.36,2.54,4.84,4.97,6.75,7.9Zm-8.82-10.5c-.62-.07-.61-.58-.57-1.05.3-3.34.6-6.68.91-10.02.23-2.53.47-5.06.69-7.59.4-4.65.79-9.3,1.19-13.95.42-4.7.86-9.4,1.26-14.1.07-.86.18-1.7.47-2.71.59,1.67.65,3.28.53,4.8-.59,7.64-1.35,15.27-2.02,22.9-.58,6.73-1.13,13.46-1.7,20.2-.02.22-.03.45-.08.67-.1.38-.1.9-.68.85Zm7.25,33.17c-.33.17-.5-.08-.63-.33-1.08-2.2-2.15-4.39-3.22-6.59-.19-.4-.25-.79.18-1.08.26-.18.59-.15.72.1.84,1.63,2.25,2.96,2.59,4.86.03.13.01.27.01.35-.23.79.32,1.33.46,1.98.06.27.21.55-.11.71Zm7.2-9.67c-.52.4-1.09.35-2.05.18-3.32-.24-7.03-.5-10.73-.76-.48-.03-.99-.11-1.05-.65-.06-.51.41-.63.84-.67.41-.03.55-.28.49-.65-.2-1.07.46-1.15,1.22-1.02,1.04.17,1.98.62,2.95,1.04,1.37.59,2.98,1.11,4.55,1.07,1.31-.03,2.45.6,3.72.6.24.01.45.12.47.4.01.27-.23.32-.41.46Zm16.05-206.3c-.4,3.35-.87,6.7-1.19,10.06-.47,4.73-1.88,9.28-2.72,13.94-.35,1.96-.65,3.92-.97,5.89-.05.36-.13.71-.39.99-.18.2-.38.42-.68.24-.21-.12-.35-.36-.27-.58.48-1.26.08-2.59.42-3.89,1.47-5.57,1.86-11.33,2.78-17,.33-1.96.43-3.97.87-5.9.56-2.42-.16-4.56-1.04-6.71-.22-.53-.39-1.09-.69-1.91,1.7,1.27,2.1,3.3,3.77,4.23.12.07.13.43.11.64Zm26.86,227.98c1.62,0,3.25-.03,4.88,0,.79.02.87-.49.91-1.04.03-.36-.06-.72-.02-1.07.04-.42.16-.83.72-.81.47.02.71.32.85.75.55,1.69-.47,3.22-2.24,3.3-.67.04-1.36.01-2.04.01-1.08-.01-2.17.04-3.25-.2-.39-.09-.74-.29-.68-.7.08-.58.54-.25.87-.24Zm1.77-309.38c-.51-1.46-.03-2.73.19-4.07.12-.75.88-.74,1.44-.74,2.72-.02,5.18-1.12,7.77-1.71,3.95-.89,7.92-1.79,12.01-1.75.79.01,1.1.27,1.22,1.08.31,2.05.74,4.08,1.16,6.37-1.15-.78-1.17-1.8-1.44-2.69-.12-.39-.2-.92-.71-.84-.58.09-.36.62-.3,1,.17,1.08.42,2.15.52,3.23.1,1.11.96,1.38,1.71,1.31,1.59-.15.92,1.2,1.27,1.79.31.55.15,1.29-.78,1.55-5.15,1.47-10.16,3.34-15.18,5.19-1.19.43-2.4.81-3.7.83-.68,0-1.07-.15-1.33-.82-1.26-3.25-2.69-6.44-3.85-9.73Zm29.91,23.02c-.95,4.28-2.01,8.54-2.7,12.86-.25,1.55-1.05,2.23-2.1,3-3.81,2.78-7.63,5.56-11.38,8.41-1.07.81-2.1.63-2.97.06-1.85-1.23-3.58-2.64-5.35-3.98-.41-.32-.61-.77-.65-.96.05-1.61.47-2.83.99-3.97,1.13-2.48,1.46-5.21,2.62-7.69,2.15-4.58,3.12-9.54,4.4-14.39.13-.48.21-1.03-.5-1.2-.74-.17-1.39-.01-1.72.71-.35.78-.69,1.59-.85,2.43-.6,3.2-1.77,6.23-2.66,9.35-.3,1.06-.78,1.39-1.66.59-.63-.58-1.95-.09-2.13-1.14-.14-.81.18-1.69.32-2.54.42-2.6.89-5.15,2.37-7.45.63-.98.98-2.25,1.1-3.43.08-.81.41-1.04.99-1.15,5.3-.96,10.31-2.87,15.35-4.66.84-.3,1.06-.17,1.16.75.35,3.3,1.21,6.52,2.31,9.63.46,1.28,1.6,2.36,2.59,3.39.44.47.6.78.47,1.38Z"/>
    <path class="cls-2" d="m144.16,658.69c-.04.34-.08.69-.13,1.05-.05.4-.33.5-.68.49-.33,0-.47-.22-.48-.52-.06-.95-.11-1.88-.38-2.81,0-.04-.02-.09-.03-.12-.07-.47.34-.39.69-.28,1.1.37.83,1.36,1.01,2.19Z"/>
    <path class="cls-2" d="m137.05,658.24c-.03.36-.03.72-.06,1.08-.19,2.27-.55,2.69-2.74,3.14-.73.15-1.13-.12-1.11-.9.01-.59,0-1.17,0-1.76h-.06c0-.49.03-.99,0-1.48-.02-.25-.03-.47-.03-.65,0-1.04.33-1.11,1.73-.86.31.05.62.16.92.13,1-.11,1.43.31,1.35,1.3Z"/>
    <path class="cls-2" d="m155.18,656.19c-.67.04-1.36.01-2.04.01-1.08-.01-2.17.04-3.25-.2-.39-.09-.74-.29-.68-.7.08-.58.54-.25.87-.24,1.62,0,3.25-.03,4.88,0,.79.02.87-.49.91-1.04.03-.36-.06-.72-.02-1.07.04-.42.16-.83.72-.81.47.02.71.32.85.75.55,1.69-.47,3.22-2.24,3.3Z"/>
    <path class="cls-2" d="m140.73,657.24c-.35.64-.32,1.32-.19,1.99.24,1.31-.13,1.79-1.6,1.78,0,0-.19,0-.33-.09-.18-.11-.35-1.65-.34-2.64.01-.4.04-.71.12-.81.52-.71,1.38-.82,2.16-.91.25-.03.33.07.33.22,0,.14-.08.33-.15.46Z"/>
    <path class="cls-2" d="m181.76,368.7c-.95,4.28-2.01,8.54-2.7,12.86-.25,1.55-1.05,2.23-2.1,3-3.81,2.78-7.63,5.56-11.38,8.41-1.07.81-2.1.63-2.97.06-1.85-1.23-3.58-2.64-5.35-3.98-.41-.32-.61-.77-.65-.96.05-1.61.47-2.83.99-3.97,1.13-2.48,1.46-5.21,2.62-7.69,2.15-4.58,3.12-9.54,4.4-14.39.13-.48.21-1.03-.5-1.2-.74-.17-1.39-.01-1.72.71-.35.78-.69,1.59-.85,2.43-.6,3.2-1.77,6.23-2.66,9.35-.3,1.06-.78,1.39-1.66.59-.63-.58-1.95-.09-2.13-1.14-.14-.81.18-1.69.32-2.54.42-2.6.89-5.15,2.37-7.45.63-.98.98-2.25,1.1-3.43.08-.81.41-1.04.99-1.15,5.3-.96,10.31-2.87,15.35-4.66.84-.3,1.06-.17,1.16.75.35,3.3,1.21,6.52,2.31,9.63.46,1.28,1.6,2.36,2.59,3.39.44.47.6.78.47,1.38Z"/>
    <path class="cls-2" d="m206.8,346.06c-1.34-.77-2.74-1.39-4.19-1.87-1.93-.65-3.65-1.76-5.65-2.31-.28-.08-.57-.15-.87-.2-5.28-.91-10.59-1.47-15.89-2.18-1.21-.16-2.03.73-1.73,1.93.24.97.4,1.95.57,2.93.15.8.43,1.58,1.04,2.24.46-.96-.41-1.6-.4-2.68,2.05,1.93,1.15,4.18,1.48,6.25.34-1.32.68-2.65,1.11-4.31.24,3.41-.36,6.4-.57,9.41-.03.42-.09,1.05-.71.98-.63-.08-.48-.71-.44-1.12.11-.99.31-1.97.45-2.95.05-.34.21-.91-.28-.89-.75.03-1.73.23-1.98.95-.55,1.55.22,3.03.7,4.48.35,1.06,1.25.3,1.89.38,6.55.85,12.86,2.65,19.1,4.76.02.01.04.01.06.02,1.55.52,2.66.22,3.09-1.17,1.34-4.33,2.63-8.67,3.94-13,.22-.74.05-1.2-.72-1.65Zm-22.06,5.47c-.02.23-.05.46-.13.67-.2.52-.48,1.11-1.12.95-.57-.15-.33-.77-.26-1.19.37-2.32.78-4.64,1.17-6.96.06-.36.12-.84.57-.76s.32.57.35.93c-.19,2.12-.38,4.24-.58,6.36Zm9.03-3.47c-.51,3.1-1.01,6.2-2.16,9.15.17-1.25-.11-2.46-.08-3.66.01-.6-.13-1.19-.71-1.33-.76-.17-.81.61-.94,1.07-.18.6-.19,1.25-.29,1.88-.06.35-.12.75-.56.85-.5.11-.53-.35-.73-.63-.45-.62-.55-1.26-.41-2.03.41-2.27.74-4.56,1.35-6.79.09-.34.12-.89.52-.86.57.05.35.64.34,1-.03,1.13-.13,2.26-.15,3.39-.01.39-.33.98.42,1.07.58.07.93-.19,1.14-.74.34-.89.73-1.76,1.11-2.63.14-.32.29-.75.74-.64.43.1.47.55.41.9Zm4.72-.63c0,.23-.03.45-.05.68h.03c-.15,1.57-.63,3.2-.36,4.7.34,1.85-.46,3.44-.56,5.16-.03.58-.12,1.31-.94,1.21-.77-.09-.74-.8-.67-1.39.07-.54.27-1-.49-1.29-.4-.15-.2-.74-.12-1.13.51-2.57,1.04-5.14,1.56-7.71.05-.22.13-.44.26-.62.25-.34.37-.96.95-.79.55.17.39.74.39,1.18Zm3.8,2.45c-.5,2.02-1.15,3.98-2.49,5.79-.43-.81-.06-1.34.14-1.85.52-1.29.47-2.75,1.23-3.97.16-.27.32-.58.7-.55.32.03.49.31.42.58Zm1.54,8.07c-.11.34-.44.51-.71.1-.22-.33-.58-.74-.52-1.06.31-1.81.76-3.6,1.69-5.21.14-.23.41-.62.75-.49.47.19.23.71.36,1.15-.26,1.87-.99,3.67-1.57,5.51Z"/>
    <path class="cls-2" d="m132.52,667.14c.06-.19,0-.49-.28-.55-.66-.15-.32.78-.85.81-.28-.25-.2-.59-.19-.88.08-2.81-.07-5.64.32-8.43.03-.18.04-.34.04-.48.02-.88-.41-1.2-1.48-1.29-3.08-.24-6.16-.5-9.24-.76-3.73-.31-7.46-.64-11.19-.98-2.68-.25-3.03-.32-3.06,1.67-.01.3-.01.64-.01,1.03s.06.82.02,1.22c-.11,1.03.01,1.88,1.21,2.24.5.15.66.71.8,1.2.4,1.39.83,2.78,1.22,4.18.84,3.04.82,3.12,3.86,3.41,2.18.21,4.35.51,6.54.61,1.47.08,2.95.07,4.43-.12.94-.12,1.24-.42,1.24-1.29,0-3.21.88-6.39.35-9.62-.04-.25-.06-.6.28-.68.37-.09.4.25.48.51.33,1.08.6,2.13.51,3.31-.19,2.21-.19,4.44-.31,6.66-.05.86.24,1.1,1.11,1.26,1.59.31,2.76-.56,4-1.16.76-.37,0-1.24.2-1.87Zm-20.24-2.12c-.62-.03-.42-.69-.45-1.11-.09-1.08-.17-2.16.01-3.07,0-1.45-.01-2.71,0-3.98.01-.26.04-.61.37-.63.32-.02.45.31.49.56.08.4.11.81.11,1.22,0,1.99,0,3.98-.03,5.97,0,.41.17,1.07-.5,1.04Zm4.4,1.27c0,.31,0,.69-.39.78-.45.11-.62-.27-.78-.59-.08-.16-.16-.35-.14-.52.24-2.43.11-4.87.07-7.31,0-.29.06-.58.39-.6.43-.03.49.35.52.66.11,1.39.2,2.79.34,4.74,0,.58,0,1.71-.01,2.84Zm5.07.76c0,.98-.66,1.21-1.43,1.27-.91.07-.85-.66-.88-1.22-.14-3.03-.11-6.06.8-9,.08-.27.02-.72.45-.72.36,0,.44.4.58.68.8,1.62.3,3.38.48,5.07,0,1.31-.01,2.62,0,3.92Zm3.3.6c-.33-1.3-.1-2.58.13-3.87.22,1.3.24,2.59-.13,3.87Z"/>
    <path class="cls-2" d="m99.97,643.05c-.33.17-.5-.08-.63-.33-1.08-2.2-2.15-4.39-3.22-6.59-.19-.4-.25-.79.18-1.08.26-.18.59-.15.72.1.84,1.63,2.25,2.96,2.59,4.86.03.13.01.27.01.35-.23.79.32,1.33.46,1.98.06.27.21.55-.11.71Z"/>
    <path class="cls-2" d="m107.58,632.92c.01.27-.23.32-.41.46-.52.4-1.09.35-2.05.18-3.32-.24-7.03-.5-10.73-.76-.48-.03-.99-.11-1.05-.65-.06-.51.41-.63.84-.67.41-.03.55-.28.49-.65-.2-1.07.46-1.15,1.22-1.02,1.04.17,1.98.62,2.95,1.04,1.37.59,2.98,1.11,4.55,1.07,1.31-.03,2.45.6,3.72.6.24,0,.45.12.47.4Z"/>
    <path class="cls-2" d="m78.19,626.63c-.92.33-1.45,1.04-1.82,1.9-.19.43-.39.57-.59.57-.36,0-.72-.42-1.04-.54-.61-.24-1.04-.65-.41-1.32.53-.56.97-1.21,1.57-1.72.21-.17.42-.33.67-.46.63.3,1.28.54,1.84.91.42.27.13.54-.22.66Z"/>
    <path class="cls-2" d="m60.29,582.07c-.64,2.07-.81,4.44-1.83,6.58-.13.27-.17.67-.59.65-.37-.03-.44-.42-.63-.66-.23-.29-.35-.64-.27-1.01.44-2.07.66-4.2,1.5-6.17.23-.53.3-1.44,1.16-1.21.74.19.52,1.04.66,1.82Z"/>
    <path class="cls-2" d="m97.2,565.26c-.59,7.64-1.35,15.27-2.02,22.9-.58,6.73-1.13,13.46-1.7,20.2-.02.22-.03.45-.08.67-.1.38-.1.9-.68.85-.62-.07-.61-.58-.57-1.05.3-3.34.6-6.68.91-10.02.23-2.53.47-5.06.69-7.59.4-4.65.79-9.3,1.19-13.95.42-4.7.86-9.4,1.26-14.1.07-.86.18-1.7.47-2.71.59,1.67.65,3.28.53,4.8Z"/>
    <path class="cls-2" d="m123.22,427.08c-.4,3.35-.87,6.7-1.19,10.06-.47,4.73-1.88,9.28-2.72,13.94-.35,1.96-.65,3.92-.97,5.89-.05.36-.13.71-.39.99-.18.2-.38.42-.68.24-.21-.12-.35-.36-.27-.58.48-1.26.08-2.59.42-3.89,1.47-5.57,1.86-11.33,2.78-17,.33-1.96.43-3.97.87-5.9.56-2.42-.16-4.56-1.04-6.71-.22-.53-.39-1.09-.69-1.91,1.7,1.27,2.1,3.3,3.77,4.23.12.07.13.43.11.64Z"/>
    <path class="cls-2" d="m101.61,621.78c-.57.47-1.11.18-1.43-.25-2.01-2.71-4.81-4.82-6.18-8.03-.23-.55-.46-1,.34-1.29.16.1.34.15.45.27,2.36,2.54,4.84,4.97,6.75,7.9.31.48.66.91.07,1.4Z"/>
    <path class="cls-2" d="m176.69,348.66c-.35-.59.32-1.94-1.27-1.79-.75.07-1.61-.2-1.71-1.31-.1-1.08-.35-2.15-.52-3.23-.06-.38-.28-.91.3-1,.51-.08.59.45.71.84.27.89.29,1.91,1.44,2.69-.42-2.29-.85-4.32-1.16-6.37-.12-.81-.43-1.07-1.22-1.08-4.09-.04-8.06.86-12.01,1.75-2.59.59-5.05,1.69-7.77,1.71-.56,0-1.32-.01-1.44.74-.22,1.34-.7,2.61-.19,4.07,1.16,3.29,2.59,6.48,3.85,9.73.26.67.65.83,1.33.82,1.3-.02,2.51-.4,3.7-.83,5.02-1.85,10.03-3.72,15.18-5.19.93-.26,1.09-1,.78-1.55Zm-20.22,6.2c-.42-.12-.66-.45-.8-.86-.91-2.75-1.82-5.49-2.73-8.24-.14-.42-.38-.81.31-1.07.77-.29.7.31.85.68,1.12,2.81,1.86,5.77,3.16,8.52.05.12.08.26.13.4-.01.65-.42.73-.92.57Zm1.84-2.7c-.45.1-.52-.43-.62-.76-.62-1.94-1.23-3.9-1.83-5.85-.1-.34-.24-.7.12-1.14.17.14.33.21.35.32.49,2.22,1.6,4.23,2.21,6.41.11.38.34.89-.23,1.02Zm2.98-1.96c-.44.14-.63-.25-.77-.59-.23-.54-.44-1.09-.69-1.74-.47.28.01,1.02-.61.98-.46-.02-.61-.54-.63-.94-.07-.99-.08-1.99-.09-2.98,0-.27.13-.57.42-.65.36-.11.4.27.55.47,1.04,1.36,1.39,3.04,2.13,4.54.17.35.1.77-.31.91Zm3.95-.15c-.37.28-.68.02-.98-.19-.14-.11-.31-.23-.38-.38-.93-2.22-1.81-4.45-2.35-6.8-.01-.33-.08-.7.33-.81.3-.08.48.18.61.43,1.19,2.21,1.92,4.6,2.96,6.87.13.3.1.66-.19.88Zm3.26-2.67c-.06.27.08.71-.33.81-.38.09-.54-.26-.72-.52-1-1.45-2-2.9-2.98-4.37-.16-.23-.48-.56-.14-.83.41-.31.68.08.88.35.83,1.11,1.35,2.44,2.68,3.59-.17-2.41-1.32-4.31-1.22-6.46.73,2.46,2.48,4.66,1.83,7.43Zm3.5.32c-.43.12-.72-.24-.83-.56-.63-1.85-1.22-3.71-1.75-5.37-.03-.49-.02-.8.28-.91.41-.15.58.22.68.49.64,1.85,1.26,3.7,1.86,5.55.1.29.17.69-.24.8Z"/>
    <path class="cls-2" d="m154.04,357.37c-1.36-3.81-2.72-7.62-4.08-11.44h0c.24,1.68.46,3.38.74,5.07.06.42.48.9-.25,1.06-.66.15-1.18-.33-1.12-.87.2-1.57-.38-3.04-.39-4.57-.01-.71.07-1.4,1.02-.7v-.02l.03.04c-.5-1.74-1.23-3.43-1.27-5.25-.02-.98.2-1.71-.54-1.71-.27,0-.68.1-1.28.33-1.65.64-4.02.7-5.87.17-2.29-.67-4.47-.32-6.7-.31-.59,0-1.18.06-1.77.05-5.5-.07-10.98.3-16.46.49-.79.03-1.57.09-2.34.19-3.37.41-6.66,1.33-10.04,1.66-3.26.32-6.47.93-9.69,1.47-.84.14-1.25.5-1.38,1.36-.38,2.47-.86,4.91-1.18,7.39-.43,3.21-.44,6.41-.42,9.63,0,.79.34.97,1.12.87,1.79-.22,3.59-.39,5.39-.44,3.21-.09,6.43-.13,9.61-.57,4.53-.63,9.1-1,13.65-1.32,4.61-.33,9.23-.64,13.86-.46,1.8.07,3.56-.35,5.33-.56,2.95-.35,5.98.05,8.98.06,2.13,0,4.26.34,6.55.13-.83-.46-1.24-1.04-1.49-1.75Zm-55.85.95c.04.16-.17.33-.37.31-.51-.07-.44-.51-.49-.85-.5-2.86-.82-5.74-.67-8.66.06-1.26.13-2.53.17-3.79.01-.42.13-.74.54-.83.47-.12.37.39.56.58.55.56.52,1.18.43,1.87-.39,2.76-.19,5.51.28,8.24.2,1.14-.69,2.03-.45,3.13Zm7.89-14.41c-.45,3.88-.36,7.79-.6,11.68-.04.7-.05,1.43-.81,1.71-.68.26-.98-.45-1.45-.76-1.69-1.08-1.51-3.05-2.33-4.78-.51,1.01-.33,2.09-1.12,3.14.06-3.21.19-6.11,1.18-8.9.14-.4.18-1,.82-.89.59.1.56.68.61,1.1.23,2.02.42,4.05.63,6.08.05.52.03,1.07.61,1.67.07-1.37.11-2.56.2-3.74.17-2.22.2-4.45.78-6.61.15-.53.27-1.21.94-1.12.84.12.6.84.54,1.42Zm1.91,9.45s-.11.4-.13.62c-.04.37.13.95-.47.89-.5-.05-.4-.63-.4-1.02-.02-1.53-.01-3.07-.01-4.61h-.1c0-1.53,0-3.07.01-4.61,0-.36-.02-.78.44-.87.57-.11.67.39.73.77.1.63.23,1.28.15,1.89-.24,1.88.16,3.68.41,5.52.06.46.78,1.47-.63,1.42Zm6.13,3c-.6.01-1.15-.44-1.21-1.1-.3-3.3-1.06-6.55-1.14-9.87,0-.59.03-1.29.81-1.37.83-.08.94.71.97,1.23.17,3.31.74,6.57,1.23,9.68-.09.67.13,1.42-.66,1.43Zm5.29-1.32c-.38.22-.7,0-.99-.23-.14-.11-.27-.24-.37-.39-1.65-2.29-3.04-4.72-3.79-7.47-.2-.71-.16-1.34.56-1.62.5.07.68.33.8.63.79,2,1.93,3.79,3.04,5.61.46.73.54,1.7.95,2.5.15.32.2.74-.2.97Zm4.37-4.09c-.53.21-.86-.3-1.04-.68-.52-1.05-.68-2.24-1.47-3.53-.09,1.97.33,3.56.52,5.18.04.28.22.71-.26.77-.31.04-.4-.31-.46-.58-.59-2.47-1.03-4.97-1.08-7.53-.02-.54.28-.81.74-1.01.47-.22.75.02,1.06.32.39.38.78.71.93,1.3.39,1.54.88,3.05,1.31,4.58.12.43.3.97-.25,1.18Zm5.42,3.21c-.64.05-.67-.62-.77-1.09-.62-2.74-.97-5.51-1.18-8.31-.05-.65.05-1.22.83-1.28.86-.08.91.55.93,1.17.09,2.76.21,5.51.8,8.02-.02.73.16,1.43-.61,1.49Zm4.17-8.49c-.51,1.96-1.2,3.84-2.56,5.43.13-2.07,1.01-3.88,1.82-5.72.08-.19.28-.37.55-.27.27.11.25.34.19.56Zm2.96,6.69c-.33.1-.49-.17-.62-.41-.58-1.11-1.18-2.23-1.51-3.46-.1-.36-.27-.81.32-.93.08.02.13.03.17.04.2.09,2.16,3.78,2.11,4-.08.3-.12.65-.47.76Zm1.3-2.04c-.49.09-.49-.46-.59-.76-.74-2.36-.83-4.81-.9-7.27-.01-.35.12-.66.51-.66.45,0,.6.38.64.75.25,2.34.49,4.69.76,7.37,0,.03-.01.49-.42.57Zm6.61,3.77c-.66.16-1.21-.35-1.34-1.05-.2-1.07-.37-2.15-.48-3.23-.21-1.85-.36-3.7-.54-5.59.11-.42-.11-1.13.51-1.23.68-.12.69.61.76,1.06.29,2.09.59,4.19.74,6.3.07.84.44,1.56.6,2.35.1.51.5,1.2-.25,1.39Zm4.6-.11c-.09.31-.37.36-.66.35-.47-.01-.91-.04-1.14-.56-.45-.99-.79-2.03-1.19-3.03-.54-1.33-.78-2.78-1.12-4.05.04-.5-.02-.99.4-1.07.53-.09.61.45.72.82.43,1.48.77,2.99,1.34,4.43.3.76.52,1.52,1.26,2.02.33.22.53.65.39,1.09Z"/>
    <path class="cls-2" d="m204.78,330.34c.15-.35-.13-.69-.24-1.03-1.81-5.51-4.83-10.48-6.91-15.88-1.45-3.77-3.16-7.44-4.83-11.12-1.1-2.43-1.59-5-1.94-7.61-.04-.3-.2-.67.23-.8.48-.16.49.32.59.56,1.27,2.95,3.13,5.59,4.51,8.48.2.43.37.92,1.01,1.26-.03-.19-.06-.37-.08-.55-.2-1.28-.41-2.47-.55-3.67-.66-5.75-1.22-11.51-1.63-17.29-.36-4.99.2-9.86.9-14.72.85-5.91.58-11.74-.22-17.6-.13-.94-.27-1.89-.42-2.83-.58-3.62-.99-7.29-1.8-10.87-1.2-5.34-2.69-10.63-4.04-15.94-1.22-4.79-1.8-9.7-2.5-14.59-.78-5.49-.04-11.05-.6-16.57-.36-3.46-.03-6.98-.64-10.43-.16-.86-.15-1.72-.15-2.58.01-3.04.1-6.09-.62-9.06-.24-.96-.09-1.95-.61-2.9-1.76-3.22-3.2-6.6-4.25-10.13-1.58-5.29-3.11-10.61-4.69-15.9-1.11-3.74-2.23-7.47-3.43-11.18-.44-1.37-.43-3.04-2.12-3.73-2.79-1.14-5.36-2.67-7.87-4.31-1.24-.81-2.55-.95-3.88-.63-4.53,1.1-9.04,2.3-13.57,3.42-1.29.32-2.54.89-4.01.81.91-1.36,4.02-3.52,6.1-4.14,4.78-1.41,9.48-3.13,14.33-4.31.4-.09.84-.12.78-.72-.33-3.72.41-7.3,1.4-10.91-1.29-.43-2.65-.56-3.99-.63-3.29-.17-6.58-.2-9.87-.36-3.31-.17-6.65-.26-9.91.22-3.97.59-7.99.87-11.89,1.98-1.76.5-3.64.57-5.44,1.08-1.17.33-2.26.9-3.49,1.07-3.81.55-7.57,1.42-11.35,2.13-4.6.87-9.08,2.19-13.62,3.28-1.16.28-1.22.76-.88,1.6.04.09.08.19.13.29.5,1.1,1.53,1.73,2.01,2.87,1.36,3.22,2.59,6.48,3.81,9.75.35.92.82,1.37,1.82,1.04.3-.09.63-.1.95-.13,6.81-.7,13.69-.74,20.43-2.13,1.83-.38,3.75-.24,5.84.39-.89.51-1.55,1.19-2.26,1.25-1.82.13-3.57.63-5.38.81-5.83.59-11.64,1.3-17.47,1.9-1.49.15-2.37.93-3,2.21-.63,1.28-1.2,2.58-1.97,3.82-1.64,2.65-3.09,5.42-4.3,8.31-.22.54-.37,1.08-.17,1.58.77,1.9.47,3.97,1.04,5.88.52,1.73.34,3.51.53,5.26.15,1.37-.73,2.59-1.13,3.88-1.84,5.86-4.51,11.35-7.32,16.79-2.64,5.12-5.5,10.13-7.66,15.48-.16.4-.38.79-.48,1.2-.08.32-.08.65.07,1,.45,1.03.48,2.12.61,3.2.1.9.2,1.85.74,2.58.52.69.8,1.42.87,2.24.19,2.4.57,4.75,1.28,7.06.13.42.15.88.22,1.32.41,2.65.27,5.36.65,7.99.54,3.82.53,7.66,1.01,11.47.54,4.33-.45,8.67-.1,13.03.2,2.56-.16,5.15.11,7.72.21,2.03.3,4.06.18,6.09-.32,5.57-.34,11.13-.11,16.7.12,3.17.47,6.33.63,9.51.1,1.81.3,3.57.77,5.26.37,1.32.9,2.59,1.68,3.81,1.02,1.6,1.73,3.39,2.67,5.05,1.76,3.11,3.49,6.35,6.19,8.71,2.65,2.31,4.21,5.37,6.45,7.98-.46.14-.79-.07-1.05-.29-1.96-1.65-4.47-2.62-6.1-4.71-.16-.2-.42-.45-.63-.45-.29,0-.33.38-.37.65-.44,2.72-.79,5.47-1.35,8.17-.34,1.64-.37,3.37-.93,4.93-1.38,3.92-2,7.97-2.48,12.05-.16,1.36-.3,2.72-.45,4.09-.08.75.19,1.23.84,1.69,1.09.77,2.19.72,3.32.31.7-.25,1.4-.39,2.12-.45,5.57-.46,11.03-1.67,16.57-2.39.69-.09,1.38-.18,2.07-.25,4.54-.57,9.08-1.03,13.63-1.54,3.66-.41,7.45.44,10.98-1.17.15-.07.36.01.54-.02,1.93-.26,3.84.25,5.98.33-2.52-1.65-5.04-3.08-3.75-6.6.18-.49-.29-.58-.62-.71-2.26-.94-2.9-2.43-1.95-4.74.28-.69.19-1.19-.11-1.89-.21-.48-.45-.94-.72-1.38-1.15-1.91-2.71-3.54-3.82-5.48-1.75-3.1-3.72-6.06-6.2-8.69-1.86-1.97-3.38-4.27-5.02-6.45-.65-.87-1.32-1.76-1.77-2.73-.92-1.97-1.57-3.93-3.59-5.34-2.45-1.71-4.12-4.26-5.23-7.14-.91-2.36-1.92-4.73-3.22-6.89-2.17-3.59-2.82-7.34-2.35-11.46.22-1.89.3-3.81.26-5.72-.01-.72-.04-1.43-.09-2.14-.29-4.69-.65-9.4-1.3-14.05-.61-4.33-.54-8.75-1.71-13-1.14-4.09-1.86-8.27-2.84-12.39-.73-3.04-1.19-6.19-2.28-9.09-1.95-5.15-3.68-10.44-6.94-15-.4-.57-.57-1.31-.64-2.06-.19-2.21.25-4.4.08-6.6-.12-1.54.62-2.81,1.27-4.1.22-.44.59-.69,1.12-.52.55.17.62.56.58,1.07-.16,2.07.37,4.05.76,6.05.41,2.12,1.73,3.94,2.26,5.96,1.76,6.77,4.5,13.24,6.08,20.07.36,1.55.23,3.18.86,4.67,1.52,3.62,2.07,7.59,3.92,11.11,1.26,2.39.83,5.13,1.33,7.69.63,3.23.67,6.54.61,9.83-.03,1.59.42,3.14.23,4.75-.3,2.57-.48,5.14-.4,7.71.03,1.22.13,2.43.3,3.65.13.89.56,1.72.31,2.65-.56,2.1-.89,3.95.45,6.16,1.13,1.87,2.04,4.01,3.09,6,1.25,2.35,2.85,4.51,4.28,6.77,2.49,3.88,4.87,7.84,7.48,11.64,1.73,2.54,3.13,5.3,5.03,7.73,1.58,2.01,2.36,4.45,3.69,6.6,1.63,2.63,3.22,5.28,4.78,7.94.32.54.64,1.09.96,1.63.34.57.57.89,1.2.39.25-.2.61-.26.87.03.26.3.13.64-.1.86-.75.72-.71,1.73-1.02,2.61-.31.86.15,1.03.78,1.19.74.19,1.44-.18,2.17-.09.44.05.96.22.4.72-.93.82-.77,1.8-.51,2.75.18.66.24,1.13-.45,1.45-.28.14-.67.25-.57.65.1.41.52.51.87.53.9.04,1.81.03,2.71.03,1.25,0,1.42.25.94,1.4-.33.8-.27,1.46.49,2.03.88.66,1.58,1.49,1.98,2.55.03.07.06.15.09.22.14.27.33.51.67.39,1.23-.43,2.52-.12,3.75-.39,3.09-.68,6.17-1.47,9.27-2.15,1.06-.22,2.17-.37,3.24-.32,2.14.1,4.13-.46,6.11-1.13.32-.1.52-.25.57-.53,0-.07,0-.16,0-.25-.13-1.17.38-2.22.64-3.32.07-.31.43-.68-.06-.95-1.28-.71-.42-1.28.12-1.86.35-.38.94-.51,1.19-1.01-.28-.38-.7-.47-.95-.83-1-1.42-.94-1.79.59-2.57.48-.25,1.02-.4,1.47-.69.32-.21.86-.78.66-.89-.76-.42-.65-1.81-1.3-1.72-1.3.18-1.4-.69-1.97-1.45.74-.03,1.4-.86,1.82.26.11-.68,1.22-.61,1.11-1.39-.08-.59-.4-1.15-1.12-1.16-.64-.01-1.27.07-1.91.1-1.18.05-2.35.14-3.53.12-.59-.01-1.21-.21-1.27-.96-.06-.74.54-.89,1.08-.97.54-.07,1.09-.07,1.63-.05.81.03,1.12-.29,1.09-1.14-.07-1.77-.07-3.54-.36-5.29-.12-.74.05-1.4.13-2.11.18-1.46.82-2.93.4-4.4-.32-1.1-.23-2.13-.04-3.22.36-2.01.68-4.02.99-6.04.17-1.05-.12-2.26-.7-3.21-.1-.16-.17-.32-.26-.48-1.8-3.23-3.32-6.62-5.18-9.8-1.81-3.08-3.36-6.29-5.12-9.39-1.58-2.79-2.81-5.77-4.82-8.31-3.01-3.8-6.38-7.31-9.06-11.37-1.45-2.2-2.95-4.37-4.42-6.55-.2-.3-.48-.72-.13-.98.42-.32.58.23.77.47,4.22,5.34,9.02,10.16,13.84,14.95.38.38.79.76,1.43.6.7-.18.69-.81.79-1.3.9-4.3,1.8-8.59,2.66-12.89.47-2.33-.11-4.3-1.12-6.1-2.14-3.77-4.62-7.36-7.22-10.84-.62-.83-1.04-1.68-1.28-2.62-.5-1.95-1.24-3.79-2.07-5.61-.63-1.36-1.45-2.62-2.1-3.96-.18-.36-.4-.81.12-1.07.4-.2.64.18.9.43.42.43.58,1.1,1.27,1.44.39-1.72.06-3.35.18-4.96.24-2.98.55-5.96.8-8.95.43-5.13,1.5-10.13,2.77-15.1.8-3.14,2.29-6.01,3.09-9.14.39-1.53,1.21-2.99-.41-4.32-.41-.34-.2-.87.13-1.23.36-.41.75-.14,1.1.06,1.23.7,1.9,1.81,2.02,3.18.22,2.43-.56,4.76-1,7.1-1.14,6.16-2.07,12.36-3.36,18.5-.83,3.98-1.47,8.02-2.03,12.05-.36,2.62-.18,5.34.7,7.79.87,2.4,2.23,4.67,3.75,6.77,2.95,4.08,5.04,8.57,6.73,13.28.12.36.15.7.11,1.07-.42,4.29-.84,8.59-1.86,12.77-1.02,4.18-.66,8.24.56,12.22.54,1.76,1.05,3.56,1.83,5.3,1.33,2.96,2.78,5.88,4.34,8.69,1.89,3.4,3.6,6.89,5.57,10.25.12.21.56.63-.02.69-.77.09-.5.59-.58.98-.46,2.36-.04,4.81-.8,7.15-1.37,4.26-1.67,8.6-.77,13.02.23,1.15.66,1.53,1.83,1.6,2.68.17,3.34,1.3,2.34,3.72-.44,1.06-.52,1.97.64,2.65.95.56.77,1.25.02,1.85-.74.59-1.53,1.12-2.42,1.76,1.24.16,1.75,1.05,1.85,1.95.11,1.01-.89,1.35-1.68,1.72-.61.29-1.21.61-1.83.91-.3.15-.59.3-.47.7.42,1.49-.29,2.75-.84,4.03-.05.12-.15.22-.2.33-.03.1-.03.22.09.37.91,1.17,1.75,2.36,3.56,1.92.49-.13,1.09.01,1.61.15,3.47.91,7,1.56,10.54,2.13,2.54.41,5.02,1.08,7.5,1.73,2.03.54,4.07,1.06,6.14,1.42.79.14,1.05.02,1.11-.77.15-1.9.3-3.78.1-5.71-.16-1.63-.6-3.32.07-4.97Zm-79.55-177.38c-.94.63-1.35,1.57-1.91,2.49-.63,1.03-1.87,1.65-2.77,2.54-4.21,4.13-9.44,6.87-14.07,10.43-1.2.92-2.6,1.44-3.88,2.21-.15.1-.33.15-.44.2-.3.03-.52-.02-.63-.26-.1-.22-.03-.44.11-.64.41-.56.97-.95,1.56-1.29,1.58-.92,3.14-2.05,4.14-3.47,1.74-2.47,4.08-4.2,6.3-6.1,3.1-2.66,6.49-4.93,10.08-6.9.41-.23.81-.4,1.28-.19.51.23.81.58.23.98Zm3.58.03c-.62.14-.82-.39-.87-.81-.3-2.23-1.32-4.24-1.87-6.39-1.16-4.54-2.29-9.08-2.25-13.81,0-.36-.01-.73.07-1.08.1-.4.31-.81.75-.9.54-.1.64.41.8.76,1.17,2.56,1.34,5.35,1.79,8.07.7,4.29,1.32,8.6,1.98,12.89.02.14.06.27.09.4.02.4-.07.78-.49.87Zm22.9,15.41c-.27.28-.57.47-.97.35-.66-.19-1.27-.49-1.79-.94-4.6-3.99-10.01-6.85-14.79-10.57-1.11-.87-2.25-1.68-3.39-2.5-.35-.25-.54-.51-.23-.89.29-.36.39-.97,1.11-.91.95.5,2.01.93,2.94,1.57,3.24,2.23,6.47,4.47,9.66,6.78,2.31,1.67,4.61,3.33,6.66,5.31.26.25.48.54.7.84.21.29.44.6.1.96Z"/>
    <path class="cls-1" d="m57.89,607.3c-1.69,1.84-3.4,3.65-5.11,5.46-.19.2-.45.36-.71.14-.27-.23-.14-.53.03-.73,1.78-2.05,3.63-4.04,5.66-5.84.05-.05.17-.01.28-.01.25.37.07.74-.15.98Z"/>
    <path class="cls-1" d="m93.4,677.27c-.96-2.18-1.56-4.53-2.69-6.66-.1-.19-.15-.48-.08-.65.39-.94.67-1.93,1.03-2.88l-1.87-.8c-.61,1.46-1.26,2.93-1.8,4.46-.49-.91-.67-1.75-.47-2.83.23-1.19-.04-2.53-.31-3.76-.85-3.8-1.9-7.55-2.66-11.37-.3-1.49-.38-3.07.6-4.56,1.05-1.6.8-3.59,1.04-5.42.15-1.18.42-2.35.03-3.62-.83-2.72-2.95-4.25-4.96-5.9-.34-.28-.98-.33-.86-.9.03-.14.08-.28.14-.42l-2.11-1.09h-.01c-.41-.14-.79-.35-.51-.82l-2.13-.95c-.36,0-.72-.42-1.04-.54-.61-.24-1.04-.65-.41-1.32.53-.56.97-1.21,1.57-1.72l-1.59-.2c-.24.21-.49.41-.72.62-.45.42-.84,1.19-1.5,1.02-.9-.24-1.78-.68-2.56-1.2-.55-.36-.19-.86.18-1.26.9-.95,1.83-1.88,2.55-2.99l-1.46-.53c-2.32,2.04-4.41,4.29-6.63,6.64.63.24.94-.45,1.33-.03.19.2.08.49-.1.6-.6.34-.6,1.48-1.56,1.26-1.38-.31-2.7-.74-3.68-1.94-.52-.64-.56-1.01.03-1.57,1.68-1.59,3.26-3.29,5-4.82.87-.76,1.26-1.74,1.78-2.67.11-.2.26-.43.06-.62-.28-.26-.55-.02-.68.19-1.43,2.28-3.7,3.72-5.55,5.57-2.27,2.25-2.42,2.37-4.67.18-.67-.65-1.33-1.33-1.97-2.01-1.94-2.05-3.79-4.19-5.7-6.26-.43-.47-.23-.92,0-1.38.95-1.91,1.89-3.82,2.86-5.72.33-.67.69-1.32.31-2.06-.38-.75-.13-1.27.41-1.81.75-.73,1.47-1.49,2.16-2.27l-.82-.75c-.09.1-.2.21-.32.34-.59.63-1.23,1.21-1.82,1.84-.55.6-.99.54-1.61.04-1.63-1.33-3.08-2.82-4.54-4.32-.44-.46-.86-.96-1.54-1.06-.66-.1-.96-.5-1.19-1.13-.41-1.11-3.08-1.84-3.67-1-.5.71-1.15.95-1.86,1.25-2.17.93-4.35,1.84-6.39,3.07-.5.3-.77.68-1,1.2-.59,1.34-.5,2.82-1.14,4.18-1.3,2.78-1.59,3.48-3.3,4.24l1,2.32c.18-.08.37-.16.55-.24,1.75-.74,2.76-1.69,3.38-3.47.78-2.21,1.94-4.29,2.55-6.58.1-.38.37-.62.71-.77.29-.14.59-.23.88-.38,4.89-2.46,3.24-2.19,6.87,1.61,1.72,1.79,3.63,3.39,5.31,5.22.6.66.75,1.07.4,1.85-.93,2.07-1.86,4.13-3.18,6-1.02,1.44-.82,3.24.42,4.46.66.65,1.11.14,1.41-.37.65-1.12,1.29-.92,2.14-.2,3.72,3.15,7.01,6.71,9.99,10.57,1.02,1.33,2.09,2.63,3.24,3.85,1.28,1.38,2.09,2.99,2.46,4.78.97,4.62,2.86,8.97,3.9,13.58.2.85.71,1.66,1.17,2.43,1.88,3.13,2.28,6.77,3.51,10.12.95,2.59,1.83,5.21,2.49,7.89.64,2.62,2.58,3.74,4.77,4.62,1.39.55,2.83,1.03,4.28,1.35,1.56.35,2.81,1.24,4.17,1.95,1.44.75,1.4,2.22,1.95,3.41-.09.22-.15.42-.23.62l2.54,1.06c.53-1.29,1.08-2.58,1.65-3.86.75-1.7.81-3.03.07-4.71Zm-12.25-3.75c-.61-.28-1.2-.69-1.94-.43-.3.11-.52.02-.65-.29-.35-.92-.82-1.82-1.05-2.77-.7-2.92-1.79-5.7-2.76-8.52-.39-1.14-.7-2.3-1.03-3.45-.17-.63-.36-1.27-.56-1.89-1.65-5.13-3.33-10.25-5-15.37-.32-.99-.75-1.93-1.04-2.94-.31-1.12-.1-2,.4-2.95.69-1.32,1.34-2.66,1.56-4.17.12-.89.57-1.15,1.42-.58,1.17.78,2.44,1.4,3.82,1.74.63.16,1.15.51,1.61.97,1.88,1.91,3.76,3.8,5.64,5.7,1.31,1.32,1.52,2.73.99,4.57-.4,1.37-.08,2.96-.06,4.45.02,1.23-.17,2.44-.29,3.66-.1,1.01-.56,1.13-1.47.93-2.07-.46-4.06-1.38-6.26-1.17-.46.04-1.13-.19-1.23.49-.09.57.59.56.95.8,1.87,1.24,4.06,1.12,6.15,1.44.17.02.41,0,.52-.1,1.43-1.26,1.29.09,1.47.87.31,1.36.31,2.75.37,4.14.08,1.15.2,2.29.6,3.4.21.58-.26,1.04-.44,1.53-.34.95-.89.05-1.33.06-1.45.03-2.86-.57-4.33-.3-.32.05-.67.04-.68.48-.01.31.23.48.51.56,1.74.49,3.5.96,5.31.48.43-.12.54-.1.66.29.66,2.25,1.53,4.47,1.89,6.77.15.97.48,1.95.55,3.07-1.54-.42-2.95-.86-4.3-1.47Zm8.62,2.01c.79,1.51,1.21,3.14,1.51,4.8-.85-1.5-1.49-3.06-1.51-4.8Z"/>
    <path class="cls-2" d="m78.43,630.87h-.01c-.41-.14-.79-.35-.51-.82.02-.04.05-.08.08-.12.54-.73,1.14-1.41,1.58-2.2.34-.6.64-.31.86.14.37.77-1.08,3-2,3Z"/>
    <path class="cls-2" d="m75.24,624.14c-.17.48-.53.84-.93,1.18-.24.21-.49.41-.72.62-.45.42-.84,1.19-1.5,1.02-.9-.24-1.78-.68-2.56-1.2-.55-.36-.19-.86.18-1.26.9-.95,1.83-1.88,2.55-2.99.15-.24.31-.44.65-.35.46.11,2.36,2.44,2.33,2.98Z"/>
    <path class="cls-2" d="m70.89,618.63c-2.22-2.06-4.01-4.49-6.01-6.74-.28-.32-.57-.64-.87-.95-2.78-2.92-5.4-6-8.05-9.04-.51-.57-.87-.64-1.39-.04-.12.14-.24.27-.37.4-.69.78-1.41,1.54-2.16,2.27-.54.54-.79,1.06-.41,1.81.38.74.02,1.39-.31,2.06-.97,1.9-1.91,3.81-2.86,5.72-.23.46-.43.91,0,1.38,1.91,2.07,3.76,4.21,5.7,6.26.64.68,1.3,1.36,1.97,2.01,2.25,2.19,2.4,2.07,4.67-.18,1.85-1.85,4.12-3.29,5.55-5.57.13-.21.4-.45.68-.19.2.19.05.42-.06.62-.52.93-.91,1.91-1.78,2.67-1.74,1.53-3.32,3.23-5,4.82-.59.56-.55.93-.03,1.57.98,1.2,2.3,1.63,3.68,1.94.96.22.96-.92,1.56-1.26.18-.11.29-.4.1-.6-.39-.42-.7.27-1.33.03,2.22-2.35,4.31-4.6,6.63-6.64,1.19-1.05,1.23-1.3.09-2.35Zm-18.82-5.73c-.27-.23-.14-.53.03-.73,1.78-2.05,3.63-4.04,5.66-5.84.05-.05.17-.01.28-.01.25.37.07.74-.15.98-1.69,1.84-3.4,3.65-5.11,5.46-.19.2-.45.36-.71.14Zm1.83,4.21c-.43.01-.55-.22-.55-.52-.01-.42.1-.84.42-1.11,1.79-1.49,3.21-3.33,4.84-4.97.22-.22.47-.56.8-.35.39.23.12.58-.06.82-1.52,2.1-3.35,3.93-5.05,5.88-.12.13-.3.19-.4.25Zm5.7,6.33c.67-1.09,1.65-1.87,2.66-2.63-.67,1.09-1.63,1.89-2.66,2.63Zm3.73-9.4c-.24.99-1,1.6-1.63,2.31-1.25,1.38-2.49,2.76-3.76,4.12-.34.35-.72.69-1.19.8-.41-.13-.78-.27-1.06-.5-.09-.08-.18-.17-.25-.28-.24-.36-.02-.7.22-.99,1.98-2.39,4.12-4.6,6.82-6.18.18-.11.38-.29.59-.29.09,0,.18.03.27.11.27.26.06.6-.01.9Z"/>
    <path class="cls-2" d="m89.37,684.16c-.09.22-.15.42-.23.62-.08.2-.16.38-.26.56-1.15,1.85-1.84,3.93-2.68,5.9-.86,2.01-1.42,4.22-1.84,6.43-.52,2.68-2.06,5.12-1.84,7.97.03.27,0,.6-.33.67-.34.07-.6-.16-.82-.4-2.52-2.91-5.31-5.57-7.95-8.36-3.24-3.42-6.46-6.85-9.76-10.2-4.06-4.14-8.09-8.31-11.98-12.59-1.12-1.23-1.15-3.1-1.52-4.72-.55-2.47-1.11-4.93-1.62-7.41-.96-4.65-4.52-7.45-7.57-10.59-2.69-2.76-5.34-5.54-7.99-8.33-3.84-4.05-7.71-8.06-11.67-11.99-3.49-3.45-7.11-6.77-10.54-10.27-1-1.01-.91-1.1.36-1.79,4.83-2.65,9.82-5,14.87-7.18.18-.08.37-.16.55-.24,1.75-.74,2.76-1.69,3.38-3.47.78-2.21,1.94-4.29,2.55-6.58.1-.38.37-.62.71-.77.29-.14.59-.23.88-.38,4.89-2.46,3.24-2.19,6.87,1.61,1.72,1.79,3.63,3.39,5.31,5.22.6.66.75,1.07.4,1.85-.93,2.07-1.86,4.13-3.18,6-1.02,1.44-.82,3.24.42,4.46.66.65,1.11.14,1.41-.37.65-1.12,1.29-.92,2.14-.2,3.72,3.15,7.01,6.71,9.99,10.57,1.02,1.33,2.09,2.63,3.24,3.85,1.28,1.38,2.09,2.99,2.46,4.78.97,4.62,2.86,8.97,3.9,13.58.2.85.71,1.66,1.17,2.43,1.88,3.13,2.28,6.77,3.51,10.12.95,2.59,1.83,5.21,2.49,7.89.64,2.62,2.58,3.74,4.77,4.62,1.39.55,2.83,1.03,4.28,1.35,1.56.35,2.81,1.24,4.17,1.95,1.44.75,1.4,2.22,1.95,3.41Z"/>
    <path class="cls-2" d="m84.9,671.92c-.36-2.3-1.23-4.52-1.89-6.77-.12-.39-.23-.41-.66-.29-1.81.48-3.57.01-5.31-.48-.28-.08-.52-.25-.51-.56.01-.44.36-.43.68-.48,1.47-.27,2.88.33,4.33.3.44,0,.99.89,1.33-.06.18-.49.65-.95.44-1.53-.4-1.11-.52-2.25-.6-3.4-.06-1.39-.06-2.78-.37-4.14-.18-.78-.04-2.13-1.47-.87-.11.1-.35.12-.52.1-2.09-.32-4.28-.2-6.15-1.44-.36-.24-1.04-.23-.95-.8.1-.68.77-.45,1.23-.49,2.2-.21,4.19.71,6.26,1.17.91.2,1.37.08,1.47-.93.12-1.22.31-2.43.29-3.66-.02-1.49-.34-3.08.06-4.45.53-1.84.32-3.25-.99-4.57-1.88-1.9-3.76-3.79-5.64-5.7-.46-.46-.98-.81-1.61-.97-1.38-.34-2.65-.96-3.82-1.74-.85-.57-1.3-.31-1.42.58-.22,1.51-.87,2.85-1.56,4.17-.5.95-.71,1.83-.4,2.95.29,1.01.72,1.95,1.04,2.94,1.67,5.12,3.35,10.24,5,15.37.2.62.39,1.26.56,1.89.33,1.15.64,2.31,1.03,3.45.97,2.82,2.06,5.6,2.76,8.52.23.95.7,1.85,1.05,2.77.13.31.35.4.65.29.74-.26,1.33.15,1.94.43,1.35.61,2.76,1.05,4.3,1.47-.07-1.12-.4-2.1-.55-3.07Zm-12.98-36.95c-.53-.51-.73-.6-1.17.07-.41.62-.65,1.3-.98,1.93-.27.52-.71.93-1.32.57-.57-.32-.41-.87-.15-1.32.68-1.17,1.37-2.35,2.12-3.48.36-.55.91-.69,1.55-.31,2.99,1.81,5.9,3.73,8.52,6.05,1.51,1.33,1.44,3.26,1.48,5.04.03,1.35-.31,2.7-.47,4.05-.08.62-.27,1.21-.97,1.29-.77.1-.99-.58-1.14-1.13-.18-.65-.22-1.34-.29-1.87.12-.96.14-1.79.35-2.58.3-1.11-.12-1.77-1-2.39-2.41-1.7-4.42-3.87-6.53-5.92Zm2.35,22.93c-.03-.11-.04-.22-.03-.35.06-.88.9-.85,1.58-.88,2.11-.09,3.92.94,5.84,1.54.22.07.43.19.39.47-.04.27-.3.33-.51.37-.48.09-.97.14-1.33.19-1.62-.17-3.1-.3-4.57-.5-.58-.08-1.22-.29-1.37-.84Z"/>
    <path class="cls-2" d="m207.98,707.08c-1.32,1.3-2.11,3.1-3.61,4.07-2.07,1.34-4.47,1.86-7.02,1.63-3.47-.31-6.96-.45-10.44-.65-3.65-.21-7.31-.5-10.97-.58-5.57-.13-11.11-.69-16.67-.87-1.68-.05-3.4.07-5.01-.29-1.56-.36-2.86-1.47-4.19-2.4-2.07-1.45-4.18-2.84-6.25-4.28-3.89-2.71-8.39-2.36-12.76-2.53-3.81-.14-7.6-.35-11.4-.59-5.48-.34-10.97-.54-16.45-.71-5.04-.16-10.08-.18-15.12-.29-1.45-.03-1.42-.13-.96-1.53,1.37-4.13,2.89-8.21,4.55-12.22.53-1.29,1.08-2.58,1.65-3.86.75-1.7.81-3.03.07-4.71-.96-2.18-1.56-4.53-2.69-6.66-.1-.19-.15-.48-.08-.65.39-.94.67-1.93,1.03-2.88.22-.58.47-1.14.79-1.67.25-.4.59-.54,1.04-.49,1.7.23,3.42.2,5.14.42,2,.26,4.06.16,6.09.06.87-.04,1.19.24,1.45.98.78,2.19,1.52,4.37,1.83,6.68.23,1.67,1.73,2.97,3.39,2.95.89-.01.89-.69.75-1.28-.31-1.28.34-1.6,1.44-1.59,1.27.01,2.54,0,3.81,0,5.8-.17,11.46,1.1,17.19,1.68,1.31.13,2.44.79,3.46,1.5,3.91,2.72,8.31,4.6,12.25,7.29.76.52,1.73.76,2.64,1.01,3.44.95,6.15,3.26,9.24,4.86,2.92,1.53,5.85,3.05,8.72,4.7,1.82,1.04,3.42.05,4.99-.44,1.79-.56,3.38-1.76,5.15-2.43,2.21-.85,4.34-1.61,6.84-.19,1.81,1.02,3.69,1.9,5.59,2.74,1.9.85,3.82,1.67,5.7,2.56,2.46,1.17,5.05,2.09,7.43,3.43,2.04,1.15,3.08,5.58,1.39,7.23Z"/>
  </g>
  <path class="cls-2" d="m192.83,434.22c-.15-.27-.4-.62-.69-.61-.43.02-.7.86-.81,1.2-.57,1.73-1.54,3.31-2.09,5.05-1.45,4.59-1.39,3.72-1.67,5.07-.66,3.18-1.27,6.38-2.25,9.47-.2.63-.43,1.13-1.34.86-.98-.29-.44-.84-.33-1.26.15-.56.45-2.02,1.01-4.32.82-3.38,2.33-7.91,4.42-15.57.38-1.38.67-2.49.83-3.09.22-.25.54-.59.94-.97.38-.37.58-.55.68-.55.34,0,.79.91,1.31,4.72Z"/>
  <path class="cls-1" d="m191.89,433.69h0s.07.06.09.09c-.02-.02-.05-.05-.09-.09Z"/>
  <path class="cls-2" d="m164.39,518.62c-.89,3.76-.97,7.59-.87,11.43,0,.16-.06.35-.15.48-.76,1.05-.74,2.3-.85,3.5-.16,1.67,0,3.39-.35,5-.35,1.58-.11,3.16-.34,4.75-.45,3.17-.36,6.49.28,9.97-.61,1.32-1.22,2.64-1.83,3.96.01-.15.01-.33,0-.53-.03-.83-.16-1.43-.21-1.66-.45-2.19-.92-5.66-.09-7.99.21-.59.3-1.25.3-1.87.01-7.09.44-14.16,1.4-21.18.31-2.28.82-4.53,1.27-6.79.08-.38.19-1.13.81-.6.37.31.81.81.63,1.53Z"/>
</svg>